<mxfile host="app.diagrams.net" modified="2022-08-10T22:28:20.381Z" agent="5.0 (Macintosh; Intel Mac OS X 10_15_7) AppleWebKit/537.36 (KHTML, like Gecko) Chrome/103.0.0.0 Safari/537.36" etag="bRA4Nk_ybDloxhSmH2ic" version="20.2.3" type="github">
  <diagram id="Sx4jGhetCus07a93fa7-" name="Page-1">
    <mxGraphModel dx="1426" dy="832" grid="1" gridSize="10" guides="1" tooltips="1" connect="1" arrows="1" fold="1" page="1" pageScale="1" pageWidth="850" pageHeight="1100" math="0" shadow="0">
      <root>
        <mxCell id="0" />
        <mxCell id="1" parent="0" />
        <mxCell id="W2dNzMSNs9tSsbuihuLR-1" value="" style="shape=image;verticalLabelPosition=bottom;labelBackgroundColor=default;verticalAlign=top;aspect=fixed;imageAspect=0;image=data:image/png,iVBORw0KGgoAAAANSUhEUgAAAgAAAAIACAYAAAD0eNT6AAAABHNCSVQICAgIfAhkiAAAAAlwSFlzAAALEwAACxMBAJqcGAAAABl0RVh0U29mdHdhcmUAd3d3Lmlua3NjYXBlLm9yZ5vuPBoAACAASURBVHic7N13mBRV1sDhX3dPzgPMDEPOSbIioIAgZjG7YM6KrIo5rmEVs+uac46rmFGiAkpUcs5hhjCRYVJP6vj90eKnSOiputXV1X3e5+lnV6x76whD16kbzrUhROMlAV2BLr//bzegBdD0908CkPj7/wpr8QMVgBtwArVAAbAD2AnkAZuBlb//OyGERdnMDkBYQlfgeGAEMBBojfzsRDsvsAFYBiwBfgTWmxqREKJR5EtcHEgqcBZwEjCSwNu9EIeTD0z//TMVqDM3HCGEEMGwA0OAN4BqAkPB8pGP1k8tMBE4A3AghBAi7LQCngR2Yf5DQz6R+dkB3As0QQghhOnaAS8QGKY1+wEhn+j4OAmMMHVFCCFEyB0BfERglbfZDwT5ROfHA7yFrC0RQoiQyCDwxu/B/AeAfOTjB2oITD+lI4QQQjkbcAVQgvlf+PKRz4E+RcAYhBBCKNMLmIv5X/DykU8wn++QaQEhhNDFBowH6jH/S10+8mnMpwK4DCGEEI2WBnyO+V/k8pGPns+HBEpOCyEMIpUAI8uRBB7+Hc0ORAgF1gP/ANaaHYgQkchudgBCmcuBBcjDX0SO7gR+pk8wOxAhIpGU6IwMNwOvAjFmByKEYvHARQR2CiwzORYhIopMAVibDXgauCPkN7bbSc5oRlJ6JknpTUhOb0piajqO2HgcsbHExMbhiI3HZpMfMTN4vR72Fhbg9/sb1c7v9+PzuPF63Pi8HnxeNw01Tly1VTTUOmmoqaKhthoa2a8CfuAB4LFQ31iISCXfztYVA7xDCFdMpzbNITO3DZm5bcjIaYUjNi5UtxYa1FRVUlNZobxfr9tFTXkJzvISavaW0FBTpfweh/AEcF8obyhEpJIEwJpswHsE5v0NlZCSRk777rTo2pvE1AyjbycU8vt9lBUU4PN5Db1PQ00VlcU7qSjMw1VXY+i9fvcw8O9Q3EiISCYJgDU9B9xiVOc2m43s9t1o1b0/6dlSl8XKaqsqcRowCnBAfj/O8hLK8jdRXVZo9N0eAB41+iZCRDJJAKznPgyaB7XZ7eS07067PoNISpeTWyOBz++nbPcu/H5fSO9b76xgT/5GKot2NHodQiOMA143qnMhIp0kANZyNYFT1JT/uWW17ULno0eQkJKmumthMmdVBbWVlabcu95ZQeGG5dRUlBrRvRs4BZhlROdCRDpJAKzjOOAnFG/1S0zNoMugkTRt1UFltyKM+Hw+ygp34/eFdhTgzyoK8yjavBKPq0F11+XAYGCj6o6FiHSSAFhDFrAcaKmy0zY9B9Ch/xDsDikfEOmqy/dS56w2NQav20XhxuVUFOWr7noTgSqYTtUdCxHJpBBQ+LMDXwH9VHUYG59IrxFn0ap7P2x2KQYZDRwOB3U15j4f7Q4HadmtiEtMxrm3WOW6hKYEThH8TlWHQkQDSQDC3z3AWFWdpWe3pO8po0lr1lxVl8IC7A4HDXW1+EycBtgnITWD1KwW1JSX4HW7VHXbF9gMrFbVoRCRTqYAwtsxwC8omvfPatuFI44bhd0heV80qq2uwllRbnYYf/C6XeSvmEdt5R5VXVYRSAS2q+pQiEgmT4LwFUNgSFPJRvzczj3pMfQ0efhHMUdMDLXOkFbtOyS7w0F68zbUOytw1SqZnogncIDQxyo6EyLSydMgfN2CojK/bXsPpMugE6Quf5Sz2e24XS68Ho/ZofzBZreTntMGd10N9U4lWxU7AhuQI4SFOCxJAMJTLvAFkKC3o5bd+tL56OP1RyQigx8a6mrNjuIvbDYbqVktAwcNqTlXYAiBczLqVXQmRKSSBCA8vUNgW5Mu2e270n3IqfLmL/7giHFQVx0+0wD72Gw2Upu1oKaiFHe97gQlhUDyPF1/ZEJELtkDFn6OA0br7SQztw09hp4uD3/xFza7A0dceJ7iaHc4aNtnCPHJSqpRjgPaqOhIiEglIwDh5x1AV1m+uMRk+p00mpj4eEUhiUji9XpxNyivyKeE3eEgpUkWFYV5es8QiAFSge+VBCZEBJIRgPByNDBSTwc2m40ew04nLilZUUgi0sQlJJodwiHFJ6eT27W/iq6uBLqq6EiISCQJQHi5X28H7foeQ5MWbVXEIiJUbHxc2FeAzGzRnoxc3T/HDgKFtIQQBxDe3wLRpQ8wSk8HKZlZtOs9SFE4IlLZsBFngemhFl37ExOve7TiQiBHQThCRBxJAMLHneiozGiz2eh6zElh/2YnwkNMXPgnAPaYWJp37q23m3jgGgXhCBFx5GkRHtKAc/R0kNu5F+nZSooGiigQExueOwH2l9G8LclNsvV2808gVkE4QkQUOQc2PJwPJGltHBMXT8ejhikMR0S62DDdCnggLbr2Z8uv0/XsCmgBzEGOCxbm8gMVBH4OnUA5sJHAcdabCJxlEVKSAIQHXSV/W3XrR6z+uVIRRewOBza7A7/Pa3YohxWfnEZadisqi3fq6UYWx4hwtx6Y/ftnFrDX6BvKFID52gJDtTZ2xMTS+gjdRQNFFIqNs86oeHaHHiBFrURk605guuoLoAT4kcDLoebR4cORBMB8l6Djz6FF197EJhj28yEimJWmAeKT00lrJmtcRNRwACcAHwD5wANAhuqbSAJgvtO0NrTZbLQ+4iiVsYgo4rDIQsB9mrbtYnYIQpihGfAIgUTgMQKLxpWQBMBcKcAArY0zmrchQU3ddBGFYmKstQQoOSOLuMQUs8MQwixpwH0Ejru+DB3bxveRBMBcQ9GxPal5px4KQxHRxu6wVgIAqKgOKITV5RKYGpgBtNTTkSQA5jpea0NHTCzZMiQqdLA7HAreIUIro7kkAEL87gRgBTqmkSUBMNcIrQ2btGpvuTlcEX4cdmuNAsQlpZCQmml2GEKEi2bADwTWCDQ6nZcEwDzJQD+tjZvkylHnQj97jPVOBE/RXxlQiEhiI7BL4B0aWdtHEgDzdEbH73+mzIUKBRwWXAegoDSwEJHoSuBrICHYBpIAmKeb1oZxSckkpTdRGYuIUnaH9UYAkjOysNnkq0uIAzgDmEiQIwHWS/8jh+YVfBnZrVTGoYyrrobaqnK8HjdetwuPqwG0128/IEdcPHaHg9i4RBJS0ohPTsUWJRXifD4vDc4q6mudeBrq8Hm9eN0uXX266uuor6v7459tNht2RwyOmFjsMbHEJ6WG3VoTuyOGhNQM6qoMr5QqhBWdAbwGXEfg/IGDkgTAPF21NkzKMP/t3+txU1m8m/LCHVQU76SmoizwwA8xm91OckYz0rNySc9uSdNWHYhNiIxzEeprqinbtY2qkgIqSwuoqyrXcyCOZo7YeBJS0knOzCK5STZJaU1NP3Y6PjlVEgAhDu4aAoWDHj3URdHx6hSelgCaivj3GHY6zTuGvgaA3++nvCCfoq1rKc3fjNfjDnkMh2Oz2UjPaUnzDj3I6dA97N5eD8ddX0fhljUUb1tPdVmx2eEckCM2jvSc1mTktiMpvakpMZRuX0fx1jWm3FsIi/ACJxI4XOiAJAEwTwmQpaXhgDMuJbVZc8XhHJzP56V46zryV/1GbVV5yO6rlyM2jtxOPWnbeyDxSeFdQa62ci95KxdSkrcRnzf8T+jbJzEtk6x2PUjLahHSw3oqi3eyc/VCTW2bte/C2f9+WXFEIhz5gb01dVTW6psqU8Lvx+WsxFNXQ21pIVU7NlO2YTnVu7cbeddCArvNDvg2IVMA5rADmsfxE9NCtw+6NG8TmxfPpt4Z8qOqdfO6Xexav4yCTato2a0P7fseS0xcvNlh/UVDrZOtS+ZQvG2dKcP7etVVlbNj1XwSUjLI7dqP5ExNOW2jxSelam5rtzvodMxIhdGIcFdQ4WSPs97sMA6otmQ3O+dOYfv0iezdvEp197kE1gOce6B/KSMA5mgClGlpaLPZGHHFHYrD+bt6ZyUbF/xImbHZaUjFJSbT+egR5HTobnYo+P1+dq1fxrZl83Qv5AsnGbltye3Sz/CpF3d9LRvn/aCpbXrzVtw7N19xRCKc+YFd5dWU14R+nVJjlKxcwJqPnqNo6RzVXZ8OTNn/F623BygyZAG3amkYExdP294DFYfzV6X5m1n545fUVOwx9D6h5vW4Kc3fRE1lGU1atjdtC5yrtobVM79m98aV+H3WGe4PRr2zksriHSSlNTH2mGq/nz35GzQ1tdvtDB97t+KARDizAWkJcVQ3ePB4fWaHc1DJzVvT/qTRZHbqSenaRbhrqlV1PQh4E/D8+RdlM605NI9DO2I0nx10WH6/ny2Lf2b1rG9NWdEfKiXbN7J40oc495aG/N7lRTtZNOkDyot2hvzeoeKur2X70tmU7dxs2D3sOk4ybKhxKoxEWIXNZqNdkxRiTN7BEoxWQ07ltLdn02rIqaq67Aj8c/9fDP/ficikeXzUqKFVv8/HujmT2bFmsSH9h5u6qnKWTvmU0nzjHlL7271hOSumT8RVVxOye5rF7/dTuHE5xVuUz2kCYLPZsdu1jeD4vB7c9XWHv1BEnNgYB7kZyWaHEZS41AyGPfIeR1xyi6ou72C/KoGSAJhD89iz1i+9Q/H7fKya9Q3F29Yr7zuced0uVs/6ls2LZuPzeg7fQOt9PG7Wz5vKxoU/4feF7/CjEUrzNlCwYakhfeupRRBJ6y5E42QmxZOSYNxIqlI2G32uvpd+Yx9U0VsugXLBf5AEIMr5/X7Wz5tK2c5tZodimp1rl7B40odU7SlS3nd50U4WT/qQws3Ru2d9766tsmdfhJWW6cmh3LWqW/cLbqDHBTeq6OpW/rT4XxKAKLd16RyKtq4zOwzT1VSUsXTyJ6ybMwXn3hLd/VUU7WLVT1+zfOpn1FZKxbrS7evYuzt6k0wRXuJjY0hPDK8twYfT59p/kTtA8wny+3QGBu/7B6kDEMX27NjCjtWLzA4jbPh9Poq2rqVo61qatGxHbudeZOa2IS7I1ez1zir2FuRTsGklVaWFBkdrPYUbl5GYlkliaujqWAhxMNlpiVTUWmexs81u55j7XmHylcOo17dD61JgAUgCELXqa6pYN3eq2WGErb2789i7Ow+AlMwsMpq3IjEtk/jEFGLi4vD7/XjcLhpqqqmt3EtF0U5LVUk0g9/nY+fqhXQaeBJ2Cx5DLCJLQkwMKQmxOOvDr6T5wcRnNKXv2Af49amb9XQzGrgJ8Mjfwii1aeFPeFzhWRkr3DjLS3GWh37LYCRy1Top3rqG3C59zQ5FCDKTEiyVAAB0OHkMm75+R0/VwCYEzqH5TRKAKLRnxxb27NxqSN9N05Lo0b45OZkppKckYle40sbv91NaWUNphZOdxRXsLKlQ1reVtG+eRk5mEs3SE2mSonYe0+31UVPvYdceJ5t3VVBdp361/N6dm8nMbUdCaobyvoVojPTEOHbbbPisVIbbZuOIS29h7oNX6ellBJIARB+/z8fmRQc9HEqTtjmZjBnZl7OGHsGAbm2w20OzvHZrQRmzlm7mo+lLWbA6LyT3NIPNBiP7teacYzsytFdLmmcaWGHvTzxeHwvXFTJlUT7fLthKWZWaESO/30/R5pW063+ckv6E0Mpus5EcH0O1xUYBWh17KknZLagtKdDaxfHAk5IARJni7Ruoq1bz5twsPZn7LhvJ9WcdQ1xs6MvqdmzRlI4tmnLtGYP4dW0+j7z/IzMWbQx5HEYac3xPbhzVja6tQ79wLsZhZ2ivlgzt1ZJ/XTSAVyat4rXvV1HboL9mgnNvMbWVZaYdJyzEPinxcZZLAGx2O+1OOJ91n76otYv+INsAo07+qt+U9HPa4O5s+PRuxp8/1JSH//4GHdGWKc9cwxt3nk9qkrW29xxITmYq3zx+BZ88eBnd25j/kExJjOXuMUey4IXR9Ouk5sS/0u2y/VSYLznemu/BrY45WU/zpkAzSQCiSEXRLiUH/Nx+wXF88/gVZKQkKohKratHDWTx27fQo32O2aFoNqR3e5a/dxtnHHsE2GzEJaSZHdIfWjRN5ruHR3HukI66+6ouK8JdX6sgKiG0i9dxroSZmnbrS2xSip4uukoCEEWKFFRju3X0MJ4aNwpHGB+o0allM+a/elPgAWox1505iBn/HUt25v//xY4PowQAICEuhtfGH8/pA9vp68jvp6JQjuUV5nLYbcQ6wvf77GBsjhgyOvTQ00VH6/1XC018Pi8leZt09XHKwG48Oe50RREZKzUpnq8fu5ynxo0iNsb8KYrDSUmM58P7L+TV28/725SKIzYBR0x4TWvYbPDKTSM4op2+6YmKIkkAhPliTToaXK+01p30NM+QBCBKVJUW6jriNzM1kQ/vvzCs3/z3Z7PZuP2C45j94jg6t2pmdjgHdVS31vz25s1cdGL/g14Tl6BrqM8QSfExvHXrSGJ0vD011FThbpCT+YS5HBY6F+DPEppm62meZp1vc6FLeYG+N617LhlJk7TQbD9TbdARbVn1wR08PvY0EuLCZ74vPTmB/950JvNfu5GubQ69sC4uLjVEUTVOpxbpXDKym64+avYWK4pGCG1CtXVZNZ1rAFIkAYgSFcW7Nbdt0SyNG849VmE0oRcb4+Cui0aw/L3buejE/qaOZMTHxnDjucey9uO7GH/+0KBiccTE4XCE1zTAPneO7q8rsVKxMFUIPVQWLAslR3yCnuaJkgBEiZpK7V+y5w/vE1Zvznp0btWMD++/kBXv385lpxwV0v+u9OQEbjpvCBv/dw/P33w2zZs07q0+HKcBALLSExneu6Xm9g3OKoXRCCGCFRnf6uKQPG4Xrtoaze3PHGK91fSH071tNu/eO4b/3HAGH0xbwiczlrFis/ZRkoOx220MPqIdl51yJBec0I/khDjNfcXFJ1NXU6YwOnVOGdCWaUu0TTM11EoCIIQZJAGIAvU6Kv+lJMYzpHd7hdGElyZpSdw6ehi3jh5GfnE5389bx+zlW1i0bgeFZdoeTO2aZzLwiLaMPLIzo47p8ZctfXo4YuKx2x34fF4l/al0Qv/Wmtt63S68HjeOmFiFEQkhDkcSgCjgcWk/0KVLmyxdq7ytpG1OJjeedyw3nhdY75BfXM76vGK2F+4lr3AvZZW1OOsaqKptwG6zkZIYR1pyAlkZybTLbUL73Cb07JDb6KH94NmIiUvCVV9tUP/aZWckkZkST7lT204TnyQAQoScJABRwOvWngAY9zALf21zMmmbE/oa/IcSG5cclgkABJIAzQmAV//5AkKIxomOV7so5/VqP+giKV7eysJJbGz4lV/eJzlB+/uEJABChJ4kANFAx1HXNotuj4lUdkcsDnuYJmV6flasdB67EBFCEgAhLMYRp2vvrxBCAJIACGE5MTGSAAgh9JMEQAiLiQnjdQBCCOuQBEAIi3HExuubbxdCCGQboBCWY8OGwxGL16N9e6cQZtu5ahHrfvyOmooyUps1p9uI02jd+2izw4oqkgAIYUGOmHhJAIRl/fD47cx77/m//NrMlyfQdfip/OPJd0nRd8ytCJJMAQhhQQ6H9jMFhDDTqilf/O3hv8/Gn6fy1mUn4q6rDXFU0UkSACEsyBETnkcDC3EoPq+XGc8/eMhrijetYd77L4QoougmCYAQFuRwyOydsJ7VU79gz/ZNh71u3czvQxCNkARACAuyh2s1QCEOwu/zMevVx4O6trZ8j8HRCJAEQAhLstkd2Gzy11dYx9qfvqN489qgrs3p3MPgaARIAiCEZdllGkBYhN/vZ9YrjwV9/dEXXGdgNGIfSQCEsCiZBhBWseHnKRSsWx7UtS169KPrcacaHJEASQCEsCy73WF2CEIE5efXnwz62pE3PiCnkIaIJABCWJRNEgBhAZvn/0T+sgVBXZvT+Qh6jDzD4IjEPpIACGFRNpskACL8NWbuf+SND2Czy2MpVOR3WgiLkhEAEe62LfqF7YvnBHVtVodu9DrlPIMjEn8mCYAQFmW3yzypCG+Nefs//p/3ydt/iMnvthCWJQmACF87V/7GlgUzg7q2aZuO9Bk1xuCIxP4kARDComzy11eEsZkvPxr0tSPG3St1LUwg3yBCWJVslRJhqmD9Cjb+MjWoazNatKHfWRcbHJE4EEkAhLAom0wBiDA18+UJ+P3+oK4dcf09OGLleGszSAIghFXJ81+EoZIt61j306Sgrk3NyuXIcy83OCJxMJIACCGEUGbmK4/i9/mCunb49XcTE59gcETiYCQBEEIIoURZ/hZWT/0yqGtTmuVw9D+uNjgicSiSAAghhFBi1quP4fN6g7p22NW3E5uYZHBE4lAkARBCCKFb+e58Vkz6X1DXJmU0ZeCFcuSv2SQBEEIIodvs15/A63EHde3Qq24lPjnV4IjE4UgCIIQQQpfKol0s+/rDoK5NSE1n0MXjDI5IBENKLwkhRJirKNjBvPeeZ++u7aTntKTnKefTcdBws8P6wy9vPo3H1RDUtUOuuJnEtAxD4qguLWLZtx+xa9VibHY7vU8bTc+TzzXkXpFAEgAhhAhTfp+PhZ+8xrT/3Ier1vnHry/85DW6DD2JMf/5kOQmWSZGCM49xSz+4t2gro1LSmHwpTcYEsevn77OlKfu/svv06opX9Bl2MmcO+F1Mlq0MeS+ViZTAEIIEYZKt23g9YuGM+mR8X95qO2zae4MXh09hJq9pSZE9/9+efs/uOvrgrr22MtuJDmzmfIYZr48gW8fuuHAv09zpvPcab1Z+PGrQdcniBaSAAghRBjxeT3Mfv1JXjjzSPKXzj/ktWX5W/j8TvMq6dVWlPHb/94M6tq4xGSOveJm5TFsmjuDn158+JDXNNRU893DN/HGxSMo3b5ReQxWJQmAEEKEiYJ1y3n53EFMf/ZfeBrqg2qzac50tiyYZXBkBzb33ecO+NZ9IAMvGktK02zlMUx9+p6gzx3IWzKPF87oz89vPIXP61Eei9VIAiCEECbzNNQz/dl/8fK5gyhYt7zR7VdO/syAqA6tvrqSXz95LahrY+ITGHrVrcpjKNm6nsINKxvVxtNQz7T/3Mcr5w2mYP0K5TFZiSQAQghhovxlC3jxrKOY/fqTmt9KS7asVxzV4c17/wXqqiqCuvboMdeQlt1CeQzFm9dpbrt77TJePmcgU5+5F68ruNGWSCMJgBBCmKChpppJj4zn9QuPo2Srvge4zxPa4WxXrZOFH70S1LWOmFiGXnWbIXHoXdTn83r45c2n+fzSYZSuWaQoKuuQBEAIIUJs05zpPH96HxZ89IqSlem53XsriCp4Cz56hZryPUFde+T5V5DZsq0hcTTv2lNJP+V5m/hp/FkseelfeOpqlPRpBZIACCFEiNRW7mXiXVfw7tWnUb47X0mfdoeDgReOVdJXMNx1tcx77/mgrnXExDJ87N2GxZLdsTudjjleSV9+v49NX7/N5KuOo3DJz0r6DHeSAFiMz+sJuuKWEJHK42oIeuV3uFg97Sv+e0pPln3zkbI+4xKT+cfT79PyiP7K+jyc3z57E2dZSVDX9j3zIpq0am9oPBc8+zFt+g1W1l9N0U5m3zmGX5+6GVd1cGscrEoqAVpMbVU5cz55kaS0TNKycsnMbUOTlu2JT0oxOzQhDOOqc+IsK6KmvJTayjLc9bVmhxQ0555ivnv4JlZP+0ppv+0HDOO8x96gWfsuSvs9FI+rgTnv/Deoa+0OB8OvN+7tf5+UZjmM+2wOiye+ww9P3BH0tsTD2TbtMwp+m8lR4x+nzfAzlfQZbiQBsKjaqnJqq8op2hpYBZuSmUVWuy4079iDxFRj6mwLEUr1zkoqCvOoKt2t7Es91FZP/ZJvHvwntRVlyvpMSE3ntLueYsCYa7DZbMr6Dcbiie9QVbw7qGt7nzaarPZdDY4owGa3c/QF19JpyAl8c//1bJ7/k5J+68tLmffwtbScMZEBtz1DUrNcJf2GC0kAzBGnukNneSnO8lK2L59PRk4rcrv0onmHHtjsMssjrMPn9VBekEd5wTbqDRx+9bpdhvUNUL47j6/vv57N835U2m/3Eadz9iOvkt68ldJ+g+H1uJnz9rNBXWuz2Rhx/T0GR/R3TVq15+r3pytPvHYv/JHSK4+j79gH6HT6JRDixMso8nQIvWwguJMzNKoo3sX6uVOZP/F18lf/FvQZ3UKYxev1ULZjM5sWTKFw4zJDH/4AH9/wDxpqqpX36/f7WfTZWzx/el+lD/+UZjmMfvp9Ln9zkikPf4BlX39I+e68oK7tefK55HRRs0Jfi16nns+tU1bR65TzlPXpclay6Nk7+OnWc6netU1Zv2aSBCC0mgM/A71CcTNXXQ1bl8xhw4LpobidEJrlL59D4ablQZe/1Wv7krm8f+2ZSqcWyvK38NYlI/n6geuVJhe9Tj2f26aupv85lyrrs7F8Xi+/vPVMUNfabDZDV/4HKzWrORe/NJHL3/iOtJyWyvotWbmAqdccz7r/vYTf51XWrxkkAQideOB7oHuobywnYIlwZ8aK/u2L5/C/Wy5Scu81M77h+VF92bboFwWRBWS2bMfV703j4hc/JymjqbJ+tVjx/f/Yk7c5qGu7Hz+Klj2PNDii4HU/fhS3TlnF0Rdcq2zNhKehjhVvPsrP91yM26LrU0ASgFB6CTjK7CCEEP9v/ezJ/PLm07r7+OSm0UEfiXs4NrudYy8fz61TV9F5yIlK+tTD7/M16vfo+H/+y8BotElMy+DcCa9z1btTyWzZTlm/hYtnM++hq8FiW1L3kQQgNC4ErjU7CCHE38147oHDHrt7MJ6Ger55YJyyUbbsTj0Y99kczrj/OeISk5X0qdfqaV9RvHltUNd2GXYyrXoPMDgi7ToPOZFbp6zk2MtuUrZAunDJz2z/8UslfYWaJADGSwX+Y3YQQogD83m9fPfweHzexs/nbvh5StDb4g7FERPLyBsfYPx3S5QWtdHL7/cz+7XHg77++HH3GRiNGnFJKZzxwPOM+2wO2Z16KOlzyw/qijuFkiQAxrsfUH8MlhBCoEYB1gAAIABJREFUmYL1K1jyReM35+xY8avue7fo3pd/frmAE2/+NzFx8br7U2ndT5Mo3LAqqGs7Dh5Bu6OGGByROm36Debm75dx6p1P4IjVtzO7bP0yS661kgTAWDnAzWYHIYQ4vB9ffLjR9QHcdfoqEtodDo657MaQlvJtjNmvPxH0tSNvuN/ASIzhiIml9+mjadJR30iAz+vBZ8Ht1pIAGOtaAqv/hRBhrrq0kDXTv2lUm6ZtO+m6p8/r5ct7r+Hdq04Neo99qGz8ZRq7Vi0O6to2/QbTYeBwYwNSzO/zMf+DF3nu1N6Ublihq6+krFwcYTZ6EwxJAIzjAK4xOwghRPAWfvJqo64/4qSzlSwm2zR3Bs+d1of5H74UNkPJjXn7P3H8QwZGol7JlnW8dsEwvn/0VlwKjv9tM2yUgqhCTxIA4wwFjDkEO4SSEmLNDkFYRGKcw+wQdMtbMq9Rx/RmtmzH4IvHKbm3q9bJ9xNu4bULhlGyZZ2SPrXaunA2eUvmBXVty55H0unYEwyOSA2f18Mvbz7Ni2cdxY7lC5X0GZ+WSY+LxivpK9TkLADjnKSncXysg/9eP5T4WAfbi6rIK6pi5bY9rN+xF68vdHtOczJTQ3YvYW1Z6YkhvV9crIN+nVvRp1MuHVs2o1PLpuwoqeD2lyfh0/F3ZPO8Hzl6TPCDd6fc+QSl2zYqO4Bmx/KFvHjWURx/w7847rq7cMSEPgmf+cqEoK89YfxDIT+USItdqxbz5X3XUrRxtbI+Y5NSOPbBN0nIzFLWZyhJAmAcXQnAM9cN4R/DOv/t12vq3cxZtZsffsvjiznBVebS48iu5tQdF9bTp2MW3y4wtka63W5j3NnHMOqYHgzt04GEuL9/he2trGXCB9rr8G+e37gEIC4xmSve/oGpT9/D/A9eVDKE73E1MOO5B1k99UvOe/wtWvUKXQ2xHcsXsu234Coatujel27DTzM4In3cdbXMeOEh5r//gqatngeT3q4rx9z/Gpkdj1DWZ6jJFIAxEoB+WhsP7dmCC4Yf+Izv5IRYTj26HQ9ecrTW7oOWGB/LyKP+noQIcSAn9G9t+D1iHHZeuPlsThzQ5YAPf4D7LhtJl9ba38h2LG/81j5HTCyj7ntW6d5ygMINq3jl/MF8/cD1ITsS+aeXHgn62uNvvD+s3/63L5nLi2cdxdx3/qvs4W9zxNDjwps49c2fLP3wB0kAjNIeHb+3N5/TV2Eo2o05vi8ZKaEd1hXW1bVVJsf0MP+89NgYB7eOGaa5fVXxbs1lfVXuLd/H7/MFThgc1Y8tC2Yq6fNgdq9dFvQphtmdenDECWcZGo9W9dWVfD/hFt68+HhKt29U1m9mp56c/NpU+l53P3ZFf75mkgTAGB21NmyalsCQXubXDUpOiOOhq3TNYogo9NClA7GHwRvh+cP74NC4Ot/v97N3p/apDEdMLMdddxc3fbNIaVncvTu38c4VJzPxzsuprdyrrN8/m/nSI0EfjjTyhvuVldNVacPPU3judLU7KhzxCfS97n5OeWMGTTr3VtJnOAi/P73IoHnifECXnLD4An3tjvNonZ1hdhjCYvp1yuLO0eYXtclMTaRb22zN7SuL9Jf3bd61F/+cOE9pXX+/38+ybz/muVN7sWb610r63Kdww0rWz/ohqGubtu1Er1PPV3p/vZxlJUy883Lev/YMKgt3Kus3q9dATn1rJj0uvAmb3fo7Xf5MEgBjaF5c2SorRWUcjWaz2XjmhjO46ETzv8SFNd12Xn+uOdX8udF2uZma2/q8HiUx2B0xHHv5eMZPWkr7AdqnJfZXXVrExzf+g09vuZDaijIlfc569fFGvf3bHeHzMFw+6VP+e0pPln37sbI+Y5NSOfq2Zzjxhe9Ia62v4FO4kgTAGJp/X+NizPtL1Sw9mS8mXMato9V9UYnoY7PB41cdwzPXDiEx3ryNRnEx2u+tuhhPs3adue6TWZz98CvEp6Qp63fV5Im8NmaY7gWCJVvXBz2i0KR1B/qeeaGu+6k0773n+fz2S5UlQgAtB5/I6e/PodMZlwV+oCOUJADG0LwJuay6XmUcQWnXPJMHLj+RDZ/ezdlDe4b8/iIyXX5Sd357aQxjT+9JTmZSyO+/t0pHnX4DvvRtNhuDLrqe26asouvwU5X1W7ptAws/eU1XH7NffTzopGfE9fdgd4THDvIGZxXTn3tAWX/x6U045v7XOO7xj0nKMn8tltHC408x8hRqbbi9qFJlHAeUmhTPw1efTItm6XRvm80R7Zsbfk8RnZpnJjHhisE8cvlgVm/fw5aCSkor63jgfTVV2A5l6+49mtumZRn3dyI9tzVXvvUDy7/7hB8eu42acu1x7rN53o8cd+2dmtqW7djKyskTg7o2Pbc1/c+5VNN9jJC3dIHuA5n2aTvyHI668THiM5oq6c8KJAEwxg6tDdfl78XvN3bUKSUxnvHnDzXuBkLsx2aD3h2a0btDMxrcXs0JgI3g/mKUVdWyq1R7Mp3Roo3mtsHqd9bFdB5yIpMm3MyqIB/AB1NboX1XwOzXngh6zcPwsXcr296oQl1Vue4+0nJaMvTOZ0k/coSCiKxFpgCMEXwx8f0469zsKKk+7HURPC0lIlwofnRXb9U8CEdsQiJJmc0URnNwKU2zuej5/3HZ69+Slq19yDk9R1vbioIdLP/uk6CuTc1qzlHnXaHpPkZJzdJed8Jms3H0Bddy29TVtBt6isKorEMSAGMUA5pXpKzLP3zTIBfrChF2QvGju3JLgea22R27h7y6XY+RZ3DbtDUce9lNmvbWdxmm7QH28xtP4XW7grr2uOvuIjYhvAqDte03iITU9Ea3a9KqPVe/P51zJ7yuqX2kkATAOJpPnFiTb0yRDxFhJAk8KD0jAM279lIYSfASUtM544Hnueb9GTRp3SHodinNcuh31sWNvl91aSFLv/4gqGuTM5tx9OirG30Po8XEJzTqNEa7w8HQq2/j1imr6HTMSAMjswZJAIyzUmvDYEYAhBAHt3Kr9hGA3G7mVnrrOHgEt05eyZArbznsXnub3c65j76h6S32lzefCbrk8bBr7yAuydwaJQcz4p/3kdutz2Gvy+nSk3ET53H6Pc8Qmxj6XSnhSBIA46zS2nCdjAAIoZnH62N9XrHm9sE8TIwWm5gUOFzo87nkdD5wUaWYuHj+8eS79Bh5RqP7rynfw6KJ7wR1bVJ6EwZddH2j7xEqcYnJXPXuZFr2PPKA/94RG8cJ4x9i/LeLad3b+EPUrEQSAONoTgDyiquorgtuXk4I8VebdpZS79Jeya951/CphdG6z0DGf7eEE8Y/RHxyKhB4oPU86RzGf7dE85a8OW/9J+jiQUOuuuWPe4er1Kxcxn0+l1PvfOIvOzg6HH0c479dzAk3PRhWuxfChWwDNM5awIOG32O/HzbuLOeoLjnqoxIiwq3SMfyflt2C5CbajxI2giM2jhNuepDh191F9Z4iUrNyiYmL19xfbeVefv309aCuTUhNZ/AlN2i+VyjFxMVz3HV3cdx1d1FdWojN7iClqfbzIKKBjAAYpw7YrLXxWpkGEEITPQsAc7uH70lvMfEJZLZsp+vhDzD/vRdoqDn8VmOAYy+7icQ06x0KlpqVKw//IEgCYCzD1gFIHQAhDmyVrh0A4ZsAqOCqq2HBRy8HdW18cirHXjHe4IiEmSQBMJbmBGCt7AQQ4m+CSXxXbdExAmDyDgCjbZoznbqqiqCuHXTR9SRFUVncaCQJgLF0bAXca1ixn2CP/BTCavZW1bJ7j/YSwJGeANTsLQ3qutjEJIZefZvB0QizSQJgLM0jAM46NztLg5unE0IE6Bn+j4mLp1n7LgqjCT/BJjgDx1wrc+hRQBIAY+1ER0ngtXkyDSBEY+gqAdypB46YWIXRhJ/WfQfRpu+gQ14Tm5DIsGvvCFFEwkySABhPc0ngtTtkJ4AQjaFrB0CED/9D4ACcMc9+SFpOy4P++1H3PavrYCJhHZIAGE8qAgoRIqu2SQJwOE3bdOSmbxZx9JhriE9J++PX2/QdxOVvTmLghWNNjE6EkhQCMp72nQAyBSAikFGLUL0+fSWAI30L4J+lZjXn3Eff4JxHXsNZVkxiWiYx8QlmhyVCTEYAjKd5J0B+cTU19W6VsQgRsTbuKKWuQfvfl3AqARwqNrs9UFlQHv5RSRIA460FvFoa+vx+NuwoVxyOiBg22c75Z3rm/9OyW8iqdxF1JAEwnq6SwGukIJAQQVmtY/6/ebdeCiMRwhokAQgNXQWBhBCHp2cLYDgcASxEqEkCEBqyE0AIg8kWQCEaRxKA0NA1AuD1/X2u16bjNCCpBCzMpOdn92BKyp3sKtVeArh5l+hbACiEJAChoXkEoLrOxfItJX/7dannL6zKiJ/dn5Zs0tw2Ji6erI7dFEYjhDVIAhAaOwHNY/lTFuX/7deMeIsSwqq+nbtGc9vsjt0jvgSwEAciCUDoLNPa8L3p6ygqr1UZixARY8Xm3boSgJa9jlQYjRDWIQlA6MzR2rCm3s2Fj0+TmgBC7GfB6jzO/df7+A6wTiZY7QcMUxiRENYhpYBDR3MCAIGywMNu/5L+nbLo3SGLlEQZshTRx+P18cj7P1JQWsmCtXms26699O8+HY6WBEBEJ0kAQmchgXUATfR0smxLKcu2lKqJSAiL8Xh9PPLeDGX95XbrQ0aLNsr6E8JKZAogdFzA52YHIYT4f/3PvsTsEIQwjSQAofW+2QEA+JEthEI4YuPoc8YFZochhGkkAQitRcBMs4OwIVsIhXnCpYTFkeddTlp2C7PDEMI0kgCE3r/NDkBGACKFNRO5cChhERMXz4jr7zE7DCFMJQlA6M0DPjAzABkBEGYKhxGAEePuJbNlO7PDEMJUkgCY4zZA+9FlOskIgDCT2SMAud36MHzs3eYGIcJKOCSlmuiL2y8JgDn2AmcAdWYHIkSomfllm5TehEte+QJHbJx5QYiw47PoS5GnrkZPc6ckAOZZBlwGeMwORIhQMmsEID45lcvf/I6mbTqaE4AIWwc6cdUKXDVVeppXSwJgri+B0chIgBCGSspoylXvTqFt/2PMDkWEIT2lpM1UU7hDT3NJAMLAN8BQYLvZgQgRiVr06MeNX/8qD39xQH6gweM1OwxNqnZu0dO8RBKA8LAU6AM8D9SbHIsQhgrVGoD4lDROvOVhbvhyAU1adwjNTYXleLw+fBZcBehyVlKZt0lPF5vkLIDwUQ3cCjwL3AtcDcSbGpEQFhSfksaxl93IkKtuJSld19EbIgrUu6z59l+8fD5+n+bYfcBmSQDCzy7gBgJJwOnAucBIIFPVDfwWzHaFOJSUZjl0GXoSPU86ly5DTyImPsHskIRFOF0us0PQZMfP3+lpng/USQIQvqqA//3+AWgN9ATaABlAC2C8OaEJYQ67I4bjrruThNR0EtMyadK6A8279iSlabbZoQmLcja4zQ6h0VzOSnbNn6aniwUgxwFbyc7fP/tkoTEBsJldiUUIjRyxsZx826NmhyEihMvjpd5lvZ3Ym75+B2+DruVis0AqAUYlmQIQQgioqGuwXAkgl7OSjV+9qbcbSQCEEEJEKT+U1zSYHUWjrXz7CRqqyvV0sRbIA0kAhBBCRKHKepfl9v+XrFzAlu8/1NvNR/v+jyQA1qU5dbXinJf4O6tO5dS7tX/pyup+oUpJda3ZITRKfXkp8yeM07P1DwLb/z7Z9w+SAFiX5vLBdRZc9Sr+zu/3mR2CJnUN2hPQ2IQkhZGIaFVR20CdhV6EPHU1/HzvJdSVFent6kcCW80BSQCszI3Gg4Q8Xh8uHW9hIkxYdASgVkcCEJcoCYDQx+f3U1ip6xS9kHLXVvPLfZewd+MKFd09+ed/kATA2jSPYZVWOlXGIUzg0zcUaJqyKu1nX8kIgNCrsKIGt9cao2e1pQX8dMs5FK9YoKK7ecDPf/4FSQCsrVhrw10lFSrjECbw+60zhPlnBWXa376SmzRVGImINpV1LspqrHHcSsGvPzL12pGUb16tqstH9v8FKQRkbbuBzloa7iqpZGAPxdGIkLLqCICeBCC9eWuFkYho0uD2squ82uwwDqu2tIDlr/2b/Nm6Sv3u71sC8/9/IQmAte3W2nBrQZnKOIQJvB5r1jDPK6rS3DYjVxIA0Xger4+8siq8vvBdN1O9axsbvnyTbVM/xetSWp+gFrjlQP9CEgBr05wArNpSqDIOYQKf15q7Odbka08+0yUBEI3k9fnYtqcq7Pb8+31eyreupXjZPHbOncKetYuNutW/CRz+8zeSAFjbBq0NV20rUBmHCDG/32fJKQCvz8/6/L2a26+e9iW71ixRGFF4sGEjNas5ud360HX4qcTERf5J4D6vhy3zZ5K/fCHVe3RvbzvwPXx+quvdeH3hsejP5azCU+ektmQ3Vbu24XMbPoo3g8AR8wckCYC1rdHacNOOUmrqXSQnxKmMR4SI19MAlqtiDlsKKnRtA9w872/TmBEnMT2Tk26dwKALx2KzR+Y67dXTvmLyE3dQUbDD7FAiWQFwKYHiPwcUmT9d0WMdh/jDPRSP18eC1XlqoxEh43FbYyXz/n5dZ8ybXiSpqyznu3/fyP9uuxif15o7PQ7G01DPV/+6jk9uGi0Pf2PVA6OBkkNdJAmAtdUA27Q2/mXFVoWhiFDyeKx3iAnA/LUy9RSsVZMnMuXJu8wOQ5myHVt5dfQQFk98x+xQIp0XuBCYf7gLJQGwvl+1Npy1bIvKOEQIeVzWqmMOgcKF89fK4tPGWPDRyxRuWGl2GLqt+2kSL59zNAXrlpsdSqTzA+MIbPs7LEkArG+u1oZLNuyksEz7lixhDq/Hhc9nvaHhZZtLKK3UXgUwGvm8Xku/Mfu8Xn568WE+uuE86qqk+JjBvMBY4K1gG0gCYH2/aG3o8/n5fv46lbGIEHC7rff2DzB5UZ7ZIVjSxjnTzQ5Bk+rSQt6+7ER+eukR/GGyCj+C1QLn0IiHP8gugEiwiUBJ4Bwtjb+Zs5rrzhykNiJhKHeDNc9xmPzbdrNDsKSq4v8v9+EH3GG2n/1A8hbPYeJtl+A0aHuf+Is8Agv+Gl1IQBIA6/MD04HLtDT+eflWisuryclMVRuVMITf58Pttt4w+vItpWzXUQEwmtljYoHAzp0d5dU468O4AJTfz7rPX2Hl20/gj7AdDGHqG+AqQNP8ikwBRIZJWhu6PV4+nr5MZSzCQG6305LHAH86e6PZIVhWk1btqWlws6m4Iqwf/i5nJXPuv5wVb0yQh7/x9gLXAueh8eEPkgBEiukE9n1q8u7k3/Bb8KESjRrqwv8wk/3Vuzx8O1+2nGqV3XMA20or8YTxPHr5ljVMG3sSuxZYc72ChfiBj4DuwNvorAYmCUBkcAKztTbeuKOU+VIUKOx5fW7cbu0n6ZnluwXbqKyx5sFF4SCl21FhXfNx6+RPmHHDaTgL8swOJZL5gC+AfgSmew9Z4CdYkgBEjol6Gj8/cY6qOIRBXHVVlqv+6/fD65M1V6wWQHbfwWaHcEDehnp+fepmfvvPbapPrxP/rwp4B+hJYKGf0qIQkgBEji8JVAbUZNL8tWzZvUdhOEIp/+8JgMXMWb2btXly9LRWqa06kti0udlh/E31rm1M/+epbJv2mdmhRKJaYDJwEdAcuAZYb8SNJAGIHE7ga62NfT4/L0zUXFNIGMztrsHrC98FYAfz6verzA7B0nLC8O1/59zJTBt7EhXbpIaIAj4C5dynAQ8DxwFNgFHA/wBDt/zINsDI8iGB0580eW/KIu6+5HhaZaUrDEmo0GDBt/9lm0uYvWKXni78wO3oGNkKA9nABM2N+xyjMBR9/F4Py9+YwIYv3zByJ8pWAsfXhn+xA20qgGoCL2x7gS2AafMnkgBEllkEfqA6aWlc7/Lw+Ic/8ert56mNSuji9bhwuay3+v+Jz5bo7WI68JyCUMw0Rk/j7D7hMQJQV1bEvIevo3T1b0be5lvgSnRsaxONI1MAkcUHvKyng/emLGZrgczZhpO62jLLLf77bUMRv6zaffgLD+0FFbGYbLjWhqkt25OU1UJhKNqUrFzA1OtONPLh7yEw/K1rT7toPEkAIs97BFaOauL2eHnobdnLGy68HheuemuV/vX74ZGPF+ntZiOBEQCrO05rw+zeJr/9+/2s/eQFZt52PvV7lew6O5BCYCTwbwIvMCKEJAGIPFXA+3o6+HzWCuatkrrt4aC+di9We/3/au4WFm8s1tvNi1jtP/zvsoFumhv3NW/+311bzdyHrmbl24/j9xk2HT8HOPL3/xUmkAQgMr0AaF4y7vf7ue3lSfh8Vv/+tTav10VDvbUW/9U2eJjwie63/3ICC1qt7jjAprWxWQnA3o0rmHL1CHbOnWzULfzAUwTe/AuNuok4PEkAItM2AuUiNVu2cRfvTdH9RS50qKux3lqM575aTuFe3Yv2nyWwStrqNA//p+S2ITm7pcpYgrJ50gfMuOkMaop2GnWLcuBs4B4Cc//CRJIARK7H0fkX7K5Xf2D3nkpF4YjG8LjrLDf3v37HXl6dpHvf/x4Cw/+RYLjWhtl9j1UYxuF5XQ389sytLH7uLnxuw8o2LwcGoOPwMqGWJACRayvwsZ4OKmvque0l+bsacn6oqS7BSlPgPr+f29+Yh9urex3XUwT2SVtdFtBDa+NQbv+r3rWV6eNOZuuUT428zUfAEALfSyJMSAIQ2Sags8jEVz+v4tu5Uss9lOrrK/B6rFVb/fUfVrNkk+6Ff0XAqwrCCQfD0DH/nxOiAkA7fv7u96p+hlSahUBZ2ysIHGBTa9RNhDaSAES2beisCwBww7NfU1JureFoq/L7fNRbbO5/465ynvxsqYquniByHhKa5/+Tc1qR3Ly1ylj+xudxs/Tl+5n38HW4aw37u70ZGAx8YNQNhD6SAES+RwnMq2pWXF7NlY9/ht+48p/id3W1e/AZt+1KOZfby7gXZlPv0r2eaz3wmoKQwsVwrQ2NLv9bu6eQn245h41fvWXkbSYBRwNyGEQYkwQg8lUAj+jtZPqijbz+3UIF4YiD8bjrqK+11qLLxz5dzBo1p/3dho6tq2GmCXCE1sZGHv9bvHw+08aexJ61i426hYfACv+zkap+YU8SgOjwOrBWbyd3vfoDq7fKtl0j+P0+aqqKsdLCv5nLd/L65NUquvqSwGlokeI4dHy3GjH/7/f5WPPhs8y63dCqfrsJjHw8hZV+kKOYJADRwQ1cjc5Sm3UNbv7xwIdUOA09oTIq1VaX4vUatv1KuV17nNzw0s8qDoWrA+7UH1FY0Tz/n5TVgpQW7RSGAg1V5fxy3yWseu9p/H7Dqu3+AhwFzDfqBkI9SQCix2/A23o72bJ7D1c+/rmsB1DI7aqxVMW/BreXK5/5kb3V9Sq6ewzIU9FRGNFe/19x9b+yDcuZdu1ICn6bqbTfP/ET+DMcSWAXh7AQSQCiyz0o+Ev6/fy1PPnJLAXhCL/fa7mh/3vfWcDKbbrWle6zEnhGRUdhJBPorbWxyuH/Td+8w483nUFNie5TGQ9mL3AGcD9gnZWr4g+SAESXcmC8io4eeme61AfQzU9NVQk+n3Uqor7+w2o+nrlBRVcuAvvDrTPvEZyh6PheVVEAyFNXw/xHr2fJi/fh8xi2rnIJgYN8DDswQBhPEoDo8wWgu+SXz+fn0gmfsni9YTXDI15dTTmuBusUvZu5fCcPf6TsTPgJwApVnYWR4VobJjbNIbVVB103r9q5hRk3nEb+zG909XMYHxEodJRn5E2E8SQBiE43Arv0dlLX4Ob8+z+Q8wI08LhrqatRMoweEmvzyrjmvzPxqjkhcgnwpIqOwpBp8//5M78JVPXbrmSE5kBqgEsJVPWTlcARQBKA6FROYPhV97f57j2VnHbH2+ytipQCbsbz+bw4K62zXmp3WQ2XPDmdmnolw8kNwJVE5klw6UAfrY1zNB4A5Pd6WPHmo8x/9Ho8dbpPYjyYTQSq+uk6X0SEF0kAotdM4AUVHa3dXsTZ971HXUOk1HExkN+Ps7LAMvP+eyrrOP/hyewuU/ZguQOI1MUjQwGH1sZa5v9rSnYz48ZRrPvfS1pvG4yJBLb4KSn6IMKHJADR7S4U7dtdsDqPMQ99hNsji4EPpdZZisdtjdFTZ52bCx+fxtZCZVM8n6PgbIowNlxrw4Qm2aS17tSoNsXL5zH9+pMp27Bc620PZ19VvzFExgmNYj+SAEQ3N3ARoKSW65SF67ny8c/x+gwrNmJpdbXl1NdZozpqXYOHS56crmq7H8AG4BpVnYWpYVob5jTi7d/v87LqvaeZdfs/qC8v1XrLw9lJYETjKaNuIMwXY3YAwnQ7CCzs+QEFCeFnM5fj9fn46IGLiHFIfrmPq6GauhrDvqyVqncFHv4L1ikr+1wDnA9E8pGSaUB/rY2DPQCooXIvCx77J4WLZ2u9VTBmAxcCus93FuFNvqEFwFQCpwYq8cXslVz71ER8alaMW57HVUdNZZElav3Uuzxc8tQM5q4pUNnt9Sg4iyLMDUHP/H8QOwD2rF3C1GtHGvnw9wEPAycgD/+oICMAYp9/EzjB7DwVnX00fSl+P7x9z+ioHgnwelxUV+3Gb4Gnf22Dh8uensGcVUorxz1HdKwc17z9LyGjGeltOh/ymo1fvcXy1x82srDPHuASYLpRNxDhRxIAsY+fwFRAG2CAig4/nrGUCmcdnz18KQlx0fej5vO6qa7chd8CayKqal1c9MQ0Fm1Q+uI3hcg76OdghmttmN33GLDZDvjv3LVOFv3nNvJnf6e1+2AsBf4BbDfyJiL8RO+rmTiQOgLneCt7BfxhwTpG3fU21bUNqrq0BJ/PQ3XFbnze8N/uV+5sYPSEKaof/ssJrB6Phm0hKUA/rY0Ptv2vasfmQFU/Yx/+bwLHIA//qCQJgNhfAXAugYVbSvy8fCun3/U2ZVGcqLbLAAAgAElEQVRSLCjw8N9lieN9d5ZWM+r+SSzbonSB4m4Ch8RE8qK/PzsWiNXa+EALALfP+IJpY0+iMm+jnrgOxUlgod9YIu88BhEkSQDEgSwCzkLhF8OC1XkMHvsi6/NLVHUZlnw+b+Dh7wn/79Slm0o45d7v2Lxb6dbEWuAcFI4iWcBwrQ3j05uQ0a7rH//sc7tY+tL9LHziRjz1hiXMGwlU9fvMqBsIa5AEQBzMTAL7tpWtXttWUMawG15m1tLNqroMK4GH/05LPPy/nreVs//9A6WVSosSNRB4+C9W2akFaK//33vwH/P/NUU7mXHjKDZ+/ZaywA7gUwJV/SK1GqNoBM3bVkRUWEXgje5EVR3Wuzz876flNElLZkD31qq6NZ1V3vz9fnj5u5Xc/fY8PF6lOxO8wMXA9yo7tYAkAiW1NX2XdjnrCpp270/Brz8y+64LcBbmq43u/3mA+4DbkCF/8TtJAMThLADiCFQFU8Ln9zP11w0461yMPLIztoOsgLYKr9eNs2Jn2M/5N7i93PDSz7wxWfnLnw+4nOgcUh5O4GAtTXpfcy+bvnmHxc/fg7ehXllQ+8kHTiVQ01+IP0gCIIIxC0gmsNhJmYVr81mxpYBRx3QnLtaa2wS93gaqK3aF/Wr/0so6xjw2lVkrdJ8CvT8/MA54X3XHFnEVGksA22NiqcrfxPYfv1Qc0l9MBU4Bthh5E2FNkgCIYP0IZACDVHa6aWcp385Zw5De7clpkqqya8N53LVUV+zG7wvvnW5z1xQw+tGpqhf77XMHkX3Az+HcDhy6is9B+H0+aop2Kg7nD14Cxb3GEZjGE+JvJAEQjTEDaAocrbLTPZU1fDBtCZlpSQzoZo11Aa4GJ87KAvz+8K3w5/H6eHriUm5/fS7OOuUV5PwEHn7Pqe7YYh4nkBiHk1ICizHfxxIFqIVZrD35KsxgI3BCmCEV3s4ccgRv3z2aJmlJRnSvRH1tObXOPYTzd2tBWQ3XvzCLX9cXGdG9HxhPdL/57+MkMD0WLpYQqOqXZ3IcwgIkARBa3Q08aUTHrbMz+PjBizi2V3sjutfMj5/a6mIa6qrMDuWQpi3J5+ZX51BebciiMi9wNfCBEZ1bUC2QaHYQv3sTuAlZ5S+CJFMAQqv5QDmBBUZKE8mqmno+nr6UGIeDwT3bYg+DXQI+nwdnxW7cDcoKJCrX4Pby0Ie/8eAHC6lrMGRRogu4gOhc7X8w/wTMXrxSTeAcj6eIjtLLQhHzv1mF1V1B4M1DcynUQzmqW2vevPN8endqYUT3QfF6GgJ1/X3hu9J/3poC7nhzHtsKK426hZPA0PI0o25gUb+gcReAImuA8wlU9xOiUWQEQOi1AlgInAkkqO68YE8V70xeRE2di2N6tic2JrQ/sg11lTirCvD7w/NEv3JnA/e8PZ8HP/iV8mrDDlzaDZwEzDPqBhbWA8XbYxvhIwKHdxmy0ENEPhkBEKp0BiajcUtUMNrnNuHV28/jxAFdjLrFH/x+HzXVxbjqqw2/l1aTFm7jnncWsEdtOd/9rSJwsM8OI29iYUOAuSG+ZwOBNTgvhPi+IsJIAiBUyga+JXDQiGEuPflInrnhDJqlG7P42utpwFlZgNerfOucEjtLq7nzzfnMWmHYHvJ9vgcuInpO9dPCTmAYvnuI7redwFTM0hDdT0QwmQIQKtUAnxAYBehp1E1WbS3k3cmLsNvt9O/SihiHqjOt/NTXVuCsKgzL4j6VNS7+88Uybnz5Z6OK+vzZcwRW+xs2rxAh/EAVgX33RvuBQEnfbSG4l4gCMgIgjGADJhA4fMTQn7HW2Rk8dNVJXHrykTjs2hMBn9dNTXUxblf4FU1rcHt5Z9paXvhmpVFb+/7MQ2Ar2etG3yiC2AmcnjncoP69wAMEtt2Gb/EJYTmSAAgjnQO8SwgqpfVon8Pj153GqGN6NLqtq8FJTXVx2L31+/x+vvhlM099vpRde0IyCr+bwDY/WezXeG0JFOFpprjfYuBCYLbifoWQBEAYrgPwBdA/FDc7tld7JlxzCsP6djjstV6fm9qqEtyu8Nrb7/fD9CX5PP7ZYjbsKA/VbX8ELgFKQnXDCHQkgZGAdEX9zQPGAAWK+hPiLyQBEKEQT2BOeVyobjiwR1vuvGg4Zx57BHb7fj/mfqivr6TOWRpW2/tcHh9fzd3Cq5NWsXFXyB78XgLTNRMIHOsr9OkPfAnoKWPpB/4L3ENgSkYIQ0gCIELpQuANQlg5rUvrLMaeNZjLTz2KjJREvJ4GaqqL8bgNn0sPWlF5LR/P3MCHM9ZTVB7SNQglwMXAT6G8aRTIBF4k8Hvb2O/YLcC1wM+KYxLibyQBEKHWlcBwc0iP/UuKj+X8Yd0YPaw9A7rmYHZ1Ya/Pzy+rdvHprE1MXZSH2xvyl+9VBFaUy/CycY4C7iJQJCv+MNeuJ5A0fAAYWthBiH0kARBmmE6gspwp2uakcv7Qzpx9TAe6ts4M2X39fli+tZRv5m3hm/nbKKkwdcfBW8B1ZgYQRZoCI4CBQDsCi2LrCBzbu5LAAr81yAp/EWKSAAgzmJoA/Fm7nDROHdCWE/q3ZkDXHBLiYpT2X13nYuG6In5cuoPpS/JDPcR/KJIACBHlJAEQZgibBODP4mLs9OuUzcBuzenVvilHtGtK++ZpOPZfRHgQbq+PzbsqWJtfxqpte/h1fRFr8srw+sLyxU4SACGinNrXHSEszOXx8duGIn7b8P9nq8TF2GnRNIVWWSk0S0sgLSmOhLgYfH4/DW4vlTUuistr2b3HSVF5LZ7Qz+ULIYQmkgAIcQguj4+84iryiqvMDkUIIZRSVURdCCGEEBYiCYAQQggRhSQBEEIIIaKQJADCUv5W1jeK2c2uZiSEsDRJAISlfPbvS3l87Gk0SUsyOxTTNEtP5IGLj+aRKwaZHYoQwsIkARCWkpoUz10XjWDbxPv4701n0rxJyI4VMF2rZik8euVglr16ATed3YdExUWLhBDRRb5BhCWlJMYz/vyhXD1qIB9PX8rLX81jfX5knmTbv3M2153WkzMGtyfWITm7EEINSQCEGQ53MMpBxez3AExOiGPsWYO57sxB/LRkMy9+OZfpizbiC8/qe0GLddgZNag9Y0/vSf/O2Qe8Zv/fi0aK09NYCGF9kgAIM+RqbZiSeODcwWazceKALpw4oAt5ReV8OG0JH09fyraCMs1BmqF7myZcOKIL5w3tRFZ64iGvTU7Q9ddX85+BECIySAIgQi0b6Ky1cXpKwmGvadc8kwevOJEHLj+BuSu389H0JXw/fx17Kmu03tZQLZomc/rA9ow5rjO9OzQLul1qoq6X+IEE/v579HQihLAuSQBEqF2OxkOoHHY7bZsHf3yvzWZjWN8ODOvbAa/Px69r85m8YD1f/7KaLbv3aAlBmTbZqZx81P+1d+dhVlVX3se/d6i5KIZinidBBFEEVBAZHOPYomg0xgGD0moMUVvfGLttuoPRDmrUN8YYFTVxwGg6onaSxsQIoiioGEQkogIyzzVQE1TV7T+uKJZVVNXZ595z9r6/z/P4dGc4+6w86L3r7r32Wn04e0w/jh7cFS83+vp2LTIJoS3wT8DvTRYREXvpIrGkUyeSc88bP9RuxsAeHVn19P/zJZCP1m3jtWWfsGDZp7y27BN2lKZ2TG+P4gKOG9adccO6c9zQbvTqZH57obaunr6XPM7efXVel1gJjASqjYMREetoB0DSJQd4Eo9f/gDHDu3jWzBD+nRmSJ/OXH3OWPaUbeUfa9fzwZodrFi7kxVrd/LxhhK27Kpgb23rpvvlZMXo2bGQwb3aM6xfMcP6FnN4v470KC7wLfb94rEoRw7oyJJVW70ucRjwADANsLtqUkRaTQmApENXkl/+J5osMvGoAf5E00AkAv26FtGvaxFnj+n/5b9fn0iwraSKDdvL2VFaTfW+Osoq91K9t5ZoJEJOVoy2BdnkZMXo3C6fnp0Kmy3c89u4od1NEgCAK4Bc4J+Bcl+CEhEr6AhAUmkgcDHwA6CDyULxWJTPf/9vdG5f6EtgB6oo30pNVanv66bD+59u55QfveDHUhuBu4Dnvvj/RcRx6ioifuoCfAeYA6wBVgMzMfzyBzhp1KCUfPnb7sgBnTikRzs/luoB/BzYQLI24AFgMuDL4iISPjoCEBOFwHjgpC/+GkaKdpX++ZwxqVjWCZefMoRbH1vs55JDvvjrGqAOeBf4yxd/vQnU+PkyEQmGjgCkNWLAKOAUkl/4Y4CsVL/08AHdeO/R64mkaPqdzUcAAFU1tRx1zTPsLEtLMX8lsAh4BZgPfIAKCEWspCMAaU5PkoVizwJbgbeA/yT5yz/lX/4At195Wsq+/F2QlxPnhvNGpOt1+SQTwNnA30nWCzwOXETymqeIWEKfqtJQHnA8cOoXfw0NMpgzxx7GC3dMTek7bN8BgGRPgJN/9AIfrg209XE98B7JnYH/BRYD+4IMSESapgRAAPrz1Tn+t4BQzNjt1K6Adx69nh4d26b0PS4kAAAffb6LU2+ZR/Xe0HT3rSCZBPwFeIlkcaGIhIQSgMxUTPJO/qkkt3N7BhvON0WjEebdcQWnHXtoyt/lSgIA8Pj8ldz88BtBh9GUT/hqd+BVYE+w4YhkNiUAmSEGHMlXv/InkKbze6/uue5sfjDl+LS8y6UEAOC2J97iVy9/EHQYzakD3ie5O/AyydsFrWu7KCJGMjEB6Eryy/Awkr98C4CWT5ixTz4wjuTwFysUFeRyyuhBaXtfbW0N9XXuHFXXJxL879J17Kuz6vt0G8njgr1BB+KjUpLHIJuAj0gmPOsDjUjkAJmSAAwDLgVOJ+CiNhHJaJ8AfwZ+CywJOBbJcC4nABHgDOBW4NiAYxERaegD4E6SV2w9j3QU8crVBGAE8Cvg6KADERFpxkfA1cCCoAORzOJaI6A48FOSW2v68hcRGwwB/gb8mmQfDpG0cGkHoBPJrbRJQQciIuLRMuA8ksO0RFLKlQSgK8nrRCrwExHbbSV5XXdF0IGI21xIALqQHE4yMOhARER8so3kvI1/BB2IuMv2BCCXZEcxzYoVEdd8BhwD7Ag6EHGT7UWA96MvfxFxU3/gN9j/Q01CKhZ0AAZOBn6O/uEQEXcdAmwgOWVRxFe2fnnmAKuAvgHHISKSaqXAACDQWc/iHluPAK5FX/4ikhnaAj8OOghxj407ANnA5ySr/0VEMkE1yeFl2gUQ39i4A3Ae+vIXkcySC0wNOghxi407AP8LnGK6SIcOHTj99NM5/PDD6dSpE7GYzfWQIpmjsnofZZU1QYdxUIlEgp07d7Dm00947a/z2bF9mx/LrkTNzsRHtiUAbUjeic32ukA8Huemm25ixowZ5Ofn+xeZiKRFIpFg7ZYSauvqgw6lRWpra/nd07/hgXvvorq6ynS5gcCnPoQlYt01wNOAi70+nJOTw9NPP83ll19OVlaWj2GJSLpEIhESCaiq2Rd0KC0SjUY5/IgRHDPmOF6d/2dqaox2L/4BLPUpNMlwttUAHGXy8O23386pp57qVywiEpCCPPsS+GHDj2TmHXcRiRhtvI70Kx4R2xKAI7w+eNhhh3HllVf6GYuIBCQnK04satvHF0yYdBJjx00wWcLzZ6BIQ7b9E9TT64NXXHGFaeYtIiGSkx0POgRPzrvQ8ykmGHwGijRkWwLQ2euDY8ZoZICIS+JROxP6ESNHmzzeEfs+tyWkbPsbKdfrgx07dvQzDhEJmK07ekVFbYl6v3YcA+zc+pDQsS0B2Ov1wUQi4WccIhI0O7//SSQSpqHX+hOJZDrbEgDPl2h3797tZxwiErA6S/oANFRZUUFdXZ3Xx+sxOAoVOZBtCYDnb3ElACJuqa+3c1evtLTE5PEosBb4NRqIJoZsSgCGA528PqwEQMQtdZYe65WWGH8W5QBXkmwK9Cugt+mCkplsSAD6Ar8FlmGQ8e7atcuncEQkDOrr7TwCKCst9WupbGA6sBr4JdDDr4UlM4Q5AegI3Esyy/0uhrFqB0DELXWZeQTQmGzgamAVcAvJHQKRZoUxAYgAl5KcfDUDg8E/B1ICIOKOBBbXAJgfATSlEPgpyR2BS1P1EnFH2BKAYcBC4AkMzvsbowRAxB22bv8DlJX5dgTQlF4kP0P/jAoF5SDCkgBkk8xc3wPGpeIFSgBE3GHrr3/wtQagOacCy0nWCVjaNUFSKQwJwBBgMcmzq5SN+FICIOIOW8//AUpSdwTQmDYkbwosAAam88USfkEmABHgOuBdDMf8toRuAYi4w+YEoMz/IsCWOJ7kZ+2FQbxcwimoBKAD8D/A/UBeOl6oHQARd9hcA1CaviOAhoqAZ4BfoJsCQjAJwOHAUuC0dL5UOwAi7rB5ByCFtwBa6lrgTaB/0IFIsNKdAJxP8rw/7X/jVVVVUV1dne7XikgKqAjQ2FEkf4hNCjoQCU66EoAI8J/As0BBmt75DToGEHFDraWDgBKJRFA1AI3pQPKqoHoGZKh0JAAxklWo/0bAV1F0DCDiBltrACr27KG2NlTTfLOBx4GZ6Kpgxkl1ApAH/DdwVYrf0yLaARBxg62DgNLQBMiLCPDvwKMkf7BJhkhlAtAWeAU4O4XvaBUlACJusLUGwGT7PxKPQySlP9Knkhy8Fk/lSyQ8UpUA5AMvAselaH1PlACIuKHO0iOA0hLvCUDBoQMY8sB/Ujh0kI8RfcNFJK8Kpqwpm4RHKhKAfOCPwPgUrG2UASsBEHGDrdcATY4AYm0KyB/Un8H33ka/W64hq2N7HyP7minAUygJcJ7fCUAu8AIwwed1icRjdLvkXLp++0zPaygBEHGDrUcAJj0A4m2+uEAVidDhxOMY+ujP6HTmiak6FjifZE2ACgMd5mcCEAWeBE72cU0ACgb3Z8iDt9P9svPI6tDO8zq6BSBiP1t//QOUGtQAxIvafO1fxwry6f3DKxh0963k9OhqGlpjLgFuT8XCEg5+JgB3AOf5uB5EInSefCqD75tJXr9eAMTaFHpersTg/E1EwsHWK4BgVgMQa9N4C5U2w4dw2K/voPPkUz2vfRC3kJzZIg7yq9pzGnCzT2sBkFXcnn4/upo2I4Z+7d+PF3nvI6QdABH72bwDYFIDEC9q+sdPNCebXtdeSsGQgXx+7xzqKqs8v6cRPwfWAi/5uagEz48dgBOAX/qwzpcKhw5iyK9u/8aXP0DcYAdANQAi9rM6ATDYAWjJZ1+HE8Yy5MFZ5Pbq7vk9jYiRPN5N6fUDST/TBKALyb8xfKsW7Xj6JAbdfStZ7ds2+p+bHAEoARCxn81HACUGNQCxg+wAHCinR1cOfeAntB3j65T1IuD3BNjKXfxnkgDESN4X7eZLJJEIPadfTJ8bpiUbXjThYNtgzdERgIj9tAPQvFh+LgP+43q/6wKGkWzrLo4wSQD+DZ8mSUXiMfrePJ0u55/e7H83Vpjv+dpLZWWlJgKKWM7WK4BgeAugiSLApkSiUXpdeyndL5/i+Z2N+C4hae0u5rwmAOOBf/UjgEhWFgNmXk/xyce37L8fixEryPP8Ph0DiNit1uIjAJNWwC09Amio23cn0+v7l/nZL+BuoJ9fi0lwvCQAecAj+DA0IhKPM2DmDNoeO6JVz6kQUCRz2VoDUFlR4XkSYCQeI5aX6/ndnc85hT4/vMKvJKAQNQlygpcE4D+AQ0xfHInH6H/bD2h7TOu+/EGFgCKZzNYaAJPt/1hhgfGXd8czTqDn9O8YrXGAScA1fi0mwWhtAjAauMH4rZEIfW64knZjR3p63KQXgBIAEbvZWgNgsv1vsut5oC5TTqfbpef6shbwX0AfvxaT9GtNAhADfo0PW//dLplM8SktO/NvTMOWmK2hBEDEbrbuAJh0IjW5/dRQ90vOpfjkcX4sVQDM9mMhCUZrEoDLgCNNX9jhxOPofolZBtpUS8yW0FVAEbvZWgMQRAFgoyIR+twwza+xwueTqsmvknItTQAKgJ+YviyvXy/63DDN+CxLRYAimcvWHYB0XgFsTiQriwH/cb1fI4XvJTWj5SXFWvqHdhNg1Fsylp9H/3+fQTQn22QZQAmASKay9csfwlED8LU12xXR78fXEokaf3ePAC43j0jSrSV/8p2BfzF9Ue8ZU8nt6U/TwJiKAEUykq3b/wClpd4HAfl6BHCANsOH0PXic/xY6l/xsSW8pEdLEoAZGPZ/bjduNB1OPM5kia8xKYhRAiBiL5t3AEpLvH/2+H0EcKBul0ymYMhA02X6ARf7EI6kUXMJQBGGdz3jbYuSDSh8pCMAkcxk6xVAMJwDYHDzqTmRaJQ+N15JJG58wesWfLglJunTXAJwNdDO5AU9r7qIeLsikyW+waQRkG4BiNirzuojAINbACncAQDI69uTrt8+y3SZQSRvBYglDpYAZAPXmyxecNghRvf9m2LSCEgJgIi9bD4CKDOoAUhFEWBDXS8+h5yunUyXmeFHLJIeB0sA/gno4nnlSITe113u5wCKL5m0xaysrKSmpsbniEQkHWw+AjDaAUhREeCBotlZdL/iAtNljgWO8CEcSYODJQDTTBbuMPFY8g/pa7JEkyKxGLF8TQQUyTSZOgnQz06AB9Nh0hjyB/U3XUbjgi3RVALQBzjJ66KRaJRul0z2+niL6CaASOax9RpgZUUF+/bt8/RsJGY2CbB1L4vQ43vGuwDfxfDmmKRHUwnA1IP8Z81qP/FYcnv38Pp4i2gioEjmsbUGwLgAMAVHqU0pGnk4+YP6GS0BTPEpHEmhpr7kv22yaJcpp5k83iIqBBTJPLbWABj1AEjhFcCmdL3gTNMlzvMjDkmtxhKAwcChXhcsHDbYjzOkZqkXgEjmsXUHoKzM5AZA+nfT240/2vRGwMlA+jMXaZXGEgCjw/vOk08xebzFdAQgknlsrQEwuQKY6h4AjYlEoxSfNtFkiVwg9VvBYqSxBMBzY+hYmwLajR1pEE7LmWTFSgBE7GTrDoDZJMD03ABoqPiU8aaDgszmvkvKNfzT7Qgc7XWx9uOPIZKVnnkQJudiSgBE7GPrlz+Y1QCYDD8zkd2pA21GHm6yxIlA+qoXpdUaJgDjMPgDK/Zx4E9zNBFQJLPYuv0PZpMAgygC3K/9hGNMHu8IDPUpFEmBeIN/7blvb7xNIQXDBhmG07r3eaUEQJpTVVXFkiVLWLJkCatWreKTTz5h06ZNVFRUsGfPHgCKioooKCigZ8+eDB48mEGDBjFmzBhGjhxJPN7wHy0xlak7AOlqAtSYdseO4PNolIT35Gs8sMLHkMRHviUARUcfYXpe1ComhTG6BiiNqaioYN68eTz77LMsXryY6urqg/73y8rKKCsrY/PmzSxduvTLf7+goIBJkyZx4YUXcuqpp5KTk5Pq0DOCrVcAwXASYEA1AADxdkUUDBnIng8/9rrEeOCXPoYkPjowASgARnhdqO0xR5pH0womWbESADnQ+vXruffee3nqqaeorKw0Xq+iooKXX36Zl19+mfbt2zNt2jSuueYaiouLfYg2c9m8A2ByDTBWGGxTvaKjjzBJAMb5GYv468Cf7EP55o5Ai7UZPsQ8mlZQK2AxtWPHDq677jqOPPJIHn74YV++/BvavXs3s2fPZujQocycOTMl78gUNtcAlBh85gR5BABQONToaLcH0MGnUMRnDRMAT7K7dCSrY3sfwmk5k4mAFRUVmgiYwRKJBI899hgjR47kiSee8NyjvTUqKyu55557GDVqFC+//HLK3+cim3cAjK4BBpwAFAwZSMSspuUwv2IRfx2YAHj+CV9w6EAfQmkd04mAJQZncmKvsrIyLrvsMmbMmBHITtCGDRv4zne+w1VXXUVVVVXa32+zOot3AMpNjgACaAR0oGhOtulk12E+hSI+82UHIFVjf5tj0gxIdQCZZ8WKFYwZM4YXXngh6FCYO3cuJ598Mhs3bgw6FGvYugNQWVlpNgnQ4IeOX/L69TJ5XFcBQ+rABMDzQU+qJ/81JaY6AGmhpUuXcuaZZ7J+/fqgQ/nS8uXLOeGEE/jwww+DDsUKttYAlJlMAjQ46vRTbh+jz/hD/IpD/HVgAtDN6yK5vT0/akS9AKQlFi5cyJlnnhnKXZ/Nmzdzxhln8NFHHwUdSujZugNQstv733dBn//vl9e7u8njwXxBSLP2JwCFJK8BtlokGiWnW2f/ImoF3QSQ5qxYsYKLL7441Oftu3btYvLkyaHanQgjWxMAoyuAAZ//75fTvavJ40YPS+rsTwA8/wHF2xURicV8Cqd1TCYChvHXoPhry5YtTJ482agNa7ps2rSJ888/P9SJStBsPQIoNWkC1DYcE3WzituZPN4RSM+QGGkV8wSgfZFPoXh4t0F2rFsAbquvr2f69Ols3bo16FBabOXKldx4441BhxFatnYCNJsEGI4dgGhuDrH8XM+PA8FsE8tB7U8APH+LZ7Vr61MorWdSBKgdALfdfffd/O1vfws6jFZ78sknef7554MOI3Tq6xPY+fUP5QY7UGE5AgCItzfaBTB6WFJjfwLgeXsmmpPtUyitpyJAacyaNWuYPXt20GF49qMf/ciKY4t0srkHQIlRE6BwHAEARHONPus1HSuEjBOAoM7/wWx7TAmAu2666aZmB/mE2bZt25g1a1bQYYSKrQWAYDoIKDw7AIaf9aoBCKH9CYD37CyWvgmA33i1igClgbfffpv58+f7tl4kEmHUqFHMmjWLRYsWsW7dOmpqaqiqquLTTz/ltdde45ZbbuGww/ztdvrYY4+xYcMGX9e0ma3n/2A2CtjkM85vhgmAdgBCyDgBCHQHoK2OAOTr/Nz6P+mkk3j33XdZunQpt956K8cddxy9e/cmOzub3Nxc+vfvz4QJE/jpT3/Khx9+yJtvvsm4cf4MP9u7dy/333+/L2u5oC5hcQJg8RyAAxmOe1cCEELmCUA8yCMA7QDIV1avXs0rr7xivE5RURHz5nCoBg0AABXASURBVM3jlVdeYcSIlk/IHjNmDAsXLuShhx4iO9u8NuaJJ56gvLzceB0X1NfZWwNQZlDPYfIZ5zfDz3olACFkdQ1ArI3ZRMC9e/f6HJEE6ZlnniFh+Euxf//+LF68mLPPPtvT85FIhKuuuoq//OUvdOzY0SiWqqqqUMwtCINai4sATXYATG46+U01AO7x4QgguBqASCxGLM/z3VQdAzgkkUgwd+5cozWKi4uZP3++L+f5xx9/PPPmzSMnJ8doHdP/Ta6wuQbAZBZAmIoAUQ2Ac6yuAQANBJKklStXGhXNxWIxnnvuOQYMGOBbTGPHjuXBBx80WmPx4sU6BsDeWwCVFRXWTwLcz/DHnhKAELI+AdA8AIHkwB8TU6dOZdKkST5F8/V1TzzxRM/P19bW8sYbb/gYkZ2sbQNssv1vcMSZCqoBcI8P1wADTgBUCCjAm2++6fnZvLw8Zs6c6V8wDdxxxx1EDD7IFy1a5GM0drJ1B8Bs+z885/+gGgAX+VAEGFwNAJi1ytQOgDtMxulOmTKFHj2M5p0f1OjRoxk7dqzn51etWuVjNHayNQFw5QogqA+Ai+w/AlA74IxXW1vLmjVrPD8/efJkH6Np3DnnnOP52dWrV/sYiZ2sPQIw6AIYpjkAoBoAF+3/E/X8LR70DoBqAGTz5s2eC62i0SinnHKKzxF902mnneb52c8//9z4eqPtbL0FoB2ALykBCCGr+wCAjgAEysrKPD/buXNnCgpS/0urf//+np+tq6ujqqrKx2jsYvMkQJdqAHQN0D0ZXQSoBMANe/bs8fxs9+7dfYykaXl5ebRr530iaiZfBbT1/B8wmuoYviMAFQG6xupWwKAjAEn+QvbKtFFPa+Tleb/T7fWIwwW2nv+D4STA0B0BqAbANVZ3AgSzaVk7d+70MRIJiskW/ubNm32MpGm1tbVs27bN8/Nt2oRnLny62bwDYHIEEKZJgKA+AC6yvgYgXqQagExXWOj9g3Lz5s1p+YW5ZcsWo52KdNQphFXGTgIMWwKgGgDnWH8N0CRLVgLghi5dunhutFNTU8OSJUt8juibXn/9dc/PdurUiXg8cz8/bT4CMLkGaPLjJhVUA+Ae8wTAbEa0sXibQs/tMvfs2aOJgA4oLCyka9eunp+fN2+ej9E07g9/+IPnZw855BAfI7FPrcWjgM0mAYbs2Ec1AM6xvggwEjebCFhikKFLeAwePNjzs3Pnzk1pIrhjxw7+9Kc/eX4+0xMAW3sAgEOTADHeAQj2i0IaZVwDEPQ1QNBEQIFRo0Z5fnbt2rU89NBDPkbzdbNmzTK6qnj00Uf7GI19bC0CrKysdGYSIBgXfOsIIISsrwEAs0xZA4HcMH78eKPnf/KTn7B9+3afovnKRx99ZDwSeMKECT5FYydbawCMbgAUhmsSIEAkqiJA11h/DRDUDEjgmGOOMbpnv337ds477zxfjwJ2797NOeecY7TmgAED6N27t28x2cjWHYDSEu+fLWErAATdAnCR9TUAoCMASTbZOeuss4zWeP3117niiit8abpTXl7OlClT+Pjjj43WOf/8841jsZ21CYBDPQBAfQBc5MgRgBIAgYsuush4jaeeeooTTjjBqGnP+vXrmThxIq+++qpxPBdccIHxGraztQiwzKANcNi6AAK6BeAg6xsBgdoBS9LEiRMZMGCA8TqLFi3iqKOOYs6cOa1q3lNdXc1dd93F8OHDee+994zjmDRpEgMHDjRex3b1CTtrAFxqAgTqA+AiH4YBBV8DoImAAhCLxbjhhht8WWvjxo1873vfY/jw4cyePZvVq1c3+d9dtmwZM2fOZPDgwdx0002+XS296aabfFnHZvX1CWxtBGhSAxBTDYCkQbzB/221UOwA6AhAvnDhhRfys5/9jHXr1vmy3sqVK7n55pu5+eab6dGjB71796ZLly7U19ezefNm1q1bZ3Rc0JRx48Yxbtw439e1ja3n/2B4BBDGHQDVADjHiQTApGBG1wDdkpWVxZ133ulLPUBDGzduZOPGjb6v21A8HufOO+9M+XtsYOsVQHAwAVANgHMcqQFQHwD5yhlnnMHpp58edBieTZ8+neHDhwcdRihYPQjI5AggZF0AQTUALnKjD4CKAKWB+++/32g+QFCGDBnCbbfdFnQYoWHrDQAwLAIM4y0ANQJyjht9AFQDIA107tyZRx55hFgIdqhaKj8/nyeeeMKooZFr6jL1CCCECYBqANzjTh8Aj20zy8vLNRHQUePHj2fWrFlBh9EisViMhx9+mEMPPTToUEIlYycBqgZA0sCJYUDJiYA5np/XREB3XXvttVx//fVBh9GsO++807iToYtsPgIwmwQYxgRANQCucaIGAHQMIE2bOXMmP/jBD4IOo1HRaJTZs2czffr0oEMJJVuvAVZVVXreWYxEo8QKwncMpD4A7nHiCABUCChNi0QizJo1i9tvv51IiCas5eTkMGfOHH35H4St1wBLDXYVY23CNwkQVAPgIncSAO0ASDOuu+465s2bR+fOnYMOhZ49e/LHP/6Rc889N+hQQs3WHQDnbgCgGgAXOZMAqBmQtMTEiRNZsGABkyZNCiyGCy64gLfeeovRo0cHFoMtbK0BMDn/D2MBIGBa76UagBDyoRFQOGoATJoBaQcgs/To0YN58+YxZ84cunXrlrb3Dho0iJdeeolHHnmEoqKitL3XZvbuALjVBRBUA+AiJ/oAAMSL2nh+VrcAMtOUKVNYvnw59913Hz169EjZe/r27ct9993HW2+9xYQJE1L2HhdZOwnQoAugyY+ZVFIC4B4fpgGGIwGIFaodsLReTk4OU6dO5f333+fxxx/nW9/6FvG4+WdVXl4eU6ZM4fnnn+f9999n6tSpvqybSWyeBFhmUgSoGgBJkzgQAbx9i0ciRKIhOQLQSGAxkJOTw7nnnsu5557Lzp07WbhwIQsXLuTtt99m9erV1NTUHPT5/Px8Bg8ezNixY5kwYQLHH388BQXh/CVnC5vnAJSVGRwBGPyYSSXtALgnjgM9AMAsa9YOgByouLiYyZMnM3nyZADq6upYv349GzdupKKigoqKCgDatGlDQUEBvXr1omfPnkGG7CRbrwCC6TXAsO4AqAjQNXEsnwS4n/oASKrEYjH69u1L3759gw4lo9haAAiOXgNUHwDnRHHgCiCYVc5qB0AkfGy9AgiGbYBDmgCgGgDnOJMAmMzP1g6ASPhoEFC4qAbAPUYJgGFG6CuTa4Dl5eXs27fPx2hExJTNo4BNagBMCppTSTUA7oniSA1AJB4jmpfr+Xn1AhAJl8w9AvD+YyaVtAPgHsMjgPDsAIAKAUVcYmsRoIuTAEF9AFxklgCErLGJCgFF3GHrDkCZQRvgsE4CBEz7vnjvNyMp49QOgAoBRdxhaw2A0RXAkBYAfknHAE5xpgYAdAQg4hJbdwBM5gCY/IhJB8MffSoEDBlnbgGAEgARl9haA2A0CTCkBYD7qRDQLYZHAOH68zS5P6sEQCRcbJ0EaDIIKKyTAPdTN0C3OFUDYDJEQwmASHjUJyyeBOhgE6D9tAPgFmc6AYKOAERcYev5P5gWAYZ8B0A1AE4xLAIM1w6AJgKKuMHWGwBgeg0w3DsAugXgFvUB+IISAJHwsLUAENycBLifjgDc4lQNgPoAiLihzuZBQAbXAMN/BKAEwCWG1wBVAyAi/svUHYBY6K8Bqh2wS5yqATBJAMrLy6mtrfUxGhHxKlNrABzfAVARYMg41QcgEo97ngiYSCQ0EVAkJDL3FkDIawDUB8ApTtUAgFkGrUJAkXCwNQGorq5ib02Np2cj0SixwnyfI/KXagDc4lQfADDLoFUHIBIOttYAlBrsIsYK88M7CXA/1QA4xakaADDrBaAEQCQcbK0BMLsCGO4CQFANgGuc6gMAugkg4gJbjwBM5gCEfRIg6AjANU5NAwQ1AxJxQZ2lgwBcbgIESgBc41wNgEkWrVsAIuFg6w6AUQ1AyG8AgPoAuMbBWwA6AhCxWXISoJ0JgMkkwAzYAVANQMgYFgGGL6HTQCARu9n66x+grMygCZDBOPN0UR8Atzi4A6A+ACI2s/UKIBgeARSFPwHQNEC3uFcEaHCVRkcAIsGz9QogZMI1QNUAuERFgAdQAiASPJsnARrVAOgaoKSZcwmASSGNjgBEgmf1EYDJJEArbgGoCNAlSgAOoImAIsGrt/kIwKAGIOyDgEA7AK5xrggwEo8Tzc3x9KwmAooEL1N3AOy4BqgaAJcYXgMM3w4AqB2wiM1svQZoMgmQSCT0kwAB3QJwjOEsgJAmAGoGJGItW3cASksMegC0KQj/JECMP/NVAxAyhtcAw5kAqBmQiL1srQEwuQFgQwEgqAbANc7VAIDZdRrtAIgEy9pBQCXePztsOP8HiESNdinC+Ysxgzl3CwDUDEjEZtYeATheAAjGI+B1BBAyThYBqhmQiL1sLQIsK/VeA2DPEYBuAbjEzR0Ag3+Ytm7d6mMkItIaNk8C3Llju+dnbRgEBMYD4LQDEDJu1gC0L/L87MqVK32MRERaw9Zf/wCrP17l+dl4u/DPAQBM579oByBknLwFkNO9i+dn33nnHTZs2OBjNCLSUrae/1dVVfLmogWenzf5zEonHQG4xawGIKR9AHJ7d/f8bH19PXfddZeP0YhIS9XV1QUdgidPPvYIlRUVnp/P6dHVx2hSR9cA3eJsDUC8rfcttccff5wXX3zRx4hEpCVs3AH4+3vvMOfhX3p+PhKNktvTkgRAtwCc4mQNAECbEUM9P1tfX8+0adN46qmnfIxIRJpjWwLw+muvMuPq73lvAQwUDBlIrMCCNsDoCMA1Tu4AALQfN9ro+erqaq6++mrOOuss/vSnP1FVVeVTZCLSFBuKAGtra1ny1hvceN10rr92GuXlZUbrFY0e7lNkqacjALfEcXQHoOjoI4hkZZHYt89onQULFrBgwQJisRidOnUiNzfXpwhFpKG6+gT1Ib4GuG/vXnbt3OHr2PA9y1exZe5LFBw6gMJhg0y32VNLOwBOMUoAQnkLIJGg/O8fsf3lv4KPPcXr6urYsmWLb+uJiACUvbeCsvdWABDNy6Xd2JF0/NYEo2PMVFEfALfEcagTYMmid9j46Fyq128OOhQRkVarr6pm11/fYNdf3yB/UH96TJ1C0egjgg7rS6oBcIvhEUA4EoCaTVtZ/8BvKH37/aBDERHxReXHn7H6lp/R7rhR9P7hFWS1bxt0SKoBcIz1NQClby1jzU9/QV1lddChiIj4ruSNd6hYuZp+P7428GMB7QC4xepbAFuf+yOf3naPvvxFxGn7dpey+pb/Yuf81wONQ30A3GJWAxBgJ8Atc19k4yPPBvZ+EZF0StTWsXb2QyRqa+l4+qRggohGTJ4Ox5mxfMnKHYBdf1vMxkd/F8i7RUQCk0jw+b1zKHvng0Berx0AtxgOA0p/DUDlJ2tZ+7OHIMR3hUVEUiVRX89nt/9/9m7dkfZ3qwbALVbtACTq61l3zyPGzX1ERGxWV17BursfTvsPId0CcIvZNMA0JwDb/vvPVH68Jq3vFBEJo7L3VrB7wdtpfad2ANxizQ5AXWU1m3/7h7S9T0Qk7DY++iyJNI5QVidAt0S/+MuTdPYB2PXK69RVVKbtfSIiYVezeRsli5am74Vmn/nBN46Rr4kCe70+XFeRpgl5iQTbXpifnneJiFhk+0t/Tdu7DH+EeZ+ZLCkRBTx/i9eWmo3BbKnKT9dRvX5TWt4lImKTPctXsW93aVreVWv2Hm3hhkwcKAM6eHm4ZvM2cnp09TeiRpT//SPjNbp06cq3v3s5I0cfQ/v2nv7nioj4oj6RYOeO7Sx+YyG/e/q3lJWWeF4rUV9P+bsf0OGkcT5G2LiazdtMHk9PliItFgc+A/p6ebhs6XKKRg33NaDG7Pn7SqPnJ55wMrNm30teXr5PEYmImOnVuw9HHjWKb198GTd+/yqWv/+e57X2rPg4LQlA2dLlJo/rClfIRIFPvT5c8tYyH0NpWuXqtZ6fHTxkKHfc8wt9+YtIKHXoUMx9Dz5Kly7ed1Or1qz3MaLG1e/dR9l7K0yW8PxdI6kRBTz3lKzZuIWSN71nrS21r6Tc87PXzriR7OxsH6MREfFXUdt2TL3qGs/PG27Nt8iOl/5KfbVRHV8w/YulSVFgkckCmx77XUq7UdVVVHru/JeTm8sxY4/3OSIREf+Nn3Sy52dryyt8jOSb6iqr2fzMPJMl6oE3fApHfBIFlmNQnFG1Zj1bnnnRv4gaqDP4G7tDh2LiZsMrRETSolPnzkQi3qbtJfbtS+kPsQ2/epLaEqNbXx8Au30KR3wSBeqAl0wW2fjYc5SmqB4gmpfj+dnSkt3U19f7GI2ISGqUlOwm4fFLPJqTDR6Th+Zsf/EVdvzxb6bLGG0fSGrs78w012iVRILPbv9FSuoBYoUFnv/Grqys5O/L3vU5IhER/y1etNDzs/GiQh8j+cqO/3mV9b/8rR9LmX3HSErsTwDmA1tMFqqvqubTf7+HLU/PI+Hjr+5ILEa8qI3n53/1i59rF0BEQq2mupo5v37A8/NZHdr5GE2y4n/9L55g3c8fJVFrPGvgHcC8mYv4bv80n3ogGzjRdMHyZR+ye+ESsjsVk9urm+lyyTXfX0nNpq2ent20cQOlJSWMPW48kahaUYtIuNRUV3PrzT/k/Xe99/RvN+Yo2h47wjyYRIKd81/ns5n3ml75O9ANwId+LSb+OXBvvT2wDvD+c7uBnK6daDvmKIpGDSenayeyOrYnVtD6+/ibHnuOzU+9YBTL0GHDufR70zlq9DF06FBstJaIiIlEIsH2bVt5+81FPPbIg6xb85nRen1umEbH0ye1+rnasj3s21VCzYYtlC55n9K3lrFvl/euhI34DBhEstZMQqbh4fqPgduDCERERJxzIfBs0EFI4xomANkkr2sMCiAWERFxxyJgPJC6+4lipOGh+F7g+yRrAkRERLyoAqajL/9QizXy730GFALHpTkWERFxw3XAn4MOQg6uqQv2WcBrwNj0hSIiIg6YC1wUdBDSvIN12CkmeYZzaJpiERERuy0ETgWqgw5Emtdci72+JP9Ae6U+FBERsdhyYCLq+W+N5jrjrAWORWMcRUSkaW8DJ6Avf6u0pDXeJpJ/sBrlKCIiDf0emATsDDoQaZ3GbgE0phL4DckrHeNp/uhARETcVkuyedwPgX0BxyIetDQBgGRvgNeAxSSPBdRPV0QkMy0FzgGeDzoQ8a41CcB+nwG/JlnlORLI9TUiEREJqy3AvwDXkDweFouZbuW3Ba4l2fShq3k4IiISQp8BdwNz0BU/Z/h1lh8HTgYuBk4DOvi0roiIBGMz8CLwFMmeMGrr65hUFPNFgeEkiwUPAw4BepMcN1wI5KTgnSIi0nqVQAXJ63trgY9JXvteCKwKLixJh/8DuFji50OpVUUAAAAASUVORK5CYII=;" vertex="1" parent="1">
          <mxGeometry x="40" y="445" width="60" height="60" as="geometry" />
        </mxCell>
        <mxCell id="W2dNzMSNs9tSsbuihuLR-2" value="AWS Cloud" style="points=[[0,0],[0.25,0],[0.5,0],[0.75,0],[1,0],[1,0.25],[1,0.5],[1,0.75],[1,1],[0.75,1],[0.5,1],[0.25,1],[0,1],[0,0.75],[0,0.5],[0,0.25]];outlineConnect=0;gradientColor=none;html=1;whiteSpace=wrap;fontSize=12;fontStyle=0;shape=mxgraph.aws4.group;grIcon=mxgraph.aws4.group_aws_cloud_alt;strokeColor=#FF8000;fillColor=none;verticalAlign=top;align=left;spacingLeft=30;fontColor=#232F3E;dashed=0;labelBackgroundColor=#ffffff;container=1;pointerEvents=0;collapsible=0;recursiveResize=0;" vertex="1" parent="1">
          <mxGeometry x="660" y="340" width="130" height="290" as="geometry" />
        </mxCell>
        <mxCell id="W2dNzMSNs9tSsbuihuLR-26" value="" style="outlineConnect=0;dashed=0;verticalLabelPosition=bottom;verticalAlign=top;align=center;html=1;shape=mxgraph.aws3.cloudformation;fillColor=#759C3E;gradientColor=none;" vertex="1" parent="W2dNzMSNs9tSsbuihuLR-2">
          <mxGeometry x="30" y="190" width="70" height="70" as="geometry" />
        </mxCell>
        <mxCell id="W2dNzMSNs9tSsbuihuLR-27" value="Cloud Formation" style="text;html=1;align=left;verticalAlign=middle;resizable=0;points=[];autosize=1;strokeColor=none;fillColor=none;fontSize=14;" vertex="1" parent="W2dNzMSNs9tSsbuihuLR-2">
          <mxGeometry x="13" y="260" width="130" height="30" as="geometry" />
        </mxCell>
        <mxCell id="W2dNzMSNs9tSsbuihuLR-5" value="" style="rounded=0;whiteSpace=wrap;html=1;fillColor=none;" vertex="1" parent="1">
          <mxGeometry x="170" y="360" width="482" height="240" as="geometry" />
        </mxCell>
        <mxCell id="W2dNzMSNs9tSsbuihuLR-6" value="" style="edgeStyle=orthogonalEdgeStyle;rounded=0;orthogonalLoop=1;jettySize=auto;html=1;" edge="1" parent="1" source="W2dNzMSNs9tSsbuihuLR-7" target="W2dNzMSNs9tSsbuihuLR-10">
          <mxGeometry relative="1" as="geometry" />
        </mxCell>
        <mxCell id="W2dNzMSNs9tSsbuihuLR-7" value="" style="shape=image;verticalLabelPosition=bottom;labelBackgroundColor=default;verticalAlign=top;aspect=fixed;imageAspect=0;image=data:image/png,iVBORw0KGgoAAAANSUhEUgAAAgAAAAIACAYAAAD0eNT6AAAABHNCSVQICAgIfAhkiAAAAAlwSFlzAAAN1wAADdcBQiibeAAAABl0RVh0U29mdHdhcmUAd3d3Lmlua3NjYXBlLm9yZ5vuPBoAACAASURBVHic7d15/KZj3f/x12cMw9jXicjIkn2pSCiEG5FQKUWFqESrbr+7VTd1t3An2dqUuEsJpZCQFiQk6yhZo2QXYxizfH5/HOd3fGd8l2s5z+tzHuf5fj4e12MW3+91vc3MdX4+13Ec53GYuyMi9WZmCwHLASsUj+WH/Xzo10sAk4Y9Fhnj10M/B5gJPFf8uODPR/r1dOBR4JFhj+G/fszd51Tx5yAi5TE1ACKxzGwlYA1g6rAfV2H+4r4sYDEJu+bA48zfFPwTuAe4e+hHd38oKJ+IoAZApHJmtiypsC9Y5Id+nBwULdoMFmgKhv14t7s/HhVMpA3UAIiUxMwmAesDGwEbD3tMicyVsQeBm4Y9bgamufvM0FQiDaEGQKQHZrYa8xf5jYF1gImRuVpgNnA78zcGN7n7faGpRDKkBkBkHGa2NLAVsHXx2BRYJjSULOgJ4AbgyuJxlbv/OzaSSL2pARBZgJmtTir02xSPDYAJoaGkW3OBW4EriseV7n5vbCSRelEDIK1mZhNIw/fb8HzRXzU0lFTlfopmoPjxJnefGxtJJI4aAGkdM1sV2LV47AAsFZtIgjwJXAZcBFzk7vcH5xEZKDUA0nhmtjDp0/2uwOuBDWMTSU3dAlxIagiudPdZwXlEKqUGQBqp+JS/C6ng7wgsGZtIMvMUcCmpIfilRgekidQASGOY2RbAm0if9DcKjiPNcjNpZOAcd78mOoxIGdQASNbMbBPgbcBbSTvriVTtbuBHwFnufmN0GJFeqQGQ7JjZeqSC/zbgZcFxpN3+CpwF/Mjdb4sOI9INNQCSBTN7Kc8X/Y2D44iM5Caebwbuig4jMh41AFJbxSl5+5GK/ubBcUS6cS2pGThTpx5KXakBkFoxMyOt2j8EeCOwcGwikb7MAn4GfBO41HXBlRpRAyC1YGYrAwcCB6HFfNJMdwPfAU5z9weiw4ioAZAwxTa8u5A+7e+GTtKTdpgNXEAaFfiltiOWKGoAZOCKo3SHPu2vFhxHJNJ9PD8qoCONZaDUAMjAmNlrgCOA3dHpeiLDzQV+ARzr7r+PDiPtoAZAKmVmCwF7kwr/FsFxRHJwDXAscK67z4kOI82lBkAqYWaTScP8HwFeGhxHJEd3AV8lTQ/MiA4jzaMGQEplZlOAw4BDgeWC44g0wWPAycCJ7v5gdBhpDjUAUgozWxf4KPBOYFJwHJEmmgl8H/hfd/9LdBjJnxoA6YuZbQYcBbwBsNg0Iq3gwM+Bo9z9z9FhJF9qAKQnZrYB8DnSAj8VfpHBc+Bc4LPufmt0GMmPGgDpipmtRfrEvy+6lU+kDuYCPySNCNwRHUbyoQZAOmJmqwOfBt6FduwTqaPZwOnA0e5+b3QYqT81ADKmYo/+TwIHA4sExxGR8T0HfAv4vM4ckLGoAZARmdmKwJGk2/kWC44jIt17hnT74Jfc/eHoMFI/agBkPmY2Cfgw6VP/ksFxRKR/TwGfB45395nRYaQ+1ADIPGa2J2kL0jWjs4hI6e4EjnD3n0YHkXpQAyCY2YbA8cAO0VlEpHKXAR9291uig0gs3cbVYma2vJmdBNyAir9IW+wA3GBmJ5nZ8tFhJI5GAFrIzCYC7ydt5LNscBwRifM48FngFHefHR1GBksNQMuY2U6k4f71o7OISG1MI00LXBIdRAZHDUBLmNkqwEnAntFZRKS2fgp8wN3/GR1Eqqc1AA1nySGkDl/FX0TGsicwzcwOMTOd8dFwGgFoMDNbm7Qj2LbRWUQkO78FDnb3v0UHkWpoBKCBzGyimR0J3ISKv4j0ZlvgJjM7slg4LA2jEYCGMbPNgO8Am0VnEZHG+DNwkLv/OTqIlEcjAA1hZoua2ReBa1DxF5FybQZcY2ZfNLNFo8NIOTQC0ABmti1prn/t6Cwi0nh/I60N+G10EOmPRgAyZmaLmNlxwOWo+IvIYKwNXG5mx5mZjgjPmEYAMmVm6wM/ADaJziIirXUj8HZ3nxYdRLqnEYAMmdmhwHWo+ItIrE2A64prkmRGIwAZMbOVgNOA3aKziIgs4ALgQHd/KDqIdEYjAJkws11J9/Wr+ItIHe1G2jdg1+gg0hk1ADVX3N53AnAhMCU6j4jIGKYAF5rZCbpdsP40BVBjZrYxaaHfBtFZRES6dCtpgeBN0UFkZBoBqCkzO4i0qY+Kv4jkaAPS5kEHRQeRkWkEoGbMbBLwdeDg6CwiIiX5FnC4u8+MDiLPUwNQI2a2KnAOsEV0FhGRkl0DvMnd748OIommAGrCzLYHrkfFX0SaaQvg+uJaJzWgBqAGzOwI4BJgxegsIiIVWhG4pLjmSTBNAQQysyVIG/u8JTqLiMiAnU3aOGh6dJC2UgMQxMzWAc4D1o/OIiISZBqwl7vfHh2kjTQFEMDM9gCuRcVfRNptfeDa4pooA6YGYMDM7MOkT/5LRWcREamBpYDzimujDJCmAAbEzCYAxwOHR2cREamprwMfdve50UHaQA3AAJjZZOCHgIa5RETGdj6wr7vPiA7SdGoAKmZmU4CfA5tHZxERycS1wBvc/cHoIE2mBqBCZrYe6RS/qcFRRERycw/wene/LTpIU2kRYEXMbDvgKlT8RUR6MRW4qriWSgXUAFTAzPYDLgaWic4iIpKxZYCLi2uqlEwNQMnM7NPAGcAi0VlERBpgEeCM4toqJdIagBKZ2VcB3csqIlKN4939I9EhmkINQAmKe/xPBQ6OziIi0nDfAt6nvQL6pwagT2Y2ETgdeHt0FhGRlvgB8C53nx0dJGdqAPpgZosAZwF7RWcREWmZ84C3uftz0UFypQagR2a2GOkf4M7RWUREWupi0mmCz0QHyZEagB6Y2ZKk3f22jc4iItJyvyXtGvhUdJDcqAHokpktC1wEvCo6i4iIAPBHYFd3fzw6SE7UAHTBzFYELgE2ic4iIiLzuRHYyd0fjg6SCzUAHSqK/2+B9aKziIjIiG4DtlUT0BntBNiBYtj/ElT8RUTqbD3gkuKaLeNQAzCOYsHfRWjYX0QkB5sAFxXXbhmDGoAxFLf6/Rwt+BMRycmrgJ8X13AZhRqAURSb/JyHbvUTEcnRtsB5xbVcRqAGYATF9r5noU1+RERytjNwVnFNlwWoAVhAcbDP6Wh7XxGRJtgLOL24tssw+gN5oVPRwT4iIk3ydtK1XYZRAzCMmX0VHekrItJEBxfXeCmoASiY2aeBD0fnEBGRyny4uNYL2gkQADPbDzgjOoeIiAzE/u5+ZnSIaK1vAMxsO9KRkrpVRESkHZ4Ddnb330QHidTqBsDM1gOuApaJziIiIgP1BLCVu98WHSRKaxsAM5sCXA1MDY4iIiIx7gG2dPcHo4NEaOUiQDObTNrid2pwFBERiTOVtGXw5OggEVrXABSbQfwQ2Dw6i4iIhNsc+GEbNwpq3f8wcDywR3QIERGpjT1ItaFVWtUAmNmHgcOjc4iISO0cXtSI1mjNIkAz24N0ul+rmh4REenYXGAvdz8/OsggtKIBMLN1gGuBpaKziIhIrT0JbO7ut0cHqVrjPw2b2RKkT/4q/iIiMp6lgPOK2tFojW8AgNOA9aNDiIhINtYn1Y5Ga3QDYGZHAG+JziEiItl5S1FDGquxawDMbHvgEmCh6CwiIpKlOcBO7n55dJAqNLIBMLNVgeuBFaOziIhI1h4GXu7u90cHKVvjpgDMbBJwDir+IiLSvxWBc4ra0iiNawCArwNbRIcQEZHG2IJUWxqlUQ2AmR0EHBydQ0REGufgosY0RmPWAJjZxsA1QOOGaUREpBZmAlu4+03RQcrQiBEAM1sU+AEq/mV5JjqAiJTqqegADTEJ+EFRc7LXiAYA+DKwQXSIhngKWJ705/ke4DvALcDTkaFEpCv/As4GDgM2BpYF/hmaqDk2INWc7GU/BWBmuwIXRudokP9z9/1G+g9mthSwMrBK8ePwx5qk3bOWHFBOkTaaAdwM3A48UjweJd2q9q+hh7vPWPAbzewEdBpqmV7v7hdFh+hH1g2Ama0E3ARMic7SIHu4+897+UYzM+AlpA55Q2Bb4HVAI4bLRAbMSeuaLgNuAG4E7nD3ub08mZm9BvhdefFa70FgY3d/KDpIr3JvAH4B7Bado0H+DUxx95llPaGZTQZ2BHYn/V2tUtZzizTQHFKRPhc4z93/UdYTm9kE4D70HizTBe6+e3SIXmXbAJjZocBJ0Tka5vvu/q6qnrwYIXg5sA9wANqsSQRS0f8laQOz89390apeSNMAlfiAu58cHaIXWTYAZrY+cB2wWHSWhtnd3S8YxAsVu2q9GXg/sPUgXlOkZp4Avg2c6O73DuIFNQ1QiWeAV7r7tOgg3cquATCzRUjzYptEZ2mYfwMruftzg35hM9uI1AjshxYRSvPdDpwAfM/dB3p3TTENcD9p4a6U50bS/gADv372I8fbAP8HFf8qXBT1j9fdb3b3Q0lzk+8Hbo3IIVKxS0lrYdZ195MGXfwBigWEWa9cr6lNSLUpK1k1AGa2LfCR6BwN1dPK/zK5+3R3PxXYCHgrcFtwJJF+PUsa5t/Q3Xdy9ws8fthVt01X4yNFjcpGNlMAxc5LNwFrR2dpoDnAiu7+eHSQ4YrhyrcBnwXWCY4j0o1ZpMJ/jLvXagOeYj+PR4GJ0Vka6G+kWwOfjQ7SiZxGAI5Cxb8qV9at+EMarnT3H5A2GHo3cGdsIpFxzQFOB17m7ofWrfgDuPuTwJXRORpqbVKtykIWDYCZbQZ8LDpHg4UP/4/F3ee4++nAuqTtiQeyYlqkC07aendDd3+3u98dHWgcmgaozseKmlV7tZ8CMLOJpFX/WfyBZmpdd/9rdIhOmdnCwEHAJ4FVg+OIXAB8yt1viA7SKTPbkLSlsFTjz6S7AmZHBxlLDiMAH0PFv0oP5FT8Adx9VrFYcC3gCNItjCKDdjmwlbvvnlPxB3D3W0jnCEg1shi1rnUDYGZZzadk6o/RAXrl7jPd/TjSAsFvAT3tkS7SpauBHd39de7+h+gwfcj2vZ+Jo4oaVlu1bQCKbWO/hQ6SqdrV0QH65e4PufshwCuB30fnkca6lXRY1qvd/bLoMCVQA1CtRYFvFbWslmrbAAAHk06Tk2pl3wAMcfc/u/trSXsI/D06jzTG48CHgE17PSmzptQAVG9bUi2rpVouAjSzVYBpwNLRWRpuDrB0xI5kVTOzxYCPA0cCk4PjSJ7mkkYhP+XujZsvN7NlgMeA2n5CbYh/A+vX8ZbQujYA5wF7RudogRvcvdELLM1sVeDLwL7RWQbMgRnA9GGPpxf49fTia5cY9lh8hF8vTvuKxO+AD+W2uK9bZnYb6fZaqdZP3X2v6BALql0DYGY7Ab+KztES33D390WHGAQz2xr4GvCK6Cx9+DfpIJf7gX8M+/n9wAPAUzxf2GeUteVsMYc5mecbgiVJh8msCqxW/Dj8sVQZrxvkPuDj7v6j6CCDYGbfAyo7Alzm8x/ufkl0iOFq1QAU9/zfSNr5Tap3gLt/LzrEoBSF7ADgC8CU4Dgj+QdwC3AXLyzy/3D36WN8b22Y2ZKM3BisAWwIvCgu3aieAb4CfMndZ0SHGRQzex9wSnSOlpgGbFKnvQHq1gAcTjomUwZjC3e/NjrEoBUF6ijgg8Tsh/4YqdDP96jjdsxVMLMVSAc+bTjsxw2JOwr6J8AR7t66HSaLkbEronO0yAfd/evRIYbUpgEws+VJByksG52lRVZw90ejQ0QpdkM7CXhtRS/xNKnrHyryN5MK/QMVvV62itGZ1Xm+KRhqDNYFFq7oZW8mXZB/U9Hz156ZvZg0wiSD8Tiwdl2uu3VqAE4CDo3O0SJPurvusgDMbH/S8G+/0wIPk/YhGHrc4O5z+nzOViu2fd4MeE3x2AZYvs+nfQz4NGkNTKv/forG61lgkegsLXKyu38gOgTUpAEoPondACwUnaVFbnT3TaND1IWZLQ0cTWpCO/13eC9ptfjvgd+7+18qiieFomCtz/MNwWtI6w06MQc4FfiMuz9WTcL8mNnfSNtqy2DMIe0pcUt0kLo0AJcCO0TnaJnz3H3v6BB1Y2abkhYJ7sz8G2U5cBup2P+OVPDvG3xCWZCZrU6axhlqCEa6re0i4Eh31wE4CzCzS4Ado3O0zGXuHv5nHt4AmNmewHmhIdrpOHc/IjpEXZnZasD+wHOkO1Our8u8nYzNzFYEtiStKXgR8LM2LnbtlJl9i3TMtgzWXu7+08gAoQ2AmU0i7a+9ZliI9vqAu58cHUJEYpnZJ4FjonO00J3ABu4+MypA9FkAH0bFP8rd0QFEpBbuiQ7QUmuSamCYsBGAYpjuTuLu/W27dd39r9EhRCSW9gII9RSwprs/HPHikSMAR6LiH0kL2EQEdHJmpCVJtTBEyAiAma1M+vS/2MBfXIZMbPs90CIybxO2xp12mJFnSKMAA98gLGoE4JOo+EdyFX8RKcyKDtByi5Fq4sANfASguGf3drTzVKRZ7q4/fxHBzBYlfQqVOM8B6wz6PIqIEYBPo+IfTR2/iAzR9SDeIqTaOFADHQEws7VIu6lFnMAmz9M5ACIyj5nNBSw6R8vNBtZz9zsG9YKDHgE4ChX/OlDHLyLD6ZoQbyKpRg7MwEYAzGwD4CbiNx8SeNDdXxQdQkTqwcymA4tH5xDmAhu7+62DeLFBFuPPDfj1ZHTq9kVkuOeiAwiQauTnBvlilTOzzQCdPFcfs6MDiEit6ENBfexd1MzKDeoT+VFogUmd6M0uIsPpmlAfxoDWAlTeAJjZusAbqn4d6cqk6AAiUiuanq2XNxS1s1KD+Ev/KPr0Xzcrm5n+TkQEM5sArBSdQ+ZjpNpZ7YtUeReAmU0B7kWfOOtoirs/FB1CRGIVZ7P8MzqHvMBMYHV3f7CqF6h6BOAwVPzrapXoACJSCy+ODiAjmkSqoZWprAEws8nAoVU9v/RNb3oRAX0YqLNDi1paiSpHAA4Elqvw+aU/etOLCOjDQJ0tR6qllaikATCzhYCPVPHcUhq96UUEdC2ou48UNbV0VY0A7A28tKLnlnJoBEBEQA1A3b2UijbSq6oBOKKi55Xy6E0vIqAPAzmopKaW3gCY2WuALcp+XimdGgARAV0LcrBFUVtLVcUIgD7950Fdv4iAGoBclF5bS90IyMxWA+5B20rmwIFF3V2ngIm0VHGL2dPROaQjc4Gp7n5fWU9YdqE+sILnlGoYsGl0CBEJtWF0AOnYBEq+JbC0Yl3sJ31QWc8nA7FddAARCbVddADpykFFrS1FmZ/WdwFWK/H5pHrbRwcQkVC6BuRlNVKtLUWZDcAhJT6XDMY2ZjYxOoSIDF7x3t8mOod0rbRaW0oDUJwmtVsZzyUDtQTwyugQIhLilaRrgORlt6Lm9q2sEYADAX2SzNN20QFEJMR20QGkJxMpaTFg3w2AmRla/JczzQGKtJPe+/k6qKi9fSljBGBHYI0SnkdibG1mC0eHEJHBKd7zW0fnkJ6tQaq9fSmjAdDiv7wtDmweHUJEBmpz0ntf8tV37e2rATCzlYA39htCwm0XHUBEBmq76ADStzcWNbhn/Y4A7Ado+Dh/mgsUaRe95/O3MKkG96yvswDM7Bo0fNwEM4Bl3H1WdBARqVYx//8EMDk6i/TtWnfv+fTdnkcAzOylqPg3xWTgZdEhRGQg1kbFvyk2L2pxT/qZAnhrH98r9fNgdAARGYi7gJnRIaQ0PdfifhqAt/XxvVIv17r7w9EhRKR67v4scFJ0DilNz7W4pzUAZrYeMK3XF5VamQVs5e7XRQcRkcEws2WBO4DlorNIKdZ399u6/aZeRwA0/N8cH1fxF2kXd38cOCI6h5Smp5rc6wjAX9CisSb4sburmRNpKTO7GPiP6BzSt7+6+7rdflPXDYCZbQLc0O0LSe3cBmzh7tOjg4hIDDN7CXALsGR0Funbpu5+Yzff0MsUgBb/5W868CYVf5F2c/e/A0dG55BSdF2bexkBuAsd/pO7t7r7j6NDiEi84lS5y4Fto7NIX+529672BOhqBMDMtkDFP3ffUPEXkSGePgUeRNoRVPK1RlGjO9btFMCbuvx6qZd70MpfEVmAu98JfCo6h/Rt726+uNsGYNcuv17qw4GDNO8vIqM4Abg+OoT0pasa3XEDYGarAht1HUfq4lR3/3V0CBGpJ3efA7wfmBudRXq2sZmt0ukXdzMCsEsPYaQe7gH+MzqEiNSbu18DfCM6h/Sl41rdTQPw+h6CSDwHDtTQv4h06BPAQ9EhpGcdTwN01AAU50fv2HMciXSau18eHUJE8uDuTwAfi84hPdvRzCZ28oWdjgBsjXaKytF0tLJXRLrk7mcCv4nOIT1ZBtiyky/stAHQ6v88fdHd/xUdQkSy9H7guegQ0pOO1gF02gBo/j8/fwf+NzqEiOTJ3f8CHBudQ3rS0Yf2cbcCLm7/u6+MRDJQ73D3H0SHEJF8mdliwK1oB9jcOLCyuz841hd1MgKg4f/8XAP8MDqEiOTN3Z8BDo/OIV0zYOfxvkgNQDN91Ls95UlEZATufgGgTcTyM27tHnMKwMwmAI8DS5UYSqp1mbvrlk0RKY2ZbUc6MVDy8Yi7rzjWF4w3ArAxKv65+Xx0ABFpFnf/DXBldA7pygpmtu5YXzBeA7BNiWGkeldp0x8RqcjR0QGka2PW8PEagK1LDCLV06d/EamEu18MXBudQ7oyZg3XCEBz/NndL4wOISKNdkx0AOlKbyMAZrY6sGrpcaQqX4gOICLN5u7nAzdG55COrWVmU0b7j2ONAGj4Px/3AOdGhxCRVtAoQF5GreVjNQAa/s/Hme4+NzqEiLTCOcC06BDSsVFruRqAZjgjOoCItEOxyZimHPMxai0fcSMgM1saeIzODwuSONe4+6uiQ4hIe5jZQsBfgLWis8i4ZgNLu/uMBf/DaAV+qzH+m9SLPv2LyEC5+xw0CpCLicCIHxJHK/JaAJiHWcBZ0SFEpJXOBO6NDiEdGbGmqwHI20Xu/kh0CBFpH3efBfxvdA7pSFcNwKYVBpHyaPhfRCKdCTwXHULGtdlIv/mCBsDMVgOWqTyO9OsJ4OfRIUSkvdz9MXQdysGUkTYEGmkEYOMBhJH+ne3uM6NDiEjrnR4dQDrygtquBiBfGv4XkTq4CHgoOoSMa5MFf0MNQJ7uBq6IDiEi4u6zSWsBpN40AtAQZ/pIOziJiMTQNED9vWAEYL6dAM1sEjCdtHGA1NfL3P326BAiIkPM7HpGWW0utfAcsERx+ybwwhGA9VHxr7ubVfxFpIZ+FB1AxrQIsN7w31iwAdhocFmkR1dGBxARGcGF0QFkXPNN8S/YAGj+v/7+EB1ARGRB7n4zcH90DhnTfOsA1ADk56roACIio/hldAAZk0YAMvawu98RHUJEZBQXRQeQMY08AmBmywIv2CpQakWf/kWkzi4lnVIq9TSlqPXA/CMAawSEke5o/l9Easvdn0QLletuXq1XA5AXjQCISN1pGqDeRmwApg4+h3RhFnBddAgRkXFoIWC9TR36iUYA8vFnd38mOoSIyDhuAZ6ODiGj0ghAhjT/LyK15+5zgRujc8iopg79RCMA+dD8v4jk4k/RAWRUGgHIkBoAEcnF9dEBZFRTh34yAcDMVgImR6WRcd3n7tpiU0RyoQagviYXNX/eCICG/+tN8/8ikpNpwLPRIWRUa8DzDcDUuBzSgb9EBxAR6ZS7zwZujs4ho5oKGgHIxQPRAUREuqRpgPrSCEBG/hkdQESkS7oToL6mwvMNwCpxOaQDagBEJDc6ubS+VoHnG4AVAoPI+DQFICK50QeX+loB1ADkYC7wYHQIEZEuqQGor/kagOUDg8jYHi5W1IqIZMPdn0JnAtTV8gATzGwhYNngMDI6ddEikitdv+ppWTNbaAKwHGDRaWRUmv8XkVypAagnA5abgOb/605vIBHJla5f9bWCGoD60wiAiORK16/6WmECWgBYd+qgRSRXun7V1/IaAag/ddAikis1APWlKYAM6A0kIrmaER1ARqUGIANqAEQkVx4dQEalNQAZ0JnaIiJStuUnAEtEp5AxLRIdQESkRxoBqK8lJgCTolPImPT3IyK5UgNQX5PUANSfRgBEJFdqAOpLDUAG1ACISK7UANTXpAmowNSdGjQRESnbIhoBqD81aCKSK40A1JemADKgBkBEcqUGoL7UAGRAfz8ikquFogPIqLQGIAP6+xGRXL0oOoCMSmsAMqAGQERytUp0ABmVpgAyoL8fEcmVGoD60hRABvT3IyK5UgNQX5oCyID+fkQkVy+ODiCjmjQBmBudQsakEQARyZVGAOpr7gTg6egUMqYVowOIiHTLzBYCVorOIaN6Wg1A/b0sOoCISA+moH0A6kwNQAbUAIhIjjT8X29qADKwjplZdAgRkS5pAWC9PT0BmB6dQsY0GVgtOoSISJfUANTbdI0A5EHTACKSm42jA8iYNAWQiXWjA4iIdGmL6AAyJjUAmdAIgIhkw8wWBTaKziFjUgOQCTUAIpKTzYCJ0SFkTGoAMqEpABHJiYb/608NQCZebGaLR4cQEemQGoD6UwOQCQPWiQ4hItKhzaMDyLjUAGRE0wAiUntmtiywdnQOGZcagIxoIaCI5ECf/vOgnQAzohEAEcmB5v/zoJ0AM/Kq6AAiIh3QCEAeNAWQkalmtkZ0CBGRcejDSh7UAGRmh+gAIiKjMbPNgSnROaQjagAy87roACIiY9g7OoB0TA1AZtQAiEidvSk6gHRMDUBmppjZBtEhREQWZGYbovv/c/L0BOApYG50EumY1gGISB1p+D8fc4GnJrj7bOD+6DTSsddHBxARGYGG//Nxv7vPnlD84q7QKNKNHcxs+egQIiJDzGxNYOPoHNKxuwCGGoC7A4NIdyYCe0WHEBEZRsP/ebkbnm8ANAKQl32iA4iIDKPh/7xoBCBj25vZCtEhRETM7MVo///czDcCoAYgLxPRkJuI1MPegEWH93UhIwAAH+BJREFUkK5oCiBzmgYQkTrQh5H83AVg7g6Amc0AFotMJF2ZA6zp7vdGBxGRdjKz1YE7gYWis0jHnnH3yfD8CABoGiA3CwGHR4cQkVY7HBX/3Myr9WoA8vYeM1siOoSItE9x7XlPdA7p2ogNgNYB5Gdp4MDoECLSSgeSrkGSl3m1XiMA+fuQmU0Y/8tERMpRXHM+FJ1DeqIRgAZ5KbBHdAgRaZU9SNceyY9GABrmo9EBRKRVdM3J17xaP/w2wCWBJ6MSSd9e6e5/ig4hIs1mZq8ArovOIT1byt2fgmEjAMVvPBIWSfr1kegAItIKutbk65Gh4g/zTwGApgFyto+ZrRIdQkSaq7jGaBfSfM1X4xdsALQQMF8LA4dFhxCRRjuMdK2RPM1X4zUC0CyHm9nK0SFEpHmKa4t2H82bRgAabAngK9EhRKSRvkK6xki+NALQcO8ws22iQ4hIcxTXlHdE55C+jTkCcPsAg0h1vq7dAUWkDMW15OvROaQU89X4+YqEu/8d+NdA40gVNgXeGx1CRBrhvaRriuTtX0WNn2ekT4l/HFAYqdYxZrZ8dAgRyVdxDTkmOoeU4gW1XQ1Acy2H3rgi0p9jSNcSyV9HDcDVAwgig3GImW0WHUJE8lNcOw6JziGleUFtn3cWwLzfSGcCPMHIzYHk5ypgG1/wL1pEZBRmZsAVwFbRWaQUc4Flhm8DDCMU+eILpg0qlVRuK2C/6BAikpX9UPFvkmkLFn8Y/VO+pgGa5UvFyI6IyJiKa8WXonNIqUas6aM1AFoI2CwrA6dEhxCRLJxCumZIc4xY09UAtMc7zEz7eIvIqIprhHb8a54Ra/oLFgHCvJ2fngA0bNwss4Dt3f3K6CAiUi9mtjVwOTrtr2meIi0AnLvgfxhxBKD4wuuqTiUDtzBwtpm9KDqIiNRHcU04GxX/JrpupOIPY9/qp2mAZloZ+LGZTYwOIiLximvBj9G8f1ONWsvHagB0J0BzvQY4NjqEiNTCsaRrgjTTqLV8xDUAMG9I6IGqEkktvN3dfxgdQkRimNm+wA+ic0ilVnb3EQ/5G7UBADCze4DVKwol8Z4GtnT3W6KDiMhgmdmGpE+Hi0dnkcrc6+5TR/uP4233q3UAzbY4cK6ZLR0dREQGp3jPn4uKf9ONWcPVAMjawPeLvb9FpOGK9/r3Se99aba+GgAtBGyHPYBPRIcQkYH4BOk9L803Zg0fbw3AosCT6N7QNpgLvMvdz4wOIiLVMLP9ge+h017bYBawlLs/O9oXjPmPoPjGm8pOJbU0Afiemb05OoiIlM/M3gJ8FxX/trhprOIPnf1D0DRAeywE/MDMdosOIiLlMbM9gP8jvcelHcat3Z00AJeUEETysTDwEzPbITqIiPTPzHYm7fSnqdx2Gbd2j7kGAMDMJgOPAIuVFEry8DSwi7tfER1ERHpjZtsBF6Lrd9s8A6zg7jPG+qJxRwCKJ7i0rFSSjcWBC8xsm+ggItI9M3sd8AtU/Nvo0vGKP3S+GOT8PsNInpYCLjGzvaKDiEjnzGwf4CK00U9bdVSzx50CADCzKaRzAbRZTDvNBQ5z91Oig4jI2MzscOB4tNq/rZy0//+D431hR/9AiifSroDtNQE42cyOjg4iIqMzsy8AJ6Di32Z/7KT4Q3f/SDQNIJ8ys2+bmW4lEqkRM5toZqcB/xWdRcJ1XKs7mgIAMLP1gVt7TSSNcgHpKOEno4OItJ2ZLUU60lf7dwjABu4+rZMv7LgBADCzO4A1e00ljXI78GZ3vzk6iEhbmdlGwE+AdaKzSC3c6e5rdfrF3c4TaRpAhqwDXF3sLS4iA1a8965GxV+e11WN7rYB+FmXXy/NNpl0lPApZrZIdBiRNjCzRczsFNKRvpOj80itdFWju50CWAh4CFiuy1DSfNcCb3H3e6ODiDSVma0OnA1sHp1FaucxYCV3n9PpN3Q1AlA88YXdppJW2By4vjh0RERKVry3rkfFX0Z2YTfFH3q7V1TTADKa5YCfmdmZZrZ8dBiRJjCz5c3sTNK1V6OvMpqua3NXUwAAZrYk6XAgzfnKWB4EPuDu50QHEcmVmb0JOAmYEp1Fau050uE/T3XzTV2PABQvcHm33yetM4V0rPCPzWyl6DAiOTGzlczsx6Rb/FT8ZTyXd1v8offtIjUNIJ16C3Crmb0tOohIDor3yq2k945IJ3qqyV1PAQCY2arAfb28oLTaBcDH3P2v0UFE6sbMXgYch3b0k+6t5u73d/tNPY0AFC90fS/fK622G3CLmZ1oZitEhxGpAzNbwcxOBG5BxV+6d30vxR/6OzFK0wDSi4nAB4A7zOzjZjYpOpBIBDObZGYfB+4gvScmBkeSPPVci/tpALQtsPRjaeDLwG1m9tboMCKDVPybv430Hlg6OI7kreda3NMagHnfbHYTsFHPTyDyvKuBI939d9FBRKpiZq8FvgRsGZ1FGuFmd9+412/uZwQA4Jt9fr/IkC2B35rZlWa2u5lZdCCRMliyu5ldCfwWFX8pT181uN8RgGWAfwKL9RNCZAQ3kz4pndXt9pYidVCcnfI24Eg0UirlewZYxd2f6PUJ+hoBKF74J/08h8goNgLOBP5mZoea2aLRgUQ6YWaLmtmhwN9I/4ZV/KUKP+mn+EOfIwAAZrYN8Pu+nkQOA04lNWQLLfAY+r3VgJcXj82AjWnXyMuDwNeAb7r7o9FhRBZUnH9xCPAhtHufVO817n5FP0/QdwMAYGbTgPX6fqL2OtrdP9PNNxTDi+uRmoGXAzvQjk8azwE/Bb4DXOruc4PzSIuZ2QRgR+AgYE90RooMxm3uvn6/T9LvIsAh3y7pedqq673y3X2Ou9/i7me4+0eKlaCbA6cAfQ0L1dwiwD7AxcDdZnZUcUa6yMCY2epmdhRwN+nf4j6o+MvglFJzyxoBWB74B6BNXXrzU3ffq6wnK+bL3wQcCGwPNH1F/VzgMtKb4mfuPjM4jzRQsWnVG4H3kEbcyvoAJdKNmcCLy5gKLaUBADCzH5JWvEr3/uDuW1XxxGa2BvBu0k5jy1fxGjXzKHAWcB7wW3efHZxHMmZmE4Ftgb1I17c2vIek3s5y933LeKIyG4DtgV+X8mTtc5e7r1nlCxS3bH6GtOBw4Spfq0aeIB1A9DPgInefHpxHMmBmSwC7kj7t7wYsE5tIZD6vc/fLy3iiMhsAA24H1irlCdtlursvOYgXMrO1gWOBPQbxejUykzRN8DPgfHf/V3AeqREzexHpPfFG0vC+pjOlju4A1vGSCndpDQCAmR0JfLG0J2yXxd19xqBezMx2AP6XdDth2zjwR1IzcDnwJ00VtEsxtP8K0hqZNwKvovlrZSR//8/dv1TWk5XdAEwB7qM9Q8xleqm73z3IFyxuJTwIOAZYcZCvXTNPA1eRtmn9HXCNFhI2S7GAbwvgtaQ5/a2AxUNDiXRnFrCauz9Y1hOW2gAAmNlPSCvQpTuvdverI17YzFYGfgS8JuL1a+hZ0uFEvyM1BVcPcnRG+mdmk0l77m9LKvpbAtpNUnJ2jru/ucwnrKIB2Bn4ZalP2g5vdPewI5aLIdH/AY6IylBjs4DrgOuBm4rHLVpUWA/For0NSdNZG5M2xnolGomUZtnF3S8u8wmraAAmAHcCU0t94uY7xN2/FR3CzPYEvofOKB+PA3fxfENwE+kAozu1O2E1imvLmqQdLzce9ngpmr+XZrsHWLPsa8vEMp8MwN3nmtl3gKPLfu6Gq8Xe4e7+UzN7BemQp02j89SYkYrRmqR7xIfMMLNbgBPc/f9CkjWMmb0D+CDpU/7k4DgiEb5TxQeLqnayOg3QEa7d6Xo74Kq4+53Aq9EWz72YTDq4qdShupa7mPRnquIvbTSHVFNLV0kD4O7/JG3AIp2rxQjAEHd/1t0PJp1lLp1z4J3u/kh0kKYo/izfSfqzFWmbC4qaWroq97IOn8/OTK0agCHu/mXgY9E5MnKsu18aHaJpij/Tr0TnEAlQWS0tfRHgvCdOC3ZuA9ap5AWa5y/uXtsjlc3sQ8Dx0Tlq7jpgK3efFR2kicxsYeBK0qmXIm1wO7BeVQuLKxsBKAJ/vqrnb6DarAEYibt/jXSOgIZhRzYdeLuKf3WKP9t9gaeis4gMyOervKuoshEAmHdv+V9IK6VlfIvUvYCY2XuBU9BtVwt6t7ufHh2iDcxsf+D70TlEKnYnsG6V25RXep51EfwLVb5Gw9R6FADA3b8BHIJGAoY7S8V/cNz9DEC3WErTfaHqM0oqHQGAefN2t6ONgTrxCne/PjpEJ8zsw8BXo3PUwD+Ajdz98eggbWJmSwI3kDYBEmmae0in/lU6IlzpCADMm7fTCYGdqf0IwBB3P56K7k3NiAMHqPgPnrs/Bbwd0CmO0kRfHMR0cOUNQOG7pFMCZWy1vBVwDO8nnaLXVie6+yXRIdrK3f8IfC46h0jJ7iPVzMoNpAFw9+eA0s4wbrCsGoDi73Vv2tnc/RVtklQH/wNcER1CpERfKq6tlRvUCACkbWUr2c2oQbJqAACKs6nfCLTpuNzZwP7u/kx0kLZz9znAfsC/o7OIlOCfDHAL9oE1AO4+E/jyoF4vU9msARjO3f8MHBCdY4COcfdro0NI4u73AodG5xApwZeLWjkQld8FMN+LmS0G3E2Gn3QH5BJ3/4/oEL0ys6OBT0XnqNi1pN3+tPisZszsfOAN0TlEevQgsMYgRxYHOQVA8T+m/bxHl3tj9FngD9EhKjQXeI+Kf219ENC0jOTqK4OeVhxoA1A4BXg44HVzkHUDUGxZeQDwbHSWinzf3W+KDiEjc/d7gKOjc4j04GFSbRyogTcA7j4DOG7Qr5uJFcxsOTNbKDpIr9z9r8BnonNU4Bng09EhZFzHkbYfF8nJcUVtHKiBrgGY96JmS5B2Olp+4C+ejxnAk8A04ELgQne/LTZSZ4oG5krgVdFZSvRFd/+v6BAyPjN7HXBZdA6RDj0KTHX36YN+4ZAGAMDMPgkcE/Li+bqHNEx0YkS32A0zWw/4MzApOksJngRe4u661SwTZnYFsHV0DpEOfMrdQ07OjVgDMOTrwBOBr5+jqaQNle4ysw+Z2aLBeUZVjFYcFZ2jJN9T8c+ObjmWHDxBqoUhwhoAd38SOD7q9TM3hfRnd7uZ7RAdZgxfAa6LDtEnB06KDiFd+zlaCyD1d3xRC0NEjgAAfI00vCq9WQ24xMy+bGaLRIdZULFL27uBgW1sUYFfufvt0SGkO57mNo+NziEyhidJNTBMaAPg7k+gUYB+GfBx4GozWys6zILc/VbgE9E5+nBidADp2ZnAA9EhREZxfFEDw4QtApwXwGxx0lDdqqFBmuEBYPviVrzaMDMDfg1sFxylWw8Aqxb7G0iGzOyL6NAmqZ/7gPXc/enIENFTABR/AB+LztEQKwO/NrO1o4MMVwzHvov8Dmy5UMU/e+dHBxAZwceiiz/UoAEAcPcfkz4hSv9WAS6v23SAu/+dtFVrTi6IDiB9uxrtPCr1cpm7nx0dAmrSABQOJx2zKv17MakJWDM6yHDu/n3gnOgcHXoOuDQ6hPSnGMH5RXQOkcIsUq2rhdo0AO4+DTghOkeDrEpqAtaIDrKAQ0i7G9bd79z9qegQUoqfRwcQKXytTju6hi8CHM7MlgL+CrwoOkuD/B3YtjgopRbM7EXA74BarVVYwEfcXXeoNECx0PgRoLYbZ0krPAC8rE4fLGozAgDzNgf6z+gcDfMS4NKiuaoFd/8X8Drg7ugsY7gqOoCUo1hs9fvoHNJ6R9Sp+EPNGoDCmaSDZKQ8axK43eRI3P1+UhNwX3SWEcwFbokOIaW6MTqAtNrv3P0H0SEWVLsGoLhl7DBgTnSWhnmnme0THWK4YlpiB+q3WcsddT9sSbp2a3QAaa05pJpWO7VrAADc/QbgG9E5GuhUM6vVhkvu/jfgFcAvo7MMc1N0ACmdGgCJcpK73xwdYiS1bAAKnyIt3JHyLAucXuzMVxvu/oC77wocCtThk7cagOaZRjrYSWSQHgI+Ex1iNLVtANz9cfLeQ76uXgd8NDrESNz9FGBT4I/BUdQANEyxEPDe6BzSOkfW+Sjx2jYAhe+Q/3GydfQFM9skOsRIiimBrYGPAHcN+OVnAhcT34BINTQNIIP0B+D06BBjqXUDUOzidRgauivbIsD/mdmk6CAjcfc5xT34awO7kbbkrWpP/oeA7wJ7Ayu4+y7FbYrSPGoAZFDmAod5nTbaGUGtGwAAd/8j6QIt5doA+GR0iLG4+1x3v9DddwfWAr4M3EzaTrNXDwC/Ao4BtgRWdvcD3f08d5/ed2ips79HB5DW+Ka7Xx8dYjy12glwNGa2InA7sEx0loaZBbyiritUR2NmiwDrAZsUj42AJUi328whdd9DP7+X1DTcDNzi7o9GZJZ4ZvZOaj4kK43wKLCOuz8WHWQ8E6MDdMLdHzazz6CzAsq2MPBtM3t1TsfeuvtzpI1dtLmLdEMjPDIIn8ih+EMGUwDDnIxWZ1dhC+BD0SFEBkANgFTtOuDb0SE6lU0D4O5zgPeiHQKrcHQNTw0UKZsaAKnSLOC9OY2mZtMAALj71aTFW1KuxYHvm1kWU0IiPVIDIFX6TA4L/4bLqgEoHA1cHR2igbYBvhIdQqRCtTqJTRrld6S7lLKSxV0ACzKzNYEbSCu/pVz7uPvZ0SFEylbcTfRQdA5pnH8Dm7h7djtN5jgCgLvfiRauVeU0M1s3OoRIBTQFIFX4QI7FHzIdARhiZueQdnCTct0GbKGNcaRpzCzfC57U0Vnuvm90iF7l3gAsR9rgZZXoLA30C2Avd58dHUSkLGoApET3ARu7+xPRQXqV5RTAkGKzhXejswKqsDtpOqBWRweLiNTAXOBdORd/yLwBAHD3S4Djo3M01P7AV6NDiIjUzHHufnl0iH5lPQUwpDjV7lrSnvBSvs+4+9HRIUT6pSkAKcENwKuKLcmz1ogGAMDMNiI1AbU84rYBPujuX48OIdIPNQDSp2dJB6hNiw5ShuynAIYUJ9r9v+gcDXaCmX02OoSISKD/bErxhwaNAAAUC9YuBnaKztJgpwCH5bTftcgQjQBIHy4GdvUGFc1GNQAAZrYK6dTA5aOzNNhPgP3cfWZ0EJFuqAGQHj1CuuXvgeggZWrMFMAQd/8ncEh0joZ7M3BRsQ+DiEjTHdy04g8NbAAA3P1c4LToHA23PXCjmb0mOoiISIW+4+4/jQ5RhcZNAQwxsyVIt2usGZ2l4eYAnwM+r3UBUneaApAu3QFs1tRt0RvbAACY2auAKwCdc1+9y0nrAv4ZHURkNGoApAuzgW3c/Y/RQarSyCmAIcVfnE4NHIztgZvN7GBtHywiDfChJhd/aPgIwBAzOwk4NDpHi1wDHOruf4oOIjKcRgCkQye7+weiQ1StLQ3AROAiYMfoLC0yFzgV+JS7Px4dRgTUAEhHLiXd79/4k1Bb0QAAmNkywB+BdaKztMyjwInAie7+SHQYaTc1ADKO20n7/Gd9yl+nWtMAAJjZOsDVwLLRWVpoBvBd0ilad0eHkXZSAyBjeBzY0t1vjw4yKK1qAADMbAfgl+jOgChzSDsJfhP4jW4dlEFSAyCjmA3s4u6XRQcZpNY1AABmdihwUnQO4QHgR8AP3P3a6DDSfGoAZBQfcPeTo0MMWisbAAAzOxFo/CrPjNxBGhn4PXC1uz8WnEcaSA2AjOAkdz8sOkSENjcAujOgvhz4K3DVsMdfqjiFy8xWBdYferi7zpFoMDUAsoDWrPgfSWsbANCdAZl5nPR3dTfwEPDggg93fwrAzBYGlhzhsRQwlWEFv/j9edxdmxg1mBoAGaZVK/5H0uoGAMDM1iYVFt0ZkL9nAQMm9foEagCaTQ2AFB4nFf+/RQeJ1OitgDtR/AN4C2kVqORtUfoo/iLSCrOBt7S9+IMaAACKWz8+GJ1DREQq98G23e43GjUABXc/Bd0aKCLSZCcV13pBawDmU9wZcCGwU3QWiaE1AM2mNQCtdgnw+rau+B+JGoAFFHcGXA28LDqLDJ4agGZTA9BafyVt89vaFf8j0RTAAop/IG8g3VomIiJ5exB4g4r/C6kBGEGxOnQH4OHoLCIi0rOHgR204n9kagBG4e63knYJ1Ja0IiL5eQzYsbiWywjUAIzB3W8iLQjU0JGISD6eAHYqruEyCjUA43D364GdgSejs4iIyLieBHYurt0yBjUAHXD3a4BdgOnRWUREZFTTgV2Ka7aMQw1Ah9z9D8DrgRnRWURE5AVmkO7z/0N0kFyoAeiCu/+edIvgM9FZRERknmdIt/r9PjpITtQAdMndfw3sCcyMziIiIswE9iyuzdIFNQA9cPdfAXsDz0VnERFpseeAvYtrsnRJDUCP3P1CYB9gVnQWEZEWmgXsU1yLpQdqAPrg7j8D9iWdLy0iIoMxG9i3uAZLj9QA9MndzwH2B+ZEZxERaYE5wP7FtVf6oAagBO5+FnAAMDc6i4hIg80FDiiuudInNQAlcfczgIMBHTcqIlI+Bw4urrVSAjUAJXL304D3oyZARKRMDry/uMZKScxdtapsZvZm4Axg0egs0h13t+gMUh0z0wUvP8+S5vx/Eh2kadQAVMTMXg2cD6wQnUU6pwag2dQAZOcRYA9t71sNTQFUpPgH+2rgb9FZREQy9Dfg1Sr+1VEDUCF3v4PUBFwVnUVEJCNXkYr/HdFBmkwNQMXc/VFgB+Ds6CwiIhk4G9ihuHZKhdQADIC7Pwu8FTg2OouISI0dC7y1uGZKxbQIcMDM7FDgBGCh6CzyQloE2GxaBFhbc4APuvvJ0UHaRA1AADPbHTgLWDw6i8xPDUCzqQGopaeBt7n7L6KDtI0agCBm9grgF8CLorPI89QANJsagNr5F7C7u/8pOkgbaQ1AkOIf/JbAtOgsIiIBpgFbqvjHUQMQyN3vBbYGLo/OIiIyQJcDWxfXQAmiBiCYuz8B7EzaOlhEpOnOAHYurn0SSA1ADbj7LHd/J/Df0VlERCr03+7+TnefFR1EtAiwdszsAOBUYJHoLG2kRYDNpkWAYZ4D3ufu340OIs9TA1BDZvZK0m2Ca0ZnaRs1AM2mBiDEnaTb/K6LDiLz0xRADRVvlM2AH0ZnERHpww+BzVT860kNQE25+1Pu/nbgIGBGdB4RkS7MAA5y97e7+1PRYWRkmgLIgJmtB/wI2Cg6S9NpCqDZNAUwEDeT9vO/LTqIjE0jABko3khbkBYHiojU1anAFir+edAIQGbM7E3At4FlorM0kUYAmk0jAJV5AniPu58THUQ6pwYgQ2a2OmlxzaujszSNGoBmUwNQiT8A+2pXv/xoCiBDxRvttcAXAV3QRCSCk65Br1Xxz5NGADJnZjuRttacEp2lCTQC0GwaASjNg8D+7n5JdBDpnUYAMle8ATcB9EYUkUG4BNhExT9/agAawN0fJB0o9F/A7OA4ItJMs0nXmJ2La45kTlMADWNmryYtEFw9OkuONAXQbJoC6Nm9pIV+f4gOIuXRCEDDFG/QTYEzo7OISCOcCWyq4t88GgFoMDPbHjgZWDc6Sy40AtBsGgHoyl+AQ9398uggUg2NADRY8cbdBPgU8ExwHBHJwzOka8YmKv7NphGAljCzNYATgddHZ6kzjQA0m0YAxnUhcJi73x0dRKqnEYCWcPe73X034E3A/dF5RKRW7gfe5O67qfi3hxqAlnH3c4H1gOPQLYMibTebdC1Yr7g2SItoCqDFzGwj0uldW0VnqQtNATSbpgDmcxXwPne/OTqIxNAIQIsVb/xtgPcAjwbHEZHBeJT0nt9Gxb/dNAIgAJjZ8sCXgQOA1n4K1ghAs7V8BMCB7wL/6e5q+EUNgMzPzLYGTgE2is4SQQ1As7W4AbgZeL+7XxkdROpDUwAyn+IC8XLg48DTwXFEpD9Pk97LL1fxlwVpBEBGZWarAccCb6El0wIaAWi2Fo0AOHA2cIS73xcdRupJIwAyKne/z93fStpN8BzSRUVE6stJ79VN3P2tKv4yFo0ASMeK2wY/C+xNQ0cENALQbA0eAXDgXOBzWtkvnVIDIF1rciOgBqDZGtgAqPBLz9QASM+a2AioAWi2BjUAKvzSNzUA0rcmNQJqAJqtAQ2ACr+URg2AlKYJjYAagGbLuAFQ4ZfSqQGQ0uXcCKgBaLYMGwAVfqmMGgCpTI6NgBqAZsuoAVDhl8qpAZDK5dQIqAFotgwaABV+GRg1ADIwZrYe8F5gf2C54DgjUgPQbDVuAB4DzgC+4e63RYeRdlADIANnZpNIowEHA9tRo1EBNQDNVrMGwIHfAN8CznX3mbFxpG3UAEgoM1uLdDb5u4EpsWnUADRdTRqAB4HvAd929zuCs0iLqQGQWjCzicAepFGB/yDonAo1AM0W2ADMBX5F+rR/vrvPDsohMo8aAKkdM3sJcGDxWG2Qr60GoNkCGoD7gNOA09z97wN+bZExqQGQ2jKzCcAupFGB3YGJVb+mGoBmG1ADMBv4BenT/i/dfe4AXlOka2oAJAtm9iLgAOAgYM2qXkcNQLNV3ADcCXwH+K67/6vC1xEphRoAyYqZGbA9aVRgL2BSmc+vBqDZKmgAZgLnkT7tX+66oEpG1ABItsxsaWA3UiOwC7BEv8+pBqDZSmoApgO/JBX+C9z93yU8p8jAqQGQRjCzRYEdSc3AG4AVe3keNQDN1kcD8DDwc1LRv9Tdny0vlUgMNQDSOGa2ELA1qRnYE5ja6feqAWi2LhuAe4Cfkor+le4+p5JQIkHUAEjjmdkmwM6kEYJtgMVG+1o1AM02TgPwDHAFcClwsbvfOJhUIjHUAEirFNsQb0NqBnYCNmPYpkNqAJptgQZgLvBn4BJS0b9C2/FKm6gBkFYzs+WA15GagR3dvbJbDCWemd1JKvaXAL9298eCI4mE+f//EdusOmyFIQAAAABJRU5ErkJggg==;" vertex="1" parent="1">
          <mxGeometry x="190" y="445" width="60" height="60" as="geometry" />
        </mxCell>
        <mxCell id="W2dNzMSNs9tSsbuihuLR-8" value="" style="shape=image;html=1;verticalAlign=top;verticalLabelPosition=bottom;labelBackgroundColor=#ffffff;imageAspect=0;aspect=fixed;image=https://cdn0.iconfinder.com/data/icons/octicons/2857/logo-github-128.png;fillColor=none;" vertex="1" parent="1">
          <mxGeometry x="175" y="574" width="38" height="38" as="geometry" />
        </mxCell>
        <mxCell id="W2dNzMSNs9tSsbuihuLR-9" value="" style="sketch=0;html=1;aspect=fixed;strokeColor=none;shadow=0;align=center;verticalAlign=top;fillColor=#2D9C5E;shape=mxgraph.gcp2.check" vertex="1" parent="1">
          <mxGeometry x="505" y="370" width="25" height="20" as="geometry" />
        </mxCell>
        <mxCell id="W2dNzMSNs9tSsbuihuLR-10" value="" style="shape=image;verticalLabelPosition=bottom;labelBackgroundColor=default;verticalAlign=top;aspect=fixed;imageAspect=0;image=data:image/png,iVBORw0KGgoAAAANSUhEUgAABDMAAAImCAIAAADBnlb+AACAAElEQVR42uzdB3hc133n/e+9U4BB7wRIgL13iqQkqkeyLDfFvSd2nDi7tvPau5tsdrPPlnifZEt2nXjX8cYlie3EiRU7rrJlybYKVUmKTSwiCZIgQBCF6H363Ps+5w5IyRaJmQHR9fs8IxqEAcydg9Ho/Oac//n7XddFRERERERkVtkaAhERERERUTIRERERERFRMhERERERESUTERERERERJRMREREREVEyERERERERUTIRERERERElExERERERESUTERERERFRMhEREREREVEyERERERERJRMRERERERElExERERERUTIRERERERFRMhERERERESUTERERERERJRMREREREVEyERERERERUTIRERERERElExERERERESUTERERERFRMhEREREREVEyERERERERJRMRERERERElExERERERUTIRERERERFRMhERERERESUTERERERERJRMREREREVEyERERERERUTIRERERERElExERERERESUTERERERFRMhEREREREVEyERERERERJRMRERERERElExERERERUTIRERERERFRMhERERERkXnCryEQkWniguviuObP9F/xPuNCyiHlmj8dF79tbj4bCyzLfI33h/nYAtt8dvwzIiIiomQiIpJzLIkm6BphOEo8RSxFPGn+jCWJpogkxm8ph1Dgys1Pvp+gj6CfPB95foryqC40f1qKJiIiIkomIiKZc4hLylseSTlcHqF9iJYBWgZpG2IoYtJILEU06cUSL5mknPEVFa6sk9gW+T4TTvKu3nyU5LOomOVlLCunvpTaYgoC5it99viKioiIiCwYlpueGoiI5JpGvH/SAWM4RnMfF/o53UNTPz2jXB6lL8KUvMCU5lFTRE2hSSZbalhZaW7VRQR9pLd+aUVFREREyUREXqccl6RDLMmhS+xv5WQ33WOMxRiOm0867vhtStiWyR62hd+mOEihd1tTwS0N3L7ChJaAPf41IiIiomQiIgvf1Yr2lMNIjOdb+Hkj+9sJJ4gmpyyHZCnooyBAXSFv28C9q1lZic9LL4ooIiIiSiYissBjScohHKd1kGcu8Fgj5wZIOONHbzkz/kJy9eQun01ZHvet5E3r2FhLcZ4JLbbCiYiIiJKJiCywQOJ6G7cuj3BxgL1NPNNC69ArmWT2X8W8lOK3qcjnpsXcsYJdS1hUbCKK1k9ERESUTERkoSQTl4EIp7r41kscbqcnMt6QZK69cliMtz2xLbYv4tdW87YNNJTiUztZERERJRMRmdccl0SK8738+Ax7L3BhwPw1HUvm9IsaJo0UBHjDKt62nm2LKQvhVz4RERFRMhGReSd9HPBAhAOt/OBlnrtIOMn8eqmwIOBjdQX3r+Ydm1lWhm2r/4mIiIiSiYjMo1jiEk9xaZCHjvFEE12jRJPzYKnkmuHEZ1OWz+4lvHMTty8nFFA+ERERUTIRkfmQSRyXhMPe83zzKMe6GIkthMeV76c0nw9t4SO7KM4zcUUnd4mIiCiZiMjclfS6lHzpBb55zOSTlDMLZwFPy8uc1+QkYLOrjt+9hVuWEgroty0iIqJkIiJzj+MSS9LUx18f4LHzxFNTkEmuNm4PePXoeX6v94iFbY/3Q7zaFdFxcbwUlHJf+TieIpwYv5L08cTuDecTv01dEZ/Zw/1rxxdPRERERMlEROaQkRhH2vjaIfa3TVksKQ5SXUhVIQ2lbKxmSSmhgLnlBwj5X/nAtokmiCTNn9GESSMRr6N89wine2gepHfM3PojJrfc6Oudl08aSvnoDh7cSE2RfvMiIiJKJiIyN6QchmM81cQ/HOVUj8kG7mQn/T7b3BYXe7cS1lSyopxl5dSWkOfHd6XpYToeXO1AgncOWPpO069G7tWKlxS9YS4N0DJAYx+dw1weoWOEkThJ55XvypXfpq6Y92zifdtMONGBwiIiIkomIjLLXBiO8pPT/N0RGnsn+yLiJY18H6sr2VrHnqUsL2NxKeWhKeu/7sJYnK4R2oc41c3+Vo5fZiD6SpKZhJpC3rqO37uNqkKd1iUiIqJkIiKzJ+USifMPR/nWMTqGSTg5/wSfhc+mOI+ddexZZmLJkhLKC/Db4wUkUzjjT6+ipK/58iiNPbzYyoFLXBoeL9bP9YXMXHmQO5bxn+6jutD8VflEREREyUREZiGWJJL8n2f57in6wjkXlqRr2WsKuHM596xiSx0VIfIDM3QarwuJFMNRE6iebmLvBY53e9XzOeYTC/L8rCjnS++goUzbukRERJRMRGRmuS7hBH/6OD88QyxFKsfVEssi3899K/jErayqxO8bDypYM7fs4DJ+ilfKZSTG947znRO0DI2f4pVTxPLbLC3jCw+ysWbKtp+JiIiIkomIZJDeEPWNQ/zNYYajORx4ZV3JJA0lvH0j795CZYGJJdYceETRBMc7+NphDneYoJLMpROLZeG3uLmBz71FBfEiIiJKJiIyU0Zi/PwsX3iB1qHcmoT4LMryubWBD29n22IKglNcSXIjXK8EpWuEX5zl4TO83E00mcvrIBQGeft6Pn07dSV6joiIiCiZiMh0clwzX3/mAn+5j8ZeEqmsXyYsgjYbqrl/NQ+sY0XFeJPEOSV91nA8yUsdfO9lDrWZ6JXKenOXz6a6gN/eyXu3UpqvJowiIiJKJiIybWJJjrTz589ysD23b/Tb3LOCj97ETfUUBuf6GVauS88Y+y7yV/s515dbf8a1lXziFh5YS1Geni8iIiIzza8hEFnwXHAcLg3yd4c50ZXDN1qQ7+dNa/n4btZWm4gyD0rELSoLecMa8vx85UWOXc6hLL550HxLWT53rCDgm3PrQiIiIgubtiyILHyOw0iMbxzimRZiWW/i8lkUBnj/Fv6/PayvIThPZuqWd+UFAe5Zxaf3sHWRF6iyu/JEinN9/OU+LvR5eUZPHRERkZn8j7h2c4ks8FjiEkvyuWf4p+OEE1kdWpU+hqu6gH+xm3dupjRk5vrz7kRd1zUx7HgHn3uWIx1ew5PsHnvQz10N/I+3UhFSwYmIiIiSiYhM0ew8kuQbB/nCfpNPspqaWwRs6or4nV18YDt+n9erZN4+fMelsYc/fYoj7SaoZDkCeT7et4k/vIfiPDU5ERERmSF6P1BkQScTONnJt46RSGW7YmBbrK7gP9zDB3fMmx1cE2QM22ZtNf/nbdy+PNttXa5LwuGRczzaSNLRk0hERETJRERujOPSH+b7J+kNZ9t50GeztJRP38Z9a8bn8fN9wcDyzharLOBzb+HuFQTsrLKW47WWf+QMTX0KJyIiIkomInJjkg77L/JcK5FktgsmpXn8q9u4f81CO5nKZ1OWz3++l9uWZvW4XJd4ihPdPHyagYieSiIiIkomIjJZLjT38ZMz9IWz+noLQgE+tpM3rTPzeOuG7911c+sxP+0s6kr4vT3cXJ9tQf9wlKeaONmZw7nDIiIiomQiIq8KBi7hOHsvcLCdaDKLSbtl0sh7N/PuLZOsLXG9HVAph6RDIsVojM4RukYZixFPmU+mnFk+h9eCgM22On57J2sqsyrrTzk09fPYWTqGs90OJyIiIpOmTosiC1DSobGbpy4wEMnqzf6gj/tW8uHt1BRNJpY47nhhxukunrnAuV7CCRNILMv85NJ8NtVw72pWVuG3zW3Wwol3Pbcs5Td38OUDtA1nSEou5lHsbTZ55sGNFKsxvIiIiJKJiGTPxQSSRxo52kkqUyyxwLbZXstv72JFZc6xwXXNXYxEeamDH5zkQDuDUZOLru7jSrdGeaqZH5zirhW8fxtLy008mK0GKZZFYZD719DYw/dPZW7w4kJfhB+fZmc9q6tMbNMZwiIiItPE99nPflajILKQYknK4UQnXz9kptQZ10t8FnXF/M4u7l2dQ6/0qxIOFwd46CW+fICjXYzFxxsauozfrqaXwRinu02ACcepCFGYN5vhpCBIdSHne+kaM8OVcUg7RygJsq2OgE/tTURERKaL1kxEFlYy8XZVPXaW5qGsSiPyA+yu5+aGnJuduy6RBMc7eegYTzczFLt2vfvVcIJL1OFkN23DHLvMG9ewcwk1RbNwCFh6GWddNe/exIV+E04yLJu4OPDzc7x1PWuqF9SRZSIiInOKKuBFFpSUS+sA+1qzKje3LJaV8v6tLCmdzB0dbuMvnuXHjQxEs7o711tj6Qnzs3P872f4ygEOtDIam52y+KCPu1Zyc31WG7Rcl4tDPH5OdfAiIiJKJiKSHcfhuRZah8g437ctCgI8sIYttTmvAyQdGnv4yoscvTyZyXrKoWOE77/Mnz/LX+3jeIe3DWxmGxpaFhUF/NYuVpVj25kzVdLhsXP0hxVORERElExEJBPXJZzg8fMknKwqTHbV8e4tFARzTib9Yf75GEc6iacm0+gjfcTwWILjXfzjMf7n0/zoZXrHxk8WnrmXP4sNNXxgq1dgk0UYaxrg4CVzkcomIiIiSiYiMtF0P+nwQguNfZnn97aF38dHdrKoOOeSbhcOt/FMC7HkFESp0TiH2/mL5/njX/Bc8/jiycxM/S2LPD9v38w9ywj4Mn990uFnjSaMKZqIiIgomYjIRLP8RIqfN2Zex7DAb/O+Tdy+nECO7d5dl2iCg210jmY+kjibkOO4xFL0jPH4BT7zE77wHJ0jxJPe0cMz8ApoUZzHB7dTGco8Do7LvnaOtCuYiIiIKJmIyIRe6mDvxSw2RFlmIv72TZM5JthxuTRI88Ak93FNIOkwEuMbR/not/nucbpGSKZmIgP4LDbXcs8KMkYTx2UsxrPNJgEqnIiIiCiZiMg1uK6JCk9fIJrMHBhsuGs5y8sn2e69a4SuURMkpvwhpLxln+Yh/vvTfPYXPH6O9iFiyektPrEtSvLZ3UBxxnobb3nn+YtcHMBx9KQTERFRMhGRa8yZ6RjiQJvJJ06mrVxFQW5bRnF+5jOprnlHQ1HCiWl8ICmHsThPXOCPH+fL+zl4yfx1+qSrTTYuYnNNhmSS3nvWF+Fw29QHMxEREVEyEVkI0n3fu0YzLy/4bDZUs74m5wqT8dm5a3JCNrXvloXfnmRfwnQG6Anzw9P8+bP83SGOd5g7TU3b4klNEbvrKQhk/srhKEc6zJ8iIiKiZCIi10gm53qzWsoI2OxYTFVhzhUmVyWcrHqPlOezo5bqAq+VoTXJcDIS4+hlvnaYP3ua75+gZ9Q7uWsa8klxkJuW0FCS+SvjKS4O0jmiJ52IiMgU82sIRBaAgQiNfUSyWMpYVsYtDRTnTfslLS3jM7ebGfyPT5l0EUlk1Sf+GhHFZSDKwXbO97OvlQc3sKuB0nyTdqypu1qfj9VVrKzkdK+5xwmu04G+MJeH2Vqn552IiIiSiYj8so5huscyL2VYsKaKVZX4p3+5tCBo7mhXPTct4Ucv872T9EbGeynmmk/SJwt3jfLYOV7q5MH1vGsL9aXju8WsqQgotsXiEm6pZ38rfZGJlmVc1ySTjhHzgWXpqSciIjJltJtLZIEkk4FwpjYmFkVBttZSXzaZ2vfxeXn2ccIh6RD0s6KCT9/O59/GW9dSFsJnT3Ktw4W4Q9sIXz/CHz7Cwy/TM3VHhFleOFldxaLiDLUxjstgjOYBxuLTsq9MRETkdUtrJiLznuNyaYiBKE6m9yEqQtQVT7IqfXJsy9x8FjvrWV7B7nP85AyNfQxFzWXnehxw+mThsMtLl2kbZl8r79zMumoTeCZdbf9qdcVUFmT+Oa7L5RF6xggFzEMTERERJRMRGT8sq3WI4ViGr7QsykPUFM3CRVoWAR+Linj3VnYs4ZEzPNXEhYGsCmOunU+gO8wPz3C4nQfW8sY1rK+h6IaLZ6oKaSjhsI94KsNXdo3QPUp9KT49BUVERJRMRORq68Pu0cxfaVtUFlJXMmuXalnk+VhXbdLRriU8fp4nm+i5UnwyiXziuFwa4R+PcayTe1dxz0qWlpPnn3xxfMDH6kpCAUYzdVDpHM3qjGYRERFRMhF5HSWTy9klkzw/y8qoCM3m1Vrezq6qQu5eZSLKLQ18/2X2XyKWynAi1rXDiXdc8micA22c7zd/vnWdiSglIa8yPvfLsy1WVphkktFwjNYhokkzqiIiIqJkIiJeMhk14SSjwgCrygnMje1HtsWiYu5fy8ZaXmjhn47T1E8syeQWIVzv3OTnL3Kul+MdfPwW88MDds5nZ/lsVlVSEDCpZuIrSTlc7Gc0Rmm+noMiIiJTND3QEIjMa0mHvghjWfRYLAyystJMvucIn00owKoK3r2FP3sz791ERcgEp8ktd6RcoknahvnOy/zrH3PqshmZXHdbWRY1xSwpznwN6a4m0aSegCIiIkomIuJJpBiLZTUFN8mkYkYP5soyDIQCbKjh3/0an3sLuxdTFJz8RTpePjnWxb9/jKPtJFM5Xgz4LNZXmYA08XqL6xJJTNmZxSIiIqJkIjLvxVOMxjJvgrItivOoKpqLzQFtC79tAsmdK/ncW/nkzayvpjTP63xiTSacJFK0DPLFfTT1T6ax47LyzJ0oXQjHc04+IiIiomQisqCTSTxDVUS6jWBFvvlgzrbfSOeTuhI+tpv/9SbevYnlpeT7Jj8sh9v51lH6wzn2Q7Qozc9iR5lLJElSZ3OJiIgomYhIWiLlNSPPNNv2WZTmzfXHkk5Q+X7W1fCJW/k3d/DmtdSXkOfLefHEcQknOXCJQ2257bmyoMRLJhNHExfC2s0lIiKiZCIiv5pMMr1577O9U6TmQ8PydFvGmmLetI5P38a/2M1Niwn5c66Md1w6RkwyGYrkdgHjyYQskol2c4mIiEwdnRosMu+TScY6k/RaRMm8Ot/WAr+PpeW8vYAdS3iskcfOcmmYhJPD7qxoipe76BimuijnZJJxN9eY1kxERESUTETkqnjWayYlefNiyeSXw4lNWYjiPJaWcetSvnmE/ZcIJ0m5JhtkTCiOw6UhesO53W9JHnYWFfCJFJEkjjvnjjsTERFRMhGR2Ukmo/EFuGbyarZtLn7PMjbX8tPTfPs4Z/vNA8+YxxwYiRH2xif7+OC3qcynP5w5nIQTJplYFsomIiIiU/BffA2ByHxPJiPZVcAX5c3Xx5hOVgEfZSHeu43/8Wbet5naoiwWK1xiSaLJ3I7nsiwqQ1mFjWg852aOIiIiomQisjAlHcIJMm5ssrwzr+b9C5ZF0Mf6Gj65h7uXe2d2ZfqWdG/4lJNDCkp3pcwmmsRSXjJROBEREZkK2s0lMr8FbAoCxJ0M82PH61k+37kuCYeWfp5r4UxPVgXo6ZO+si8FSY9ixhYxaXn+zOcLi4iIiJKJyOtC0E9JHkMTH8/lmmQyEpvnscRbAGkb5O+P8JMz5iFns5Mqz+edOJzL8rDj0hPOaiGkIKDydxERESUTEUknEx/FQa8RoTvRnN5xGJ63ySTlEE9xpI0nmjjTy5keBmNZrWlYlhmcgkBuqxqJVFZjZUFBEJ/K30VERJRMRAQI+CjMy6rcYiQ6zwoiXG/7VsqhbYgfnOTRs7SPEEnkUHRuW9SVUFGQ2/2OxDLvE7O81Zg8f87N6UVERETJRGRhCtoUZloTcL0dSsPReRVLvB1oQ1GeOs9DxzjdS9RrHpLTWVh5fnYsZnl5bnc9HDX3kvG4s4IAAZ0hIiIiomQiIuPJxE9xXqZ37r2Vh+H0Dqg5/x6/413taJyzPfzwJE800R8l6eS24GN5W7nqi9m1hOIcG7kMZ1HBYnnnd/mVTERERJRMRCRtfDdXpryRchmcD2smrneGWHM/T5zn4VO0jYx3VMx1H5plURjglgZ21ueWH1wYjmQ+C9jyyt+VTERERJRMRGRc0EdRMKvdXIPeyoNtz9FVk5RLPEnnMPsv8tg5XupkNJ7FrqrrB7attbxrM5WFOZaCuAxksZvLspRMRERElExE5Jen4EVZrJk4LsNx+sMsKp6LRduuy0CYQ2387Cz7Wukau6He6pZFbSHv3sSm2smc6ts2mFWnlJCSiYiIiJKJiFyVzZpJ2licln6qi+ZQC470Yk44zolOHjvL/ku0DRFNmqAyOT6vSfyaCt6zhXtW5Zwc0i1TTnaTSGW4BltrJiIiIkomIvIrc/FFhVSGCCcyJ5Pmfm6qnxPz6asnAveO8ZPTfO9lk0lG4pP/gbZlbrWF3L+ad29haTkleTmvDrkuXSN0jZl8MjHLO4+4IKgnoIiIiJKJiKRn5LaZIi8q5tJwhq8cjXOu74Z2SU1hLHFcogn2tfDXL3Kql0gicxi4bkjwckJRkJuX8LFdbKmjIIDPnsymNcfl4oC5mGwC4bJyivP0BBQREVEyEZH0vNxiURE1RZm/Mp6idYjeMRrKZi+TuCaBRBO0DPD3h3j0POEEKWeSZe4WJoEEfSwu4X2b+fVNVBUQ8E3+8lIOF/qySiY1hTSU3tB9iYiIiJKJyIJiQ2WhCSc+K8Oyg+PSF6ZzZDaTSSzJpSEeP8dDx+kY8TKJO/nO9AHbZJLblvLRnaysxH/Dx47FU5zry7wvDqgrNmNuqwG8iIiIkomIpFkW+QGWl1KWP37c7fW4XjK5PDwL7RYdl6RDxxBH2vnJGQ53MBybfCaxLa+6pohttTy4njtXEgqYT974mWO9YzQPmnySYcwx915dqGQiIiKiZCIivzxRri+lIsRgbKL+gI5Lb5jmAeJJgv6ZCycuDEU4eImfNo6fCHyDpS5FQTbX8JZ13Lua2hKTUqZK+xD94cylOH5vraaicC6evywiIqJkIiKzqbaEshD2EKkJE0IkQWMvncM0lOGb5hO6bMvcxVic01384hx7m2kd8k7jvYEfmOdnTQX3reLulayuoiDAVD0I1yXhcKaHyyMZkoltUZZPQ6m5GAUTERERJRMR+eVkUkx1IT6LiUskXDjXS8sAi0uZ7uLtcIIz3VzoN7GksdfbvnUDmcS28Ns8uI4HN7CplvLQFO+kcuDyMC91MhjNnEwqC6grViwRERFRMhGR1ygMsraSfa1Ekxm+sm2YFy6yaRHVRZO5I4tsKzou9PO/nqY/wlCMpHNDsSToY2sNH9jOHcspDZm/TnmBR8qhqc/Etmw6mZSHqCnWk05ERETJRERe+2+yzapKQgEGoxkyQDzFkXZ6xqiabJlE0JdVr8aRmNc50Z38icC2RcBHbSHv2sSDm6gvNfc7TUXnQxFeaKVlMPNX+iwzdLVFetKJiIgomYjIa6fLNlvqqC7k8ijuhFEg5XC8ixOXTZIJ+nIOJ5ZFYZD8LF45XLiRUne/j8oQexp4z2a2LaYgODWnb13vUrtGOdZB0sn8xRUh7llBcb6edCIiIkomInKtwFBfyt3LOdtLLDXh2cGQcNjfyn2rKQ/lfLBVuv67KIgF7vQ8EL9FcZDNtdy3intXU1dsctf0nc/rusRTNPZwpjdDhYnlddxfUsKOJVN5IJiIiIiMTzM0BCILIZl4yyZ3raQilHlhwYXD7TT1ZT4e95rJpK7EpIUbb2t4TUGbtZX8xg7+6G4+tIOGMgK+6W0b4sBwlH0XGY5nSiYWeT5ubWB5+bSfbCYiIqJkIiLzOJysq+bW+izm8S6XR/nBSRJOzuHE8k4o3rSI4ryp3FtlYSb9y0p5/xb+3d389m7W1ZhMMgMrEymHA5fYfynzGpBlmUd9x3K1MREREVEyEZEJZ/ehAG9ej8/KMKF3Ie7weBNPnzfz8pyyiWWR72fXEupLpmbdwPIauhcE2NPA79/JJ/dw50rKQ9O1JvMrHJeBMA8dpXM08zj4LPbUs75G5wWLiIhMC9WZiCyYYGKiwu4GttdyKGMxt8tglP+3nzXVrKzMeRFgUy1vXMOlQQadDAX3E0ufvrW0lI9s5+5VVBeS55/evVu/NAYusSTfO87Ry5nXjtJnhb15HYVBFE1ERESmg9ZMRBbQv88WBUHuXUXAzrxsknJpGuCHJ02GyXVPV2GQD2zjtqUEJ1WbfvVE4AI/71zPV97BB7ySkoKgCVczM+1Pj8CxDr50kGgq8wj4bDZXc9eqGVrMERERUTIRkXkfTu5dzbLSzO/rOy7RJA83sq8lq9Nyf+lebMoL+Nd3sr2WvNyrQXw2JXnsqecLD/LH97OswotSMzvfd13Ccf7pGJFkVgsmAR/3r/F2yimXiIiIKJmISDbJpLqQO1Z4b+1nEU76wjx8mssjuW3Ksryii+UV/PEbeGA1i4qy6oFoeR0hy/PZVsu/2MV/e4A7V5IfGL/UGZ7wRxL85DTPt3r96bOofW8o4e5VOpJLRERkGvk++9nPahREFg5vlxTwUgfD0cxV3UmH3jFK81hfk9vChWWZaXpFAZtryfcxGGE0TsLJEEvWVPLAGn5nN29cZ77Xb8/aEsTJy3ztIC2DmdeLLG/32m/s4J6Vk+lNKSIiIkomIq/PYDJ+uG08SWMvkWTmbwkn6Y9QU8jiEoL+nO+uKI/VVayuYFERtkUiRdI1H/i8m9/G76OmgG21vGkt797Mm9axomJGK91fG8Za+vmHozzfasYnY3gL+ri5nt+8idpibBWZiIiITBudzSWyAMNJaT6/toqD7Tx/McPM2/UqLs718Y9HWVbGhkW5baxKt2yvKuSulWxbzL2rONbJxQF6xhiLj2ekygKTW7YtpqGMwjwCs7ohynXpHuXbx/nZOYZiWX3LkhLeuYml6q4oIiKiZCIiufLZrKvmgTU09dE9RirTukA8xZFOvnyAP7qHRV5/90ncY1mILXWsriKWND8w5e2S8tsEfeQHCAWwZ7t83HEZifHIGb5zIqtYks5dN9dzcwMhvViKiIgomYhIrmzLhIHbl/NEE30RUqnMU/ZIgsebKPTzX95ovn0SW61sy4SQoG+OjonrkkjxchdffZGBSFb9JX0W66p463rqSlReIiIiMv0TGA2ByELVUMYHt7Eku1m1C9EkPzjDt46YlHIj/RPnYizxupd0jfCfHqM/km3b+/IQD65nV7232qPnk4iIiJKJiEyO32bPMu5YSii7cnPHJeHw+Rd4+gKxVM7tF+duLHFJObQP8UeP0jo8vs1sYpa3/rO+mntXk6elZRERESUTEbmhf729AvR3bWZFWba7s1IOYwn+5EmebSYcXyDj4Lg09fHFF3ixg6Sb1YKJDdUFvHcTq6omU3UjIiIiSiYi8kss2FjLB7dSlocvu3DiuvSM8d/38qNT9I7l3B5+rmWSRIrDbfzf5/jpWZO7stmlZns9YR5Yw+0r9BIpIiKiZCIiU5JMLPJ8vHkD79iYQ1vDhMOFfr58gO8ep29svtacuC7RBM+18IUXePwCY/Gs9qel29vftYyP7qSiQIXvIiIiM0cbqEUWfjgpC/GRnQxG+dFpUmRbQNIxwteOmO/66E6qi+bZpqaUw0iMxxr5+mEuDhJPZrWJy/KOP755Cf/2bpaUqupdRERkZict7gI7gkdEXsMFx+FcL/9zL8+3Ek/l8L0lebxxFf/qTuqKzazdmvOnVLkuKZdwnIeO8dUX6QuT/Wuc32ZFGf/7rWypxWdpwURERGRGac1EZOGzwLZZVcmnb2MszuEOHDfb+fpYnIcbaR3kU7dxy1Ly/XN6vu56x4uNRPnKAf7uqPk4p7deKkJmiNZVK5aIiIjMxoxFayYirxOOa25PnOfzz9HUn8PKSboVemk+H9/FW9dTVUheINt6+hl+dIMR9rfyz8c40J7bwcc+7xyz39rJR26iLB+fSvBERESUTERk+riQSPHwKRNO2oZzeaXw8klRkNsa+PVN3LaM8tDcemjhBG2DPHyah44xGCXl5la4X5bP29bzu7tZVq7VEhERkdmh3VwiryOWV0rxlvV0jfI3BxmKZdV2MB1pXJeROE820zzIxX7uWcXKSoK+bDulTFfW8qpKBiPsvcBPz3C008QS181hE5dtEfJz21J+Y7tX9a5YIiIiMlsTFa2ZiLzeuDAQ5jvH+fzzxFKTORS4qoCNNXxoGzvrqSz0Th+f2cp41/vH9TZxHe/gySYeaeTCwGSiWsDHPcv51B62L1YsERERUTIRkZmVchiO8VQTf/okgzGcHCvFbQufTUMp9SXct4pbGlhRid/2Du+agYt3zfX3jplMsq+Vwx10DDMUy7kppG2R5+cdG/jYLlZUEPTpeSEiIqJkIiIzznGJJTlwiT95gouDZlo/idcCn01pnskndy7n11axvmb88C7LwmbKliDSu7NcF8f78/IIz17gp2dp6mcwSjQ5mWUfn4Xfxydv4UPbqSqccwX9IiIiSiYi8nqRnusnUpzu5r8/NX6UsJPj60G6Mt5nYdvk+9jTwFvXc8tSivLw2wR8U9D/xHVNako43qV28cR5nrrApWFS7vgFT+41rCjIp/fw/m2U5JmLVzARERFRMhGRWc0nXgX58U6++AL724gkcisffzXbMreAj8p8ttZ6t8UsKaUgQChA0De+hJLOAFeXUyzG7+7qS5F7JY1EEubWM8apLl6+zMkumgZNPkk55pon+ZKHuZKqQn7rJt6zhVIdECwiIqJkIiJzJZx4ZSeN3XxxH081T3Jz1NV5/3j88JZK8v0sL2XjIjbVsqTERIKgD789fgv4TCqwLXPvidT4wkgyZf6Mp+j1AsmpLs72Mxp/peTd5YYuz2+zqYaP3sR9qynJn+nCfREREVEyEZEJw4m3LepMN397iCfOM5owaeHGXxrSved9Xrl8wCbkJxQg30eef/wW9MJJPEnMu0VTJhdFE0S8jx1nvNh9Sl6kbMvc3Y5afmsnd6wgFFRtiYiIiJKJiMxJjsulQb5/gp+f40xfzjUnc5ltURzknhX8xg62LyaoTk4iIiJKJiIyZ7ngOAxFefky3znB8xcZiE6+7GSuvMZhcsjGKt6xibtXUl86voVMRERElExEZK6Lp2gf4hdn+afjtA57+6nmYT5JHxpWFODeVXx4B+uqKQqql6KIiIiSiYjMH+kDu+IpTnTy1QMcaCOcmPxxWLPC9mLJ8nI+dhNvWENFgZZKRERElExEZN7mE8dra/ijk/zjcfoiJqu47pyuPxnvr+L1f9y9hI/tZEc9fmUSERERJRMRmd/h5EprkQMX+c4JTnTRM8ZofO5ecMCmIkRdCe/ayJvXe0sllnZwiYiIKJmIyMLIJ1446Q9ztJ1D7RzrpHmQoSgpx2vBPuuvYt7GrcIAi0tYXcHNDdy0hNVVBH1aKhEREVEyEZEFaiRGUx8vXuJQGye76Byd/c1d+X621LCznlsbWFfDoiK1dRcREVEyEZGFzvHqTMIJLg9zaZDnLnK4nXN9JL2uiI4zE0so6ep2n011ATvquKme7XXUl1IWGm/sKCIiIkomIvL6Sin9YdqHONLOqW4ae7gwQDR15Yhhd7xMZdIvMZb3TzpoWNZ4dbvforaQddWsrebmBlaUU1FIKIDyiIiIiJKJiLxOpYNHyiGRIuEQT3F5hJcvc6KTE11cGCTpkEyRdMdTSm6vTRY240f9+m3qithSw8ZaNteyvJz8AAGbgG/83C3VuIuIiCiZiIj8alBJelnl8gjHO3mhhb0tDEQzl6MEfIT85k+fhW1TFqS6kIYSNixiSx0rKgj6TQ4x/+8CiiJXF5deeVF+1UqRzMCAXz1sWkREZp1fQyAiUyI9vbNsfLZJEauCrKxkQw2XhjnamTmZrC7nIzvYupiKAkryCfp+acpoXdnQtZBm7SlvoSnh3ZKOtzrkG18LCuhgsWnguOOxOZEyI++4r4x20KeDE0RElExEZIHlk6vJwfsfn+1Fiywm2UEfKypZU2WmidZCiR/ulYaV6TnxSJSBiLmFE0STjMYZiZlPjsTMZ3w2xUEK8yjJoyiPggD5fgoDJqqVhSgMjm9dsy0tqkw45lcG3HGJJBiM0h82IxxNmkEejZmPh6Nm8GNJM87F3q0kz4xwyE8oYEa7LDQej9MDrkUVERElExF5HYmlSKauzLwXilSKvjBdo3QM0zJA29D4bdBLI7HUtctv0gNQGDBBpbyAhjLqS1leRkMptcUsKqY8hKLJ9WLJaJzuUbpGaB+m2RvzS4P0jDIUI5w0+ZDrjHnQR0mQsnzqSlhSytIylpZSV0xNMVXeKQsiIqJkIiKvC9GEmVOmXOb7DNBJnwrg8FI7B9s43UN/2OST7jETRZwrZytPcGpZ+vNjCTOT7olwvt+kteKgmR9XhKguYnstNy1hZSUFAR0AML5IknBoG+RoOy910jZsxrw3bBJg0hlfP5n4mDgX4in6ovRHaRnCbiffZ0a7osDkwLoSbl/K1joz+OmVKxERUTIRkYWbTJJ0jRBLkj8/X5aubtwai5tMsreJfW10DDMcZ3LnjFz9gVfHpydsPvBZPN/C8nJuW8q9q1hbTZ7f2//2+tvilc4bKZemPp5v5tFzdA6bQBJLTX7AwfxAHPNUHIrRPGg+k+fjuWY2L+INq7l9OeUF2uIlIqJkIiIL11CMlkGiCUrz52Es8ebH/WEOXOTRs7x0maGoyRKOy5T3nnRc+iJmuM728v1T3LOcN61jZ/34GcqvE+6VMpLT3fziLHtb6B4zmTDl4EzD3cUdWoe5PMb+NtZXcf8qHlhPeYigT+FERETJRETmj+wK4Ek6XBoknJiXmSSS4EQnf3vQzFxjXjHD9B3Hnn5rP+6dLjUc49sn+cFpHlzHb+xgdTUBG9teyIsnLjhXjqX++iF+do7+CAnnhnp6ZvtbdswveiDCoXYeOs7HdvLWjSac+O3X44KViIiSiYgsWI5L+xDDUTMLnC/vQ7su0SSdI/zzcX58mstjpNI1JDM4TU845k6/e4oDbfzWTt6wmpqi8bnygpRy6Bnl8fN89zinek1gePWet5m5AMflXD//bS/7Wnn3FnYsJhTEp2giIqJkIiILJJlAT5jmftbXzINNMumi6svD7G/l4dO82OYdtOXizkY6SnmHgLUO8cV9HGnnbRvMXLk0f0HlExM/oD9MYw8/OslPzhJPjceSmb6SK3vJRuI8cpbTPbx3M3esYGk5+X4Vx4uIKJmIyIKYeg7GONXNvau9liZz+2rDcTNF/sHLPNpIf3RG37O/nqRDzxg/buRkNw+u44F1rK1aOG/kOy6XBvnhyzx2lvP907tfLvtLiqc428df7udAG+/caJ66+TpcWEREyUREFsbs80g7fWEKgnP3veeUw2CUJ8/zg5Oc6GY0Pgtv21833Xlj2NzP3x/lpcv87i52Ncz7Ku10k8rTXXzzKHsvMBD1lkrm0uUNxdjbTOsgXaO8cwsleVo5ERFRMhGRec6F5kGOdbCkdO7OkgejfPcE/3TczESTztwbQ29zV1+EZ1sYCPOJm7l/Hb55e76t65JMcaqb//cCz7USSc6hHPjqi0wvnnzlRXrG+N1bKM1XOBERmQxbQyAicyeaDMd48rzXp2LuXV3KYTjK1w/y1YNzNJb80tW6nOrh88/z/eNEk/Py6ZDeLnXiMp/9hRdLEnMxlrw6n/SETWT933vpGpmdoiMRkflOayYiMneCiZnu72+jbZAVFfjm0jsnSYd4kr94hu+eInxjU+R0h76r58ymVzOsKyPAlRltemo76Qlu+o38pgH+7z7iDu/dit83n8pO0pu4Grv5lz/wdnDdQGHJ+IC/eqhfdcjv1QaL7qvGfNLP3oEo3z/FWIL/cA9VRa+jDjMiIkomIrLQOK6Z233rKH9wNwWBubIHyXXpGeNze8ePhLqhWGIRtCkIkucnYI+3R6wtpCJELEX3GMMxEg7JlPkzmiSSMPc4aSmXzhE+/7xJU+/fNp+6WEaTvNjKp39srvwGY4ltURgkFDBDnR7wogB1xebPrjF6I+a+kl6PlETK3F0kMfm7c13ze3z0nLnjz9xmAra2dYmIKJmIyDwOJ4838Y7NbK6dEyd0JR36xviLZ3j0vAkJuR7DZVlmbuqzKAqa+FFRwMpyNtawuITKAsoKKA+Z6bJ9pX49nGAwwkCYgQiXhjh5mdYh83FfmGgKx8ltq1u67GQgyp8/R36Ad22a06cLXH0CJFLsa+G/PmlGI9ddc+m1EZ9lsl95PuUF1BSxs86EhDLvr2Uh87tID4KL17AyakZ4MEx/hJe7eLnH/HUgPJ4SczqbOL3kkkjxSKO5l0/cQl2JVk5ERJRMRGR+Srl0jfHDl1lbTf4ceIkajPCdEzzVTDg+mbfSQ37qS1hRzuZFbFpkHtTikmu1DL+ynasoSE3h+BwXiCVpG+RMD0c7aOrnQj9twzkv2qSbA37tIDUF3LcG2zennwBJh5c6+PzzJpJNYnnKskwCWVPJhmq21rK+hpWVJqVcHeNfGfCCgPn6pWXjY/7rm0xQOdvD6W6OX6ZlkFNdJhPmGq6cFP980vzwT+0x4VNERJRMRGQe8goknrvIG9vZWU/AN5sZaSzGY2f55xMMRHKLJbZlrnxxMXct587lrK6ipoigD9uesNjD+tUP8/1mYr2sgrtWcnmYs708etZM3LvGxrs9ZjuoLm0jfOkAVYVsXUxgTjZhTHcwbOzhqy9yvi+3WGKBz6YwyNZF3LWC3fUsKzd/9dvmd3HdB2v96t8sywSJXQ3sWMIDYRMLn2zi+Yuc6TUBL5XLJSVTfPs4tUV8aIeJRtrWJSKSke+zn/2sRkFEpknvGHsv0Dma25TO9dYKXJettRTnzVY+IprguRa+8iJN/TlkgPRWIr/NG1fz0R08uJGtdVQUmFjis3Oeno5vBrNNRKkqNAlnUw0NZYx6G5By2unkuPR6XfY31ZgfdY11m9nmuHQM87WD/KIph/PE0pUkPps1Fbx3M795E3evNENUkDGWXOenpcfcb5vn3uISttSypsp8vj/CWILsR82FhGMiVkU+66pzvhIRESUTEZHZTybp9YqBCHVFrJ2NKZ2bPhiqh7/az6nuHC7egjw/t9bzyVv54HY21VKaP5WHjFlQks/KCrYvobaIzhGG47mVvnSPcWGAnYvNz5k77+KnyzN6w3z1AD9pZDSWwwpVwGZREe/ZzL++kzuWs6TU/Aqm7Anj1avUFbN9MWurGIuZi0zkEgjDCRp7qSpgeYUKTkRElExEZB4mE1xG4uZ/N9VQGprpObTj0h/hc0/zXCuJrGsMfBZ+H+/YwL+/h10NVIS87VtTeuXpt/ODfjPT3bCI9dWc7zGX6pLVVN71It9glHiSrbUUBOfKsonrEkvy1y/yDy8xlnU9z9Wlkt+/k/dtZUmJeUS+Kd2oll5CSa+fLC3jpsVEE7QMkMxyxL3n0licc73UF7Oi8pcOLBYRESUTEZkPycSb+PWOURBgXTWhmZ1Dx1N88zDfOUk8l/Nqi/N4zyY+uYclpeP7iKZPerqc3mvUPsjlMVJZv5GfcukLU1fM2upXunzMrpTLS+187llGYjmUl+T52VxjcuA9K8kPYtvT+yTxWZTkc/tyLJeXe7zzo7N+Jg/HCCfYufiVY8FERETJRETmTTJJT1jbhlhSwtIyMxGfgTm06xUuN/bw58/QH8tqo5QFAZ+Z6H9wG7+9m9riGbpUyzJz8coC7llF97AZ5Gw7n7iMxoml2FRDWcHsT5Qdl6Eon3/OTPezbF2SblGyewmfvo2bG8bry60ZGHBvzLcvocDPpSFGY5Dd2onjLQpVF7LqykFhIiKiZCIi8ymZON4cunuUNVVmxj8DXeFd11zzF57j8OVs68tti1Xl/Mub+fBNVIRmtHW9hZko5/m4bRmxhElxo4lst3VFE1QUsLqKUGA2nyHp1uk/O8vfHMphFSIU4IE1fOIWdjfg983oelq6O82WWpaV0TZsnpxZ1vmEEwxHWV9jnskqhRcRUTIRkXmWTNL6IwxH2LiI4rzp3bGTPrX2kdP8/UvEk1nNkn029SX8wZ28bcPsnAyb3o4VsNlQQ9DHxQGG41kNUSzJQIS1ldSVzOaxUa7LhT6+tN/EqmyeJLZXkv7rG/i9PSav+u1ZKNtIL54sLmV9NR0j5sqzXDkZjlGWN96oR3u6RESu8SKvIRCRuSx9gvDTLfzNi3QMT6b1XvYcl6ZefniKsewOvEpHgj+8izeuJeifsFHJNIcTn01FAe/Zwts3mrlvNjEj6XCmh8fPMRTFnb1fbiLFo2c40ZVVLLG8Yo83ruZTt7K8YjZ73ViWSRfbF/PJW9ham1XMcFyTTB5p5HBb1vvuRESUTERE5lo4iSR59BxfP0j3aG5NPHIyGufhUzT2mUmkm8UsOeTn39zOfatn5537186Vywt431buX01BIKtRjad47Bz7LuZw/tjUSjkc72RvM2OJrDJnwMeeBj59G0tK58QJV7a3retf3szqShOZsrmktmF+fDq3Qn8RESUTEZE5xHEZivGTRr51lMGIlxzcqc8/Tb3sv2TyiZvFlNTv48PbeNfmubIzJ91wsLaYj9/MqsqsqvBd6Ivw5PkcCjymVtLhUButQ5kL39OPbm0ln7l9fLVkjpRqFAT4tVX8xjaqCrHtrB7y3mZOdWWVfkVElExEROYi16U/ykPH+OZhesduqHDlmnN0x+XlLloHszp+N+jjTav50HYqC7Kaj84Yv21iyR/eSV1xVrvLkg5PNXNpEMeZhYlycz/7WhmOZfHfKovqAj5yExsXza1+hZZlngzv2cp7N5mMamWRsaNJnr7gpUFFExERJRMRmacch94I/3ScbxwyESIxdXM7x6FjiH2XzM/P+DMti/VVfHg79WVeX7+ZjGdeQnOvv2Rkec0HdzfwmT3eRNnKPFEeTfCLs15fc3dGH0jSobGbC/1ZRcFQgLes484VFARmeoXq6oC7E4aTD+1gc3VWzwfX5elmukaUTERElExEZN5Kr2x0h3noGH9/2Exqp6rmJOlwtocLWVSYpEufd9Wzrmam37xP98QYjjIQIZK47oTe8pZ07l3N1pqsih9cl8fP0zuGM7PT/YEwL7bRNpzV8tfaSpNMqgtnehNXIsVYnKEoI/GJkrDPpqaID2yjOJhFGoT2ER5rzPa4YRGR1w81fBKRucLKumndQIwfnWIwyvu2sr2O/Bt+H30kxuF2M0vOyGexspy7llMeYsaWSxIpk0bO9nCqmy7vDIDKEGur2bTITIiDrym6sL1u5e/fRmMf/dEMw+q4nB/guQu8Z9vMPaKUQ+sgZ7qzKukpDnJzg3m8M9YrJuWaK2zq5XQ3FwZMOAkFWFbGhhpWVhAKXqOxo21z5wp2LeaplkyRwzW/wcfO8c7NVBfp+GARESUTEZljCgK43hb8rBoFejUnP23k0iDv38pbN5hvv5F307tHTTKJJDN/ZWGQWxvYuGjm3rx3XJNJfvAyL16ieYCRuPlkno+GUnYs5t2b2Vl/jXp3n8WeZexewi+aSGUazFiKn53jTespzZ+hxxVJ8FIHzYNZREGb5eW8YTVloRkacBcGIzx7gZ+c4UwPl70o6LepLmR1JW9czZvXU1HwmjQI5QW8awuHOkxmdif8+UmHc30caecNa7B9+rdfRETJRETmkk015Ps40kk4kW29Q9zhWBd9B7jQz3u2sLTcTB9zfQfaTBNTNPVxqifz7hrboqqA+2ZwlhxLcrSDrx9kfxuj8Vc2m8VSZlrfOcrZXv7r/Wxa9KvNPWzLXOTbNvBiG4OxiR5aeo/c2T4zCNsXz1BXlqGoiYKj8QxfZkFRkAfWsL5mhgY86dA7xvdO8L2TdIwQT42PedKha5TeMM399IzxyT2/2ljTskw42b6YW+p5sjlzx5Kkw/6L3LNqNruyiIjMNaozEZE5YVkZv3kTWxblcCCs65JI0TrIt47xJ0/wdBMjMTPhy+k81vRCTVM/I5m6K6YLne9Yyo4lM1Fhkn50p7r46gGeuchgdPyhvRKoHMbiJlD932fNRP9XLt5crZ+tdeyuzxw2XJdwknO9U3zi2QRZaDROY0+G2vd0e/vlpbxlfVYdWm78qhyXwQjfP8FDx7gwQCRpBsS98v+mXJM32kf49nGePHeNk45ti/KQudry/Mx3l3J5qYuBiM4OFhFRMhGROSbgZ/sSfv8OVpThz+Vte8c1oeL5S/zBT/kfT3K+l3gyh3DiukQStPRn9XIZCnDbcvJmpJlG0qGpjy/tN7EkmrzuZDrpsK+dfS3XmChbUFHALUvxZ/GufCJp7i7lzEQASKa40EfLUKZFKsskwDuXU186E8UYjmuS3g9P8ndH6By97vMnvZPwH44SS16jID7gY9MiNtZk9cQbitI6oH/1RUSUTERkrr0YedPQbYv5j/eamWjQl20xdvqt7kSK4RjfP8XHv8dfPs+ZbvrHzIQ+5WSY/roQjnMhi2RiWZTmmXnndMcS1yt5bxvki8/zdIv5eIKH4Hi12oe9vV6vnU3n+80seVlp5juNpTjTa4Zi2pOJt/Jwqmuic3iv/vcp4GPHYq/cfJrHPOUwFuN7J/jaYbrDE535ln6+NQ/SNnTtp3F5iFWVWZ3XPBbn4gBaNBERUTIRkTnH8lZOblvGf7mXTbmfyet6lSftI3z5oMknX3yBF1q4NGhm2xM0jnBdesNcHMo8QbQt9tRTVTjt51e5Li0D/MWz/KzJBIZsHnhv+NqhwraoKWJ5eeYf4rj0R2gdnIlkEktyKotTuSyvqmdT7fRHQZeRGI+c5gvP0zmaudzI9f7pHbvG88rE1xBrqghlaibjYpJJs9ZMREReRRXwIjK3wonPNuHEb/O3BzncwWg8t6KR9FvaXaM8dJwnL7B5kbmtrWJpOUtK8PvMZN1nmXuyrszIT3dlFQAsi5uXenlpOifKiRTne/nKAX7eRNLJqhlfuoHJNfc7WV4yWVWJv+ka271+ZeiGoybI7VgyzTHAO/nqbG9WA37HUkryp/d6Ug4DER5r5K/2MxTPtsdIuujotc8Ey2vDv6yMFWWc6ZuwbscrcGoZJJy40ZPlRESUTEREpoVtkR8wGSDfzzcO81QzkWTO3bJTrvmulkFah3jqAnVFbKgxEWVJCcvKqS8z8910cwzX5Ux3hll7esZZ6F3VtDZ9d13O9fDXB00siSZziHMNpRTnXXswi/NYVUFZHv3RCdeOvPOyLg1N++/XRMFu72KyeFy3L7/GgchTayDCo2f4+uGsVkuuXphtsbj0us+ERcWsqOBc/0TnNadL6vvCdA6zohId0CUiomQiInNU0MfWOj55K2X5PHrOaxDhTmZDvuOdOtU8SMcoL7RSkuetIZRTXWSSRmGQUJCXOjNXfvtsti6iqiCr+oGUQzhB3xjxFKX5lIcI+DJ3CUx4deFfP8wTF4gmcghyQR+3LTdx7nrX1lDG0jIGuyY8O9hlLGGSSTiOPZ37fBMpTnd5A+5meFxledy0JHMUTK+SJVP0jjEUMb/Q8hCFefgzVaekHBPGHj3DP7xE23BusWR9tddq8zqqC1lTxTMtmc8OHovTM8ryipnrcSkiomQiIpKb9MrJ+ho+frP5+MdnGEl4J27lnk5clxQmKpi0EKF1iOOXvajg1dzbNoORTOcFe40Lt3gFD9aEd+R4By4918ypbi4NEk9SWciaSu5ZxdJyM8m+5p6r9Ny6Y5hvHuVn581PyFJ6T9Fb1rKpdqLks6iIRcXY3Rnm90nHhLT/94K3TDFtv9mkw3Mtr5zGO8GYryinJH+iU7nS9R4Jh5Z+9p7nfB89YxQEzTfubmD7EoqC5vdrXS+JxXmqiX98iXN92caSdEZdVcan9lyj9f6rc/WyUhOqh2MZflo85e1XVBG8iIiSiYjM9Vco20zo/+3dNJTyjSP0hEm6N3qUUcrb3x9NvTJhzbwaY5n5cW1xhvfg0+f8/tU+nrlILDmeoyzLzGV/fp4/uoeNi649nU059IzytYN892Tmd9lfHUv8Fvev5A/uJhSYKEsU5Zk5ejZ7os71cXGai+DTJ49lbJxiWRMtSqQ5jpnW//Q0f3uIztHxshzL+2V9/xTv3cJHdpp48Npw4nhV+Pta+eI+Lg3n0MXFtlhZxn+8l821E+U326I0P6seLEnHPBsVTERElExEZK5LT75L8vmt3Swr5++OcKLL63/n3NBkLv1eu5vjlVQWTPQDXZfmfr7wAk9dIPKaNvZHOvnMw/zHX+OOlWbCenUdwPViSX+Yvz7At0+ah5bt9UCBnzuW8W/uMhc2cbuPkLdvLZstWklnogNzZ5JtUZKXIU1FEvzgJF95ka7RX+1gE0vy5RfpGjGxrTyE71U7uxwvmh68xJ/tpWUwh/WKgM2SEv7d3exuyNAP1LJMGszPJpmkiCV0cLCIyJUXfw2BiMz11ynLTATvW8Mfv4H3bKah1JsXzvg1VBdd907TB1s92shzLdd+Czzh0DHKnz7Fo2cYjb0yG3Zdukf50j6+ecxMprOPSfl+7lrO7+2hocyrxLAyvNCX55tvmU+h1FvqmeBhOS5HO/jWS3SPXaOxpuN1Tfn+Kf7sKS6/qobEdQnHeb6ZP3mCi0M5FC/ZFvUl/O5uE0vy/BmioAXFeVkNeMLxDnjQv+QiIh6tmYjI/Agnlo/VVXxqD1tr+fk5DnUwGPE2d7kzMUsO2N7mIuu6s+T2Ifa3Mhy79izTdUm5dI7ypf2kHN641vy0pEPnCN84xEMnzMfZV2AXBbi1gd+8iXU1WdWEWBZl+QTn1+u9t+zA9aNgNMGpbpoGrl2ykl7FSjj8uJGgj4/tZmWF+WQkwTNNfOkAzYM5rLwFfNQX8+HtvHmdiRwZ98WNr5lkMeBJ5xorbCIiSiYiInN8pmpm4TVFvG0jW+r42VkebeRMrwknM6Asf6JaDsdlIMLlkQkbhnjT0ItD/O0h89e3baBrlH88yrdPmLlpToOwvZaP72bb4myXQSyv7CHPN89+3UXXzwAujMa5NJhh75njEkvx8BnzwcdvprqIF1r464Oc6rnGMssEV1JbyAe28faNVBbmcPHZ7OZKpCZzKLaIiJKJiMicELBZWcGHt7NrCc+28Pg5WoamvUCi0qtVuG7q8NqnJLK4gJRLyyBfO0RjD5dH2X8pt9oSv48di/jErSaW5OXy+l2U53UGnD+xxLIoCk4U82JJkwatjDUa3mnIPztPNElDKc9d5HRvDrHEZ5tf/Qe28o5NVBTm8ACKgln9gtK7uURERMlEROYly2viXl7AzUtZV80bVrP3Ao+coXlwfA+P60799ph4KsPPtK2stmO5Xv3DuX4uDZNIZRVmrk7WfTZrvJPKsl8tufq92e8Wmzsmjpo+20z9Mz6m9FNiIGrCid8mnMhhE5dtURDgd3byri1UF+bW8NEMuJPVXfjUyURERMlERBZARCkNsTmP1VW8ZR0/P8ePTtE+Yqb+N3h412v1hCeaKNsWxUFzy5Lj5lZdkI4lm2v4z/eypY5Ajqsfjlegn/15xLMuHSdGYxMNSEGAmqIs1kyuBMJIcvxL3ayfXYVBPnkzH9w+0b6y693daCyrLv4Bm5B/epvci4gomYiITH8y8aaPts/M1FdXsayCBzew7yKPNvJyD7EUidR4jwuXG1pIcWE0MVFHvHS3k42LaBrItig/p4sJ+Fhbwe/fMR5LbCvn6x+K5XD21xwJJ68+xOy1saEoj401VBXQH8mqIUlOtRw+2ySf376JD3ixxGfnfvHx7JKJj1BA/yqLiCiZiMgCYtvkWTSUsaSUBzeOn5R14BJN/YzEzRx3NJ5DQ73Xclx6R1lVcd17ryvhzWtp7OFc/xSvTtgW6yr51K3sapio7/jEk/LBiIlq8ymZuIxMuGbit9lay70reeSs+eVOrfJ83r7h/2fvTqAjye4y0X8RkXumUvu+laTa972ru6v3di9ewQbbDMYDxtjDMnDg8OAxwHs+MwwMDBwOjzcwPGMzxvbYBtsYvHXbvVV1d/VW+9pVJZX2fUtJuWdG3HduREqlrq5SRKq0pKq+38lWq6tVUuRVKvX/8t77v/joLpT6FzngMykkHTQ2cKk2p2QSETGZEBGtMYr5j6ZAM6u99RVoKsVTmzA0g84JtI/j7TFMxBFLI5FBPINYxpxOme3na/uCuhAYi99yokMxX/ze04APbcVXTqN/BsYSLSdza2gpwSf34nCLWcIuqobNGoik1tJqrutzJgt+TF0xfnI7eqdxckDeuyXZSKOpKPHKkPnvdqM6lPf01NyjxeFqLhdXcxERMZkQ0Z2cUsyI4jdfja4uwvYaWSNGUxiewVhM3vpnMDiD6SRSugwqpwaQ1G3KZEPIv7iw8gA+tA3RtAwnkeQStIJVFTQX41P78cRGhH2L/zzxtLytrQ3wQpiHwyx40R4NBxrxyT1IZ3F2eGmiV5FHxpKf24O2isVPZQjkMWfi5e9hIiImEyK6S1h7BvxulAdzrbHiGaSy8pbREUvjd36AaxGbV9wNgZ5Jm0JZUVAVwsd3yVz0xRO3u37MpaIpjF/cnzvd73ZMJWVSsp1SUIDGYuyoXt6X8HUDV8dzBx0uPOBD0Vx7X2XBUXqwVUaUv3ldhpOMsfhAaHXienI9PrkPLWW3tcLKyrEzDtaYuTX4uJqLiIjJhIjuHooiiz9rZY5bQ3BeE61kBm1l6J5aqHAXZj19asCmULZ25NeG8Ym9Mv986ZSMQItbYqQpKPPhMwfx9GaU+G/37g/NYHjGLlaZUxD3NeGX713eQjmj47sX8bdv2Sx4EwI9U/Kygx6bpBTw4P4WGVH+9Aguj9/8SHgnjxCXKmPJpw+ireJ2O/nG0+iKYDpl/5FeF0p8XM1FRMRkQkRklqRbqnCkO7ft5FYM4FoEnRPYVGnTqUlRUOrHLx5EOouvn0Ms/3Cimke2//YDeO8WBG6vcZO1kaYnIm+63YRPsQ9bq9BYvLwDnjVwuAV/fwLpBTv+CiCl461eNJXCrS5Uu1uZ6mAT/uBR/P6z5kExeZ65aX2Gh5vxmw+gpmiRe0vmG43h2oT9ZSiQY15fvARfkYjozqByCIjoLk8mW6vt28IKIQvNE332L8krZquuEj8+ewg/YUYLa8bGIWvt2W8/gA9uQ9CTd7/ad1/2ZAJXxmVAWnjORFVQ4kNbufyKy31rLkVLif2YCIFXupDV7edAVAU+N/Y2yHBSE5JfwvkshKrAreHeBvzBY6gNy/dvMyYIkeu7sPBJi1bXhNoQKkOcMyEiYjIhIjKTSWs5yn2wLUgNgWPd5qkgDjZsqOYp9Z89hA9tQTCfnlrlfvzmfXj/FnhdS/BSuiEwGjV3yDgo0Ev8aChe/t86Cnwu7Km1DwAG8GoPRmKOVmdZ8x73rsPvPIjmYrgd/3Lzu3B/I373YdQVL8Fx7NZGpvZxdNntXFIUhDzYaO6zZzAhImIyISKST4JBDzZVOCo6TwyiL+K0UNYU1IXx8/vwvk0o9smKfOEC1KWiJoRP7sEHt8madUlW+GQN9EZwbcL+I10qGsOoCC1/FDQ3V2yutp9KEgJJHSf7nG5qVxX43XiwDZ89iJYSmzVg1seHPLi/Cb96n0ynLnUJ5i4MYDKBq2MO5tbMM+Zby5hLiIiYTIiIZgvEgBstZQ6KToFEBif7nW6wVhRoKtrK8UsH8VgrAi6bGrQigI/txEd2oDJ0u4u45sTTODWI4Zj9R3o0bKnKY6rhdgbcrWF9OYq9NgMigKyO13vksAvHsafYi/dvwSf2oK7IZg7E58LBenxqP3bXLVnrXsPAwDQujzr67RvyoKmUP4JEREwmRESztazPjeYyWcXavoSfyOKFDgxM2XS8fceTrILWMvzifjyxHkXmvpF3fxVNRVUQH9+Jj+5EVWhpXkO3+on1RHC0E1kHW7G9LpkWtBX5naAqqAxiY7lNcrAOwTzej5N9yOh5JJ+gR4aTzxxEQ/jmMyfWirK9tfj0AeyqW4K9JXNjnsjg1S50OJikUlWsK0F1iD+CRERMJkREs4Wsx3wJv9muRZIwO95eHMVr3XkkE2vmZFMVfu0+fGw76oLyP1Xl+k1TEPbiE7vx8d2oL4ZriZ6VhUBKx0sduDLmIJkoqAthS/XKNYkq8jpqPGAIDEbxzfMYieb3PS3140Pb8B/vxbpieFQ5yPPH3KViZxV+9V4caELAs0QDbo55bwTfvYSog5NMXAoONcpAyMVcRETXnxs5BER0l1MV1Iexpw5909DtXpufSOCHV7CzFpur8vsSzWX4D/fiwVZ8+zxOD5qHXShwK2goxqcO4N4mhH1LWaQaAh1j+NeL9r1rreZUh9ehLLByTaLCPty/Dkc60W43vZDS5XAd70VdOHdijMNwEvTgqU3YUYtnL+Ola+Y3V8jwUOLDo234+C40lMg7vlRkFMzimcvomoLh4PFQ5MXhliULokRETCZERHeIqhAeWIfXetA/Y/ORGR0Xh3GqHxsqzE3tjgtll4LyIO5bh731iGcwHkdWR4kfxT74XOaCImUpq+SsISNQf9R++7jV1erRNvv1bEv5u0dFWxk2V6LD7mR9w0D/NL53Gbvq0FSSR/ssVUHIK79NTSX45D5MJmQa9LpQEUTABZ97iSeIrCj49XNmm2O7rlwuFe9pRWMJVCYTIiImEyKi+TRVlrCt5fbJxBAYiePH7dhdh/UV+b3objXsCnjgd6MscL1OVbHEkxW6wIUhfPOCzFHCQWp6oi3XLGvFqOZh+bvrcLQL0bTNAfyGwKURvNEjA2Qwz8VXiiLTiEeTKWXuu6AoS3xnhUAyg6+dQSRpP2GiAEE3ntx0801HRER3M75cQ0QkC+WmUmyphN9lU7NahfL5Yfz4KiIJ+b7Is1BWzZ0nrtmbtqRVsrXxfWAKXz6JRNb++HmrNdlTm+x77C4tRYHHhR3VaCuzn7sQwHAM3zyPk/1IZZ02EZ6LATcOuGrfwTlfsQx+dAX/9jayhoNJKgUHG7C3gQcsEhExmRAR3SyZFHlxqBGNxY4W+YzG8c/ncKTT0cGLK0kIjMXwD8fxo3ZH2/Q1BVsqsL8BLm2lX79XgJYybK+WadBWRsfxARm3uiahi8J68AjgZB++eAKJjH0UBGQIfLQNHo2/gImImEyIiG5hSzV21zoqlIVA/wy+cBzHupAxCiibzKTwrfP4/hUknM0t+F14dD387tVZVlQawP3NqAw6mj0QAsd68LVTiKXtzzFcMRkdF4bw1VNon3AUmdwqNldgX4O5lItzJkRETCZERDdVGcSTG1Dmty/ThbmX4/IY/vJVjEbzW1+0TKxlZq9145vnMRZ3tMxMUbC3Dg+2LGWLqry4VBxsxP56eJ01AIim8Z1L+Pop+13mKzbmA9P42mm81ud0wqTEhw9tRU3RyjVoJiJiMiEiWns0FQebZDjxO2vcZJjh5A+eRTztqCpdVlkdZwbw5VPomXJ0MZqC2hB+agdaylatSlYUlATwvs0oDzhquiWA6TS+eBIvmGvVVjec6ALRFJ7vwPevyHfs76y5aPCeRjzUKh9gRETEZEJEdOsnRLPP7Ed3ojnsqFi3mvO+0Ye/OIJU1v5Aw2ViXcbANP7xJE4MmP24HJTsLhX3Npmr19yrl0zMMd/fiJ/Y7LRRlWFgNI4/OYJzg+Y6utUIJ9aMWSqDl7vw18cwmXC0jktV0VyMD21Fc2kevY+JiJhMiIjuUoqCdWX4pQPwuZxufkhk8c8X8H/9CCPRvFt1LYmsgb4p/PEL+O5lc0e+s0iwpRI/tR214dUecHOvy0d2oibo6HAPYYaTgRn8H8/g6DWk9VWYrRLmbMl3LuC3vo+plNO/5dVwbzO213CHCRERkwkRkbNC2aXivVvxnlazka6TQlkgnsH3LuO/voDzQ0hmVuiFfOtLR1O4MIzf+yFe7ELWWZmuKij24XAztplV8ur/HlLRWIJP70eRx1kaNMNY1yT+4hU8cxlTyZVb2SUEMjr6p/DFt/BHL8kc6KQBmvWg2l6FD281t/vzx4yIiMmEiMjR06J5RPdP70JzCRxWkbpAIoNn2/FnR3C8D+mV2Z8tMJ3Ej6/gPz2DN/uRzjqdrvFq2FeHpzcj7CuIfdjWAZTv3YL7Gp3+TrIWsF0ew1++gu+cx2hsJWZOBOR39tIw/p9X8bdvyDjq8IsqCkp8eHw9dtTJhxYREd2K9rnPfY6jQETLZCyGl65hMGq/EH9nDe5rhs9dEAtdFAXlAXhdeHvE0XmFc/qn0RMxVyi5EfSYdf9SH+pnnaUYTeHyKL59AV85hc4Iss5WkSnmLv91Jfilg9jXUEBVsgJ4NBT70T6GiaTjAReYSqF9HBPx3F93qbkj3peWIWQm6Z/Cc+34x5M40oWU4/CpKAi48PRGfHwXyoNcx0VEtBAXh4CI6AbWVvgnN8pi9OtnMZl0Wr8aAsf75d/aXIX3b8KhZlSHliyfCHOuQDfQPYkXOmTkOzeMmXQe8zOKAreKD2/D/evgKaSnf3lhmgxLn9qPv3kdV8cdBS1rQPqm8Y2zODmAB5rx2Hpsq5GfSlmiQCjMyBdN4ViXjCWv9WI4ioyRR+LSFNzbiM/cg8YSruMiImIyISJalFI/PrId3RHzPHXhNAAIgcEoRuO4OoaNl/HBzbinGWUB8+X8xZbLQsAw+wKPxvDcFTxzFdcmMZkwu4HlGUs+uh0f2YGgpxCrZL8bj66X9+v/e1MOoMNeZwJI6Lg4gp4IXu7Gg814chPWV8h8oimLn6OwFoxlDLzVg2eu4PVejMScHloyR1Oxqxq/8zCaS3mACRERkwkR0aKfHzW0luMTe9A/LQvfjHBaKAtz8U/vNAZncGYIe2rxeBvuW4fKUK5WtiJKrlKdF1fEvH+J2U9lTcW0j+G1bvz4Kq6MYya9mA7FbhUPNOM3DsvEVZhVsmZuzf/wdgzN4OtnMZ3OIw1mBCaTmBqWme1ot7ynh9dhey28LnlnrSVecwMOvHPMxfXBnxvwSAKn+/FaD37YjumkzCT57mRxqagO4I+fQlv5bWUkIiImEyKiu521K2N/Az5zAP/9ZfRM5db2OCQEsgITcbzYiaNdCLhxfwMe3YDDLfC7ZdmqmtWqquRKZ2s9mJhdFWYYMn6MxfBih7ydH0Hc3PGyuD5UioLN5fjDx2Xprxb2JuwiL37lXnRG8NI1OQJ5zVEYArE0Lozg0ii+cBJbK/BQC57chNow3FpuqK3RtrKZNdpzacQQiKdxaQQ/voIjXRiJQRe56bJFbLAPefBHT2FdGWMJERGTCRHRUnBrsrQdmMZXTmMgKmtl58HAOpJP15EBUjqeuYbnu1ARwD31aCiRJXjIi7AXQS+CHhk5YmlEU5hO5d72RHCiH+Pmqi0ZSBYVrqDA70JNEX7/MdQXw6UU+m4HTZXx6fceQjKLN3uR0R2dYzg/nFhhRtFxZhgXRvGlU9hXh00VCPlkWijyylvQC69LjrN1m0kjmkQkKQf8yoT8otY3enEdv9wqygP4tXuxvz636YWIiJhMiIhul6pAUfHzB1BbhM+fwIVh80X0/D+PEMia9W7fNPqnb1xTdEOemXtPzC43WmRTXAVBN+5rwi8fwo6aXOuqwqcoaC7Ff38af/hjvN6T3y7/d8RCQ36z0jqev4bnO+eltVuPufWFxG2cmKmpWFeKTx/A+zbLIMRYQkTEZEJEtJSFskvFk5tQVYS/fQOvdudK3kXUytczxjKfv6HMnqj4vk34+C5srrq+ZmxN0FRUBvEnT+IfjuO7lzAwk0dHrFUZcCvEel3YW4tP7MHDrfJ9xhIiIiYTIqKlLzrdLuxvwG+5UeLDkU5MJiAKO015Xfj4Tlkl14bXZGMoTUVFEJ+9BzUhfPk0rowV+oCrCg434VcOYUct3Bp/aIiImEyIiJap9ARUFZsq8R/vQ30Y/3IBw7HF9Mhaget0aagP4ef24v1bULnGT/cLevDBbQh48IXjuDqOtF6owVXD0xvwy4fMTlw86J2IiMmEiGi5i36vCy1l+Pn9qAri749jYCbX3EkUSHZSZHzaW4Nf2I/DLXfCPgdrQ/wTG+V9+cJxnB2S4cQQhTJ/YjX7Cnvwgc34zCHUFsnx5xouIiImEyKiFSpGy/z4+G5srMTfv4FXemWtLMTqxxJFQbEX79uEX7oHteHc2Y53hqAHj6zH5ip84wy+cgax9CKblS05t4ZtlfiFfXioTV7k2trMQ0TEZEJEtOZpau6okw0V+NopfO0cJhNIZRezLX5JMomqwu/CxnL8zC5ZwZf6ZSy5w9KgR0NDMX79MHbU4CsncWEUM6uXT1SzKUK5Hw8049/vlw8DD7sDExExmRARrdoTqIayAD5zCNtr8K3zeKMPo/FVmDxRFdSGcH8Tfm4vNlfJyHSnlsiqCo+C92zEthp8+xy+fxk9UzIQrvCQK2Yv5k0V+NhOPNyGimBuwoqIiJhMiIhWh1WPejTctw7NpXiuHW/2oWMcQ1Gk9Nz+k+Urjl0K/G40hNFShodbcLgF1aHcufJ39oCrCurC+Pf7saMGRzpxfhgdE4hlcqfjL19K0RSzXVgALaXYU4uHW7GrXv6JykxCRMRkQkRUEOWy2Z+3tRyfLMZ7NuDSCF7twukBXBqDsTynaKgKQh5sqcD+BhxowOYqVBfdXfWxS0WpH4+ux/5GXB7BG3041S8jyjLNWSlmLKkPyyx0XzN21WBDpfymExERkwkRUSHyamgqRX0xdtViYBpvmuXyxRFMJJAVMIzFd5RSFKjm5haXipqg/PwHGrG9Wn6tsBeuu3aHgyLv/p56bKrCExvQPYmXO3FqAN1TSOm50zAXF1SsyRlrksStYWsF9jVgbz3aymQI9Lrk/yIiIiYTIqJCrZMVaICmycBQF8bmKnxgM/qmcWFI3s4Oo3/mHbXy9ZpZvLMonvdvxfzHq6GlBDtrsLUau+tQ5kdZgEeM5wbHraFYQ7EPbeXYU4fRGNrHcW52zJP6vGPgcbPz4JUb/p3LgdUhbKuSA761GutKUB5EkfdO6ytARMRkQkR0V6SUoAcBN2rCMktkDWR1XJvAyV6cGZLV81QSU2kkMrmJFCuuKGbPWZeKsAfFXhT5UBPC3nrsa0B1kfxz62adocEt1zfQVJkfSgJoLcej6+WYTydxegCn+9ExjqmUOeYpZIwbB1xREHDJAS/2oSKA7dXY04CWMvjduQG3NpNwwImImEyIiNYkVda80ACPButl+j0+7KyVFbMQuUCS1hFLIZpGIi3L35AHIa8siDX1+m5vbTaNkE0anB0x9+zMRtiLujCe2Hh9KZ0hZBqMmmOeysrRDnkQ9MJjNjTLreAyx5wHJhIRMZkQEd2xdbOqQhXXVwQJIChQ6rv5RyvvLLhpceHQyiqYDYcQMopUBm0GHDwwkYiIyYSI6M4OJzeWvKx/l3/M35HrOOBERAWMu/mIiIiIiIjJhIiIiIiIiMmEiIiIiIiYTIiIiIiIiJhMiIiIiIiIyYSIiIiIiIjJhIiIiIiImEyIiIiIiIiYTIiIiIiIiMmEiIiIiIiIyYSIiIiIiJhMiIiIiIiImEyIiIiIiKiwuDgERLR8VAUuDcpdPw6GyN10A9E0Ulmks0jryOjyrfxPQ46VV4PHvLmtd1zwuRDwQFPk/1XMt+SEAIQwb5BjnjGQ1ZE15C2jIyvkfwJySF2qHG35VoWmyndc5jtytM0PICIiJhMiuhO4NZT5ZJ0H3a6UNIvIO1JGRySB0RiGZtA3jd6I/M9oGjMpRFPy7XQKM2lZGYe9KPIi5EHIfCfoQVkATSVoCKM6hMoQin2slR3RdTmq43FMJRFLI5FBPINkVr4j388imZEPOZcGvwt+t7wFXPC55S3glt+CUj/KA/JbwAEnImIyIaI7IpmoqArKt7asCYQ7gxDIGrIOfnsE3ZPoiqB/GmMxDM9gMCrvqRXDbnibBKIZKFFZCivIvVUVWRzXhlAVQkUQrWWoD8u3LWXwuMyX9vkgMxkiN+xTSZkAh2ZkFJxIyHyS1gFrkPGOd6xHXTwDJZEbcGsWRYXMJyU+GQtrilATRFWRjCuqas5ccayJiJhMiGgtCpov/DtZg5TMIJWVxeXaLf3mVhCldZzswytdONaL0SjGE+ZdcxZpMFs0z0lkMRYHRuTAFHlQGkBTMe5rwuF1WF8Jr2ZmmLu1Yp4LG5Ek+iLomZKZZCqB6bTjoDs3WTdv2FO6TDg9ERlRir0yotSF0VyC2jB8rusxhoiImEyIaM2wlso4KeMSZjJZwyWyQMZAJIETffjxVZwYwGQS8TR0sWQL1QQwk0HMLL4vjuDf3sahRjy5ATtqZQGtKXdduWxt3RmaxrkhdEwgZj6EMkYuHy7JgFuBeSyOrkmcGpCxcEsldlTLR7XKCSsiIiYTIlpDFAVel7M5k6zTiYUCrI91AzMpvNaNb53D6SHMpHP18XLkH93cRJFKyORzbQLfuYQn2/CBrdjfCJe53OiO3yVvzU0ZArG0zCTH+zEZR1Ysz4DPfq2sgXgGkwn0RnBhGA+sQ2tZbrQ5f0JExGRCRGuDW3NUuqWys6u51losSWTQPYnPv4nnO2TxaggYWIk7IgTSBrIpfPsSftiOn92JD+9AQzH87js9mZiZ5NoE3uhF31Ruh4lYqW93Wkd3BL1nsL0a+xtQEzLXdzGcEBExmRBRgVMUp/tMUllMJpAxZJJZA8WxWR+nshiawfPt+LeLuDSGrCEr15W8BgjoZhDKGvjyaZwbxke2454mlAfg0e7ActnquTwWx4k+XByR/6mLVchFcswVnBuSiXR3HTZVoDIIj+vu3e1DRMRkQkRrgKqgLOCoN9dUEmMx85SJtfCSvxAyR53ow79ewI86ZKDC6nU9tmJSNI1Xe9A5iYdb8P4t2Ft/p4UTXWBwBmcGcXZI3lmsaptpIZA1HwNHO3F5FPvrsbkKRV5OnhARMZkQUaFSgIoAXA6mQSYS6J0yG7wWfCYxBDon8C8X8Hw7OiPIGgWxCM3KJ4NRfPsiLo/hw9vwxEaU+O+EzsLWTvRrEzjej+7JXNvlArkw3ZB56UgnhqI42IjKIFs5ExExmRBRYSYTBSEv3GattnAxmTLQFUEsjYpgQZfIuhlLPv8Gnm3HdGpFl285oRuIGzgxgP5pdE3iZ3ajqXRtn8IhBJJZnBvC673mrJpRcA8JIRBJ4tQAJuJ4uA3NJTKRM5wQES2CyiEgomVMJoDfjfoi+xarhkD3BMbjBVfrz7/CVBYn+/BHz+OHV2UsKdj9+kJgOIZvnMMfvYBzg2v4CEurwcAbvXipEyNRmbsKVkZH5yR+eBlvjxZcfCIiYjIhIpLRJOjBpgq4FJsjFGUxHUXHWAGt1ZlPF7L0fK0Lv/l9vNqDGXO2RNxeZlOUXNtZTYGmmm9n/+Q2X3G3VhlFknilG3/8Io73yos31lTfM4Fcr96jnfI2nbzdAc+NOXIHU6rK9Z6/S7JzXZh9CAZn8OOruDAsx98Q/PknIsqP9rnPfY6jQETLFkxkzT0aw5Eucz/GgoVdSkdtCAca4S2wNqxCIJrCdy/id57BVEoWnWIphsWtwqvBZx5G6XfLe+3RzDNJ1Nzdv/3K1hAYiuLyKGqKUBdeG33P5sY8nsF3LuL0wNIcDiPTiCqH3aXKcfCYN/mfc/kEWJKAEs9gYNrcYRU0W2bzWYCIyDHuMyGiZU8nm6tkFZjM2tTaArgwglgaIW8BHRdomLXmV0/h796S2WkRC4oUzL5Cr6LYi7APJT5UBuStPIDyoHxb7ENGx2QCE3GMxzFm3RKYTspbLJNrSZzvwR3WKemXxvCnR/B/Krh/nfxGFPhRjNbOjYk4fnQVl8dsAu0CY25NhrhVBMzgF/Ii6EHILd8Gzf/0aPI7G0vL2Bk134ln5PvxLJIZc9Ij/3Np5radHO2SI7+vQSZPlemEiIjJhIgKI5igpgi1Qcyk7Ku67il0R1AVKqDrT2Zx5Bq+dlaWm4t45V6BrIArg3IQaoqwvw47arC+AkXe2f/9zlfqxexciQAiCVwcxrkhXBxB7xQGZ2RcWcQ1ZHV0TOAfjqM6JFNioRfKQj5UjnbiymJjiXW+Z9iHUj9qQmgqQV1YZr/535QbHnhzQW40Koe6bwqjMfkdn1lUkwPDnGR7vRdBL7ZXywcAERExmRBRQSSTgAf76nB10kFJmsaxLuyrL4wK2ZxwODOAz7+FgZn8IoECqCoCLrSU4mADttdgXSmaSxH0QFNzUygL/WWzXC4L4L51ONiEyTi6J9E5KYvd80OydLYWOAmnpb68I2/24+/ewO89IoNfwXa2FZBh4K1eXB5DRs8vlljzJH436sNoLJY5sCqEEt/1/SQLjjesFV/VRagMYVs1JuIYick02D2JkSiyIr8HgACmU3ilCyEPWsvYSpiIyNkzuRDco0dEy1tr6gZebMevfddc0LUgTcGOKnzpYyj2rf5WE91A3xT+6hV893J+VbKiQAWaivFIGx5tw44ahH1LMFNhCAxO4+wQnrksI8poLO9N4W4Nn9yF33gARd5CnDkRQDqL0wN4qTPv1mdWFKwJYXs1NlWiPLAEm2oEkMrKx8DFYVwexVQq79V0qiIz0vs3ozbMNV1ERPa4A56IlpdVj5X48a8XEMvYFXYKomlsrsC6MvtGw8taIlu9wr50Aj+4glg6j3rUo6E2iJ/Yis8ewns2YEMFAu6l6f4EBUEvmkqwswbbqqAITCaRyqfplgJ0RlDswbaa3DaMgpI10D2Jl7swFs9j+79idjYr8eFQIx5oQVu5jLXaUtw7xYzKxT7UheUN5kH7+fY/iKYxmUBLKTwunhBPRMRkQkSrHk7Mzd9vD6N9ArpdWScE+iJ4fD0CnlWr5ISQaeSfz+IfTmIm5bQSVc0SeX89fvchfGgbWstR5INLXaJYMruT3qXKWrm5DAebUB3EpRGZ95wXyykdXRHUhNBiLjEqHIbAdBLPtaN/yv5B8o5YomB7NT6wBRsrUOqXyXAJQ5fVX9jrQplfpuXKAEZiSGbyu1/RtHxEtZSuZtgmImIyISK6Xp8BeK0biaz9B0czqCvCtmooq1TJZQ0c78Ofv4zJRB5rirwu3FOP33sEe+vh9yzj1gIr6fld2Fwla+UT/fnNnMQy6JnClirUhgulULZOsXyuAxdH8oglqtl661ATHm2TmcStLVeUtTKhW0NlCI3FMpxYYcN50J1IyMhUV7xkMZWIiMmEiGiRBBD04I0eDEbtX9/XBeJpHGxEeDW2QxgCU0n85VFcGHW6dEdVEPDgvkb8+v3YWpPrzLusF27VypqCljI0FePCCOIZp+FEQA5vkcdsG1UAS4ysDfqnB/Bqt9MBV8y5o1I/7m3GPU3mthl12e+INX8S8qC1FFMpRFPygSqc3cGMIQNhZRDFXm44ISJiMiGi1aYAg9M4M2RfQAuBpI5SLzZWwruyHQSFedb7v5zDP57JY9d70IPHW/EfDmF33Yp2YbK2WLSWY0slrk1gKOq0UE7rmE6hIYyGkgI4ftFcx/Xdy3ns53GpqC3C4Rbsq4d/ZcOVosDnxsZyGTYm4kg7Pt8mpZvTJuGVfkgTETGZEBHdmEs0FbrAuSFEHLRdMoSsnjdWoDYs/+6KVZ6GwKVh/NWxXOcrW6rZpvYnt+EzB2WOcq348jNrT0V1EbZWYSSKgRmnZ0Fa65G2V6PEv8rTJlkDx3pwedTROi7r+PyGMB5py53gucIXr8yupqsLy2/3ZMLpthMhkMigKoTywIo+pImI1hCVQ0BEK1PPuTWZNA40wO/gNeOUjnPDONKJqSSwUr3NhbmO66uncGXc6W4HTcUHNuGXD2F9xapNPlhbtLfX4LcO42CD05I3rePVntzOn1XsHi+AwRlcGnG6FE1RUObHo23YUAH36v0GUxUE3NjfgH31ZqsGZ6F3LIb2ccTTK/eQJiJiMiEiurmyAB5sQWPYUcU6k8bz7Xir1/4UlKWS0fFqF17rNY8eF/ZZy+vCY634lXtRU7T6uzVURRbrv7gfO2sdZSRrW/Z3L6FrAtlVKpSFgG7gzKDZacBxBnuwBevKVn/AFUVmbKuDs8MFWgJ4ewR903ns8iciYjIhIloWHhf21GFHjXnchF0NZwh0TOKLx3F1LO9DJBZnYBr/dgnDDtZxWef67a7Gb9yPhpJVWMR1q6r9QCM+tRf1RfZb8K0RPj8i419GX51rNoDuCLomkdYdzdtoCg42YEtVQQy4FU6KfTjYKKOpw54HM2mcH0Iyw1kTIiImEyJa7eq5PCgruboiWdnbSut4awD/8BZGok63Tyya9Xp2xzgyDr6QpqIpjF8+hLbywmq1FHDj6c34mR1Oe0AlsnjBTCbGalTK6aws08fj9mW61YtsRw3uaYTPVUCbNFRVxpKHWlDmdzTgusC5YQzO5H1+PxERkwkR0VJSzK5K9zZjVy08Dp5+DIGsjh+246unzCatyxZODCE///F+9M84qtHDXnxkO3bWweMqrGSiKvBo+OndeKLNUZcw3cCFMRy9Zs5KrWylLGYnTLKGo/vVVIJ7mhD2FdZJ6lZkai3D4XVmC2bbe20uYHurTz6wGU2IiJhMiGiVVYfwgS3yreKsfk1l8aVT+Kcz5nHsYrmSSdcELo7Ir2X7JVwq7mvC+zajxFeIHZasJUY/uxeVAfsiXpjh5Idv59Gxd6liSUZH75TTHmg+N7ZWoTK47AfFLI5LlWG7PuwoNQng6jgGZxhMiIiYTIhotWkq7l+Hh1oQcDuacDAEYhl84QSeuYxEdlnWHSUzODuIaxP2xaKmoiaEB9ahoaRwj8zTFGyuwoe3OmqqKwRe68PbIys6ZyIEIgkMTTttzdxQjA0V8u4UJkWBS8PhZvmQtg8n5rTJxeHVbIlGRMRkQkSUKzSDHnxsJ7ZXOS3udQMjMXzpJN7oXpbt2mMxvN6D8YT9R3o17KnFwcZVOEkjr0JZU/G+LdhYbj/DYJhnm7zQvrJzJmYyGYk5ui8BN9aX5SZMCvm36boybKp0sKDLfDxfHXe0jI2IiMmEiGjZS+e2cvzsblQGoClOa9nOSXz+LRzrQiy9lDMnhkD/NE4P2e9jUYAyPx5rQ13xGoh/zWV43yZzt4ldly7dwCs96Ius3D74tI7hKKIp+4/UFNSFsbmqoGOJ9eBwqTjQgLDP/lIFMJWUI2Bw2oSIiMmEiFa7ioPXhYfX4ye3wq05XZ2f1HF8AH/7Bo52yKJ2SbobCYFUFu3j5unpwuaaXSp21+ChtsJdVjQ/mfhc8lJ3VdsUysJsGDUSy3VnXhnJLPqmHZ2j4nNhRzWKfWvgIa0qqAhiS6XTNYqd40wmRERMJkRUCJWcuabrk/vw9Hr5TKQ4SxHpLE4P4s9fwfcuYToJ47YraQEkMuiacHCGiYKAB4+0FVx7qAXCSU0RHmp1dFZ6RkfH2AoVysLc2NM/7WjMQ15sr3E6sbbqPBq2VctrdpJMOiZXLgoSETGZEBEtRFNQGcLP7UNLKVyq06I2rePaJP70KL58EpGELKlvZyexEDKZONn7rioIumWVXJjtoW4q6MGuGlQH7T8ypePymKOzXG4/lhgGRqLyeyfsJqlUBa2lTmfVCiQNhr2oDTlKJpEkBmf4NEBExGRCRAXA2qi9oQKf2o+qYD6lrcB0Cn/9Gv7iKLomZT296GxifarOSfvDJRQFu6vRVLJmYolVKFeFsK7U/iOzBrqnMbwChbKQYVIOuP3jQ2bX1vI19pAOeVEbdrQPPmFOHHE9FxERkwkRFUYlZ76u/0gr3rsJZf48Fu0YQgaSb13En72EY12YiC3yrEABmW3GEo6q/AONcGlYQ9FkLpk46R08lURvZAWCifzG9U45Ove9yIOG8FqKgtYGquoQ/G77xgPJrHkYPBd0ERExmRBRgdBU1BXjp3fg8TaZUpwzzNrupS785Sv4p7O4NoF0/g2FhcDlYUfL/TUF97XApa6xOZOSANaXI+S2uWxDYHqlkkkig0jSQZWvyCv3u9de2C7xyUBoF0zkoy6aMg/35LMAEZHJxSEgokLQWo5P7UdGx486ZOXqfCt2xsDFUQxH8VY/HmnBw22oLpL5wWGTWQFcGjXnW+zi04ay/JZyCTP2CAHDrFatXROL2C8hP8NsFzLFrNeVfDa6aApaytBYjMvjCwUwa86kKyK/kLLM0WTG7Ktmv3wO2FixyEFbXcU+VAbRN2X/MM7oiGfM9KXwOYCIiMmEiAqDW8PGKvzafbJQe7ETWcNpOBECaR2DUYzEcHEEz3fgp7bh0Y3waLmt6gvXtUKg366CVMz6/mCjfOuwSjbMOBFJoHsSkZT8i6V+rC+D32N/Se/IJEAshd4pjERlJR/yyHSUO3PQcT6pC6OuGO0T0BfMUSkdEwmks/C47F/vn1s4l+/r/cZcMrHj0cyD9tfg1L7PjYogvC5k0zYfmTWQzC5/GiQiYjIhIsqLqqC5FP/5CfzhMzjaIwvlvPaN6EKW7xMJnBvGv1zAv9+HXfUIuKEtOH8iICONbaGsmuf9OY8liQyea8eVMZmadMPc66/IUvVAQ+78eNspHcM8aOXiCI51y1JeNycZVEXGhrYyPNgio47mrGov8iLsdXTxqSxiafO0FmWhvJQVMi91RzAZz/sgc0Ogb9p+kspqKu3R1mTJrprn1ns02J5xnzGQzJiPc0YTIiImEyIqHIo5c1IRxH99Cv/lefz4GtJZm9MP3x1O9Kz8W0d7cGkMBxvwcCt21cnP6VJlHW9NesythhKQHzyVtnvhX5G1ZmXQaeUdTeGrpzE0I6v2+Z85lsFL1zAWx1MbEFhwR40wG1i93o2j3fIKb/gkZwYxlcTj61Ff7GhlV8Ajq3wnpW8qi3gaJf5bfrCVl97oxckBTCfN5Wp5fpfnFrnZPhiK3Gv4kex3OTpGJmsgkeWPPhERkwkRFSRNRXkQv/swgm4824GJRN6fwer+NBTF9y7jxWtoLsaWKplPWsvQUIJiH7wumTRURdbH43FHtbWiyKtyUtzH0/jB22YseVfVbi08uziMEh8ebJH3VLnF9esCF0dwpOvmDZGzBq5NyHjwmFfeHdvJEE2RX9GrIWlXBCfNOZNbvYQvzA7Lz13FuSF5hWLucvP/Bjkp7kPetbfDZI7XJWO2fTLRc6u5iIiIyYSICo5ihpOaMD57LwJefP8yxvJfMiQEdLO+n0rh/BgujePfLsuIsqkK68tREcgtcAp50Rdx1LZVU1AesF9yI4COcXRHzML9ZvWmtdCrfRwbK269PEzIePPSNXPKRdwyulwdx4YKbK2CqtnHqhKvrJWRcpBMMjcvlIVASsfLnTg3bIauZa6mrdVca/UxrMDnbM4kY8jHg2A0ISJiMiGiwn1uUtFShl88gFI/vnUe3VN5dOu6sYg3ZEpJ63h7TN6saZmgW+aTyoAssnUnK4s8CDlbENU5KYv7Ba5WAJMJDM2gpujmu00E0D+FqaTNS+mJjPywtjL71+ZVs1uUx8FL+MmMDEW3ikP9U7gwjIy+QgHV4Qq0wuRzOGdi2E9kERExmRARrb7qInx8F2qL8M3zODmAjLHIfDJXW8+Vg9NpRNPomXpHm6kFVAQcbTc3DMyk7U9HSc0tmrqF8YSjFT7TKTkmTsr8sLmay5Z1YTelC3Qs6sSYRUeToGet7gu3zlt0ORhww1zgZ3DOhIiIyYSICv0ZSkVlCE9vRnMp/vEEnr+GRHYxu65vklJml3s5rzWdFMmK4ugcFcWu+7CTFCSQa4vs5OLn/WvBQhm3HF4hMBbLryHB7db3yhqeM3F68SLXYJqIiHgGPBGtAX43dtbiPz2KT+9HRUDGlZU3mURWOMoAxT647Hrd+lw227srAvapQwVK/Y6WDAkgmnI03eHV5Gjf6uuuwPaS+RedXMsbMFK6o81RigK36rT7MxERkwkR0Wo/T5mHeFQX4ZfuwX95HHtr4XfJfLKSjZsmkrKyFw6iSYVf1vcLXJu1t7vk1j21FHMZm2Z371QV5QFHu0eEebihk/0hPre5u0O5+VWFPfZXtXTBBNH0Wn3EWt2osw4G3KUuFAWJiJhMiIgKjjJb0D+2AX/+fnz2ANaVwLNS4cTaizIes+93qwCbqlAdunXqUGSWaCpBffjW677Mc/oONS30UrqqYF0p6sLO1n2ZPcpSDnZae10I3GLfuarIy3ayd2KpxjyWXqvtdIXZSyBtOEomXtcabo5MRMRkQkR3aThRFbg1WY5/6iB+/xE8sQENYVnEq8u/IcEwk4mTQrnIi4daUGme7ai8q7j3qGgtw/56sx5d8J7e14T1ZfC9q2xVALcqw8/eOvlVnBS1ukAkiZSTOROXHM+bXpmiyCuvCt7yGJYlLu4FZtJrdjWXQDLraJLKpcHP/Z5EREwmRLRGuVSEfXioFf/3Y/i1Q3i0FbUhR9stbq/UNOdMnF1eaznesx4byt8xw6CYdf/2GjzSiqqQ3VOzAp8bT2zErloUzVteZR320lyKh1uxocJpSEhlEU072ry+8JxJ2DwgcoEZoaUVX8uruZK6o7ZpbtUMn/ypJiKyfodyCIhozVGsXRZBfHAb9jfg9ABe7cbJAYxEkTZuecrh7VSahoHRmNNPqygyNpQFsG4MU0nEUvJqQx6UB7CxEmFnR5srCiqCMoE0FmMkhukkDCE/SdiHllLUhvPY8hFL2zQpnuNzLXSKiKKgrVyW3W/1omdKBh6R/xnwArm/tfDfy82ZmB+srMVk4nDORJURlKu5iIiYTIhobYcTxdyP0VaBplIcaMTbIzjRj1e70D4pi0KHFbBDhsCFYaefSjErzuqQjBapjCxSVQVe102WZi38STQFxT7sqUNKz50ULj+JO+9t6GMxebNNJpqCIo+5IVtZ6H5trECpD/3T6I1gOuWoZdkNkSORxeC0zfVYxf1oFPXFa69wz2QRSThqhuYy50yIiIjJhIjukIji1tBQjOoi7GvAR3bg6hiOdOBYD8YTyJpTKLd5XoQwt2q8NSDLzaqQoxNL5mp9v9t8Udy80MUV2IqZaubOScy3TBcCPRF5W3g1l7VYq7HY/t4pCipDKA1gQ4Uc3nynpwyB8Ti+diaXHhf+yCvjqA2vvYNNplMYnnHUNdilzT48iIiIyYSI7oxwopmHQvhcKA+gpQyH16FzAm/14ewAzgxjNGaeZzd7jKBVTM+tRBLO6ulYBqf78dgGKFoepeSSVNUKFrmkSQjEM7gyhmG7ORPFnJ9pLnV0MVaHMc+i9vYYQibJoAeRpM3QC4HLozjcbM4RrZ3iXUDeNSdr/xTzAJkiD1dzERExmRDRHZlSzKPrwj7sqMW2akR3YHgG3ZO4OIyuSfRMoX8GGQMZPfd6vzATi5OtKULgWDceajOPelwjpaQhMBqVd9x21kgFir1oLFmJq7IarMlkYmc0Jm914TUTTATk42osjsmkXRQ0+w3UhKCyEw0REZMJEd3B4cRqvAsVpS4U+7C+Ag+vx3QS/VOyUh+NYWjGPOLD3AQSy+DsEEZi9ouLXu/DRNxcX7RGhkIX6J9G+7j9R6oqKoKoKVqh6NhSgksjdpvgAd1Ah7mga60QArEUhqYdTJiYK/0aivnzSkTEZEJEd0lKMRd6qeaTXWVQFt/zC1/DQCorg8pfv4pvX7JfXDQSw+mBtVQoJzO4MIy+afuP9GrYWoGgeyW+Iy5VjqHPZW7rX3DAdeDaJO5thqatmWQSTWNgxlFCK/KiuoibTIiIruMsMhHdFfnE2h2hzrtp5rmNAY9MLG0V9gWiAcQzeK4dkcTtbqlfGYbAZALHuh2d/u7R0Fa+QiuLrKK8tshBLwGBkSj6ItCNtfFIyxronpTDbv/bV0FjMUIe/nQSETGZEBHNFoh+NzZWoMTumBEhZIl/chBnBtZAoSyErJLf6sOpQfvGvoqZTFrL8+5HvGg+cyGTbTIRQCKDkwPybeETQDQtr9bJSSaqgpayPPq8ERExmRAR3QXPg6qskrdWweWgTByN4rtvYyxW6HfKEIil8b1L5nmFdl25XCr21JpzJitVKHvNTfB+B4vHsgZ6ptAdgSj8KKjj3JCjo2MUBT4XmkuYTIiImEyIiOaXiUB1CLtqoTl4RkyZ1ef5IVn6F2ytbB3A8szbOD5gv/DMOhDm8fUrehi5pqLU/45tPwtU/JNxXBhGLLXUR/sv9ZhPJ/Faj9nnzW7AVaC1JL+TN4mImEyIiO4KRV7c34wN5fYfqRvomMBzHRiPFW6hbC08++Y5cxGUbb9gBRvL8HDbir5+rwAlflQGoThLWf3T6Jy0OSxydekCx3pyR/Xb3nlNxcZKcPM7ERGTCRHRjTQVreXYVAGXalMuWoXy2UGc7HdWhq5GLJlJ4euncX5U5ij71+8VPLURQc+K1smKgqAbjSUyEzpJRJMJXBxBJFGgaVA30D+FM4P2EybWmJf5samSwYSIiMmEiOjdT4UKasLYX48Kv6MFNlfG8YXjODdoHtdYYPcla+CFdnzxODK6gypZkVXyw21wayu9skhR0BhGU4mjRXS6gavjuDyGlF6I4WQigVe6kHZ2bS4V9zStwoATETGZEBGtDQqwrRqNzgplQ+DEgKz++6YKq09XWsdbvfjqaYwl4OS63CoebkFj6epUyaUBbKlEkcfRmq5EWt61t0eQKaQ0aLVmfr3H6WIzTUF9GBsrZBhmMCEiYjIhIrq55jI8uE4Wyk7qUd3Ay934+zcLaNpEABeHZF66MOLo9XsFaCzG05vg0VanStYUbKhAfbGjc1QEMBbH0U70TxXQtEk8g9MDOD/sdGmf3429debaOeYSIiImEyKiWwl68MGt2FkNt2pfOAoglcX3LuNvjiFZABtOsgZ6JvGNs3itF0kHRysq5j7sR1qxo8bRNNFyUBQEPNhWhaDb0W4TITAax7NXMRZb/cMuhUBGR8c4Tg4glnZ2f4GmEjSXwsXfvURETCZERAtwqWgowU9ug9/t6MlRF5hJ43+fwQ8uIWOsWq1sbcqfSuJ7l/CDK4imHV2JpmB3DZ7ehBL/ap6qoShYX4HWUmfJBDAMDEzj+Q55N1exVZcQ8qsPzeDNHkwkHA24FcO2VqHUzwkTIiImEyIi2+dEBU9swgc3OZ1GMAxMJPFnL+Mbp5FcpXPKDQPTSXzlJP7qNcyknP6tCj8+uAUbK6Gqq7nhQQG8LhxolElJcRzD3h7Fdy5gNLo6p8pY5+t3TeLbF9Az7XS6TFPQUmqefK9yhwkREZMJEZFtoazAo+ETe1EdcrTkRphto8bi+Ns3ZTYYiznqiLWEJXJGx3AUf3MM//NNpHVH0wjWfdxbj8Mt8LtXv0pWFTSWYFetfcvm+cGgfRzfexudE0hnV3QpnSEQz+DcEL59HqMxp/0PFCDsw5YqlAUYS4iIbkn73Oc+x1EgIpqrIBVFFpEeFWeGnE6DCIFoGpdHMZNCfRgl5nKd5S5ABWQsuTqG/3EM/3Teacta6/CWxmL8wj4cbCyI1++tC6gIoDuCmXQeqWw6KVNZyCsHXFupOzKZxIk+PNuOhONEZJ2yv7UKBxrhZbNgIiImEyKiPMIJUFuE/il0TMBwnBOSOtrHMRpFsRflAbPoX558YpibHEajeKULn38LL5knaTjc5aIoKPLifZvwwa2ypi+cItnrlhc2FDXbCTj+W9E0xuLyTvlc8LpywXI5QqAQSGYxMI03e3Gi35wZc3yVbg3ry/FAM8qCjCVEREwmRER5hRMFfjdKfLg6hlHHbaCs4rVjAlfHkUjLur8iKFOOstRVciKDswP4p3P4+hmcG5FfVDgOXZqKR1rwq/eirriAqmRFgaqgyAeXipEoEtk8RiOWQv80xuPmZ/A66quWdxQ0MJnAmQG83ivDp/MBt+5aTRBPbkJdeDU7DRARrY3fv6IAT9MlIlptVsn7Qjv+x+u4Mi5Th3BciWoKSn3YUIGnN+CBVjQUyzxw+1WpLpA129Q+exnPX0PvFGbMNlzOn8VdKnZW4Y+fwoZKc8d5gRXKhkAsjdd68IbZ+Nj5/bLGvMSPuiLsrTPb8mryT273MSDkJWV0nB7EhWGMxBBPw0AeF6YqMk5ezw4AAEjoSURBVKB+YDM2V3LjOxERkwkR0W0UyokM/vcp/N2bmEjk3aPWpaLEh101+KntONiEsM+cGUBuiZeT81JgxiErewhgeAZHr+FrZ2UmmUrmvc/eyktf/piMTC6tQKtkAYxE8aOruDqGbJ6H61szQqV+bKrA9hpUha7Pnzhc5TU35rnlWxn0RHC8H/3TiKbz3mdv5aWnNmJfvXmWJXMJERGTCRHRoqtkmI2Y/uwIvnle1qb5FsqKIvOJW0NDEfbX41ATDrfC75IFtNWH6lbVqvVqvW613prB6914vQev92EmLf9EF3mfnaKY50j+tyfxxMZCr5J1A/1T+P5lmQdEnk2BldkTJDUFFUFsKsfmKvmONWe10ICb/xjmwq1kFn1TuDSC9gkZTXXzpJpFHFbj1nCwAY+0wufmOi4iIiYTIqLbljUwlcBv/xDHuvPYaH4DTcmlkWIf7m2UBWtzGcoD8LvlH2oKVDV3eJ9uyK8YTWMiho5xvNaNs8OIpJBdVCCxuFSEPPj0AXxiD8K+JVjmtNyBUAhcGMJzHeYhhsYiuzBbUxaairow2kpRG0bIC59Ljoaq5GaurARomG2IYxnMJNE9iY5JRBK50V7cb0jVTKSbK/H4BpT6C33AiYiYTIiI1garUO6awH87gle7ZP266EJZmbesaG47SoVfRpQSv4w9E3FZi4/Gza8yb1mRNYuy6CfrujB+eht+Zjeqi9bMi/dZAxeG8dK1PDoQ3GTMcb0DgfW+S0XAjZAbQS88GuIZGQLjGSQy5leZHeS5ZV2L43djYwUebEFNiIu4iIiYTIiIljScZHXMpPA3r+FHV9E3s/hX099dN+d2nig37ipZgud380TF5mL8u9344BYU+x2dHVkoY27OIHWM4eVu9ETk+0v1y2ouIuYSCJZswK3ZkoAb26pxTyMqzVVkRETEZEJEtPS1cjKLfzmP/3US7eN5b4hf6Sd3czv4gXp8ci8ebEHIu1bHvHcKr3TlevUWviIP9jdgbz3KA/yJISJiMiEiWqYq2TrrPYWjnfjicZwZWuTG6BWgKnBreKwFn7kHm6vgda3VHdjC3BA/HsPJQZwZlINfmAOumGNeFsThJmyqQsjDLe9EREwmRETLXSubMyevdePzb+L0EFJZc/1V4TynK7nt1+/fiN84nDtK5Q4Y85m0TCav95jtkgtpwOfGvK4IT21EXRgeF88tISJiMiEiWqlCOaWjL4Jvn8M3zstaOWsUSq3s1bC+DB/bifduyXWFujN2YFsnHl4awQsdiCSXctvJbVLN9l9bKvFoG8oCd86AExExmRARrZFwYuWTLF6+hi8ex4VRxDOrtrhr7uCUkAeHm/GZg9hYCbd2By4oyhqYjONYDy4My3BonTSyOr87rdbAGioC2F+PrdUIenJ764mIiMmEiGilWYchTsTxz2fwrQsYisp8svJUBUE3NlXio9vx8HpZK6t36Cv3YvYEkp4ITvShcxLTq7HzRIHMJOUBbK7E7lqUB3MN1oiIiMmEiGg1a2XDPKTvRC9+3I5TA+iblvlkBZYbqeaJKMU+NBZjfz3euxnba3LHn98NY57I4OoYLo2idwqx9EoMuDK7paQ8gHWl2F6NppLc6fJERMRkQkRUQMZiuDCEI5040Y9zI9CN5f1y5X5sqsSD67C/AVurEfDcdUuJhMBUUoaTq2PoM/PJsv4+c6ko9aGxBFursKECbo0PeSIiJhMiooJkCJlGJuLojuD1Hpzow7lhRM2X85dkC4qq5PZbl3hxoAH3NmFnLdaVykxi/a+7jXVSe1rHZAKjMQzOYGAaw1HEZ6dQbnPIrRkSa2KqLoz6MKpDqAwi5OVOdyIiJhMiojVRMQsZSAamcXZQ3q6M4co4ZlLmNgnkznp/R3k99y9l7s314liZfac2iPVl2FCB7bXYVYvKEAJuDvb1YUxmMJNGJIGeCLom5fhn9JsN9Tvew/wRv2HkizxoKkFLKWrDKPIi6IGH8yREREwmRERrizVJks4ilUVKx3QS7eO4NIxzQ7g0iph1Cop5M5B7B0qu45Oi5HZUKwqKvdhTg63V2FKNljIZRTwavC75VuXL9u8KhGK2v3BGx1QS3REMzmAijukUknNjjuvTKcrs7hFldsBDHoR9qAiguQT1Yfg9cKtwqbn/y/EmImIyISK6E4KKbiBrIK0jksBYTFbM4+bbsbj8E4+GMj/KgigLoDxgvg2i2AfN7Ahs7bRmFMkrqBizNwE57NGUjIgzKRlUYinoAh4XirwoMtNIyCvfV2fzoXXjgBMRMZkQEd1xhTJyzaPm73+YewIW85cSzXttfu4VffAF+0WN+U3Wzr37l967xpYDTkTEZEJERERERHcplUNARERERERMJkREREREREwmRERERETEZEJERERERMRkQkRERERETCZERERERERMJkRERERExGRCRERERETEZEJEREREREwmRERERERETCZERERERMRkQkRERERExGRCRERERERMJkREREREREwmRERERETEZEJERERERMRkQkRERERETCZERERERERMJkRERERExGRCRERERETEZEJEREREREwmRERERERETCZERERERMRkQkRERERExGRCRERERERMJkREREREREwmRERERETEZEJERERERMRkQkRERERETCZERERERERMJkRERERExGRCRERERETEZEJEREREREwmRERERERETCZERERERMRkQkRERERExGRCRERERERMJkREREREREwmRERERETEZEJERERERMRkQkRERERETCZERERERERMJkRERERExGRCRERERETEZEJEREREREwmRERERERETCZERERERMRkQkRERERExGRCRERERERMJkREREREREwmRERERETEZEJERERERMRkQkRERERETCZERERERERMJkRERERExGRCRERERETEZEJEREREREwmRERERERETCZERERERMRkQkRERERExGRCRERERERMJkREREREREwmRERERETEZEJERERERMRkQkRERERETCZERERERERMJkRERERExGRCRERERETEZEJEREREREwmRERERERETCZERERERMRkQkRERERExGRCRERERER3DBeHgO4YQoi5t4qizL1dGbqu9/YNRKamDfMC5FcHAgH/uqYGj8ezkldCyyqVTvf09g8ODRuGMfeHgUBg+9ZNfp+P32haK8+WQ8Mjw6NjYu4JC1AVZfPG9T6fl+NDREwmRIuMIhbDMBLJZDyRSCXTqqp4vV6fz+v3+VQ1NzG4rCWjEELX9aPH3rh46UpW12e/Ihrqaj/x8Y+Uut1rvWCdP9RzbudO3ewTro1BSiaTJ06dPfrq65lMdu4Pa2uqmhrqfF4fg4mTR85a+n7foQzDOHfx7ReOvKrr+ty3yKVpv/Xrn2UyISImE6L8ah3DEIahxxPJnt7+q+3XRkbHovF4Op3OZLK6riuKommay6WFgqG62urG+tqmxvryslKXy6WYlueqMDEZGRweyWazc4WX1+vVdePWtdnaqGCmpqenpmZ0Q59fU/q8vqrKcpdrMc8h0WhsIhLJZrPzy1af11taWuLz+dTCLliFEOl0OhaPz08m8UTSMAQgzKkyytF1Y2h4JJVKCdz4M+DxeMrLSgv/230Hi0ZjQ/L5Sp/7MXS5tLmnLyIiJhMi+6LQnJ0wBoaGj588fely+8joWExmkoz5yt+N1Y+mqebkia84XLR188ZDB/Y21Ne6XS5VVZc8nwjz6gzTXPku/whWwbqMAzL/fisKljZ9GYbxxvHTLx59NZ3OzP2hqiot65p+/mc/GlpUMrnS0fmDZ5+bnJyaH9pqa6p+4v1PtbWsg1bYpar8Tls38Y5gCsGf0BsjXCb9P7/wj7F4/N3hvKQ4/L6nHtu9c7uqaXfDs5a50nS5fkgX9SiGkXuJx5h7JBuGykcxETGZEDn9BW8YYiY68+xzR599/kXrpT7r9+qtFo3oupFIJJPJ1PTUdF//4ItHXt21c+uH3vtkbU212+1a64tJDEPoelaXjHmZQXW7XaqmLdVL0UKIWDw+Nj6RSqXnf5XSkpL5Gy3ykkylxici4xMT5jxDjs/nTaczgpXRncIwjKvtnX39g5mbvQwfi8WutF/bsW2L645OJkII60dU1/V5yURxu12aps2tNSUiIiYTWku/3a36+PKVju8/+3xnd28mk3FYFlt/1zBjSiaTOX7izNX2ziceffDxRx/0eb1rOpwIYbRf6/x//+5/ZbKZuaJHc2mf+NhHDh3Yt1QzD8LKhLqh6/r8P56NhIsOmYauG/O/ibnXbgWTyR3yM6vr+skz56y6/N0fkEimevsGIpGp6qrKO3ocMBmJ/Oc/+ctMNiNmc7iqqh9473ueevwRIQQ32xARMZnQ2qtypqZnXvj/2Xuv6DiuNM8zw6b3QCKRsIQlQdB7iqRsSVXSVKurVNuj6e7qme7emTlnzj7M0z7t8z7u2+7Dbu9uT+12dU9VTVl5UaLoRIrewBDeJNIhvQ1/7xxEEGBkggASSQAEoO93VCweEBkZceOa73/vZy5fv/jN1Xw+r1qwNdqvsqKkM9k/fPx5396ePe2tO1yZYFmWeV7gBWHphwxDS5KsajHYjgVeJiWOH3oyutJQRQjFE8lgKLK7lYnBgBVZ4YUFlk4IKZIURAlhDEMUAAAAlAmww4xvjHEmm7t09dtLV65ns7kKQ4cgCJIkaZqy22xms8loNLIMgxASRJHnhXw+L4iiGvqBl3IKPw2gr13dPB/i6f08yzik/T+xue1jUB/l2fGF+lc4dgBe/sidnJ5Jp7MrDTOMcTqdDYUjhw/upzYh7msbNYVhYYBqER1Ls5bhZQ9TQvuP0KYp4tkkBkc4AACAMgGAVeAF4ZtrNy5+fSWbyy+XJVarpbW5qaujvbmp0Wq1mE0mNR2WwvNCieNS6UxwLjQTnJsLRSVJwpvrKUQYWdZkMsnys6zBxqcOY7DaA987hoZHRUlcRZmUOC4ciebzBZfTAc31EpZ/hlbnK/lZ1mCaAu8yAABAmQDA88Gq89WV6999/c21XL6gN3EIgmBZtqO99fzZU+1tLWr6USOpS3ezFB2RLxSSqfRsMHTz9t3JqdkFfbIZooQgaJr64Q9eP3PyGMJLsROE1WJ22G0kCYs98H0auRiXStzE1Iw+Iy1Jkh63K18o6FMpRKLzsfm4w26jdnuGru0GSZInjx5ubW7Sn7KSBAkqEQAAUCYA8HwQQvPz8Y8/u5jOZPWh0mpmG+bU8SPvvvOG31dvNBpX6eBGo8frcbe3tvR2d9659/Dy9ZupdGYz9gUpiupob4W3BgAIodm5UCab0w9bq9Vy+MD+R4ND8/Hk0g9j8/FoLN7R3grKZIshCKLR39Dob4CmAABgWwEBeMA2BWMsCuKvfvdRRWwJQRA0RZ05eezn/+ZnTYFGlmWrWYNZlmkK+N/94Zt//zcftrc20zQFHtUAsEkoCI2OT5VKJf0PGxt8x44ccDgc+n0BjhdmZoPFEgeNBgAAAIAyAbavLEEI3bx9d+jJqKIrBKZ6QtN7e7v/+sMPLGYTTVXrFa1VhTcZjfv29vzHv/95T3cnzdAgTABgM+A4fnpmlucF/QBs9PuaA43trS36UkIIocmZ2WwuD40GAAAAgDIBtq8ySWeyl6/dLJW4Cj+uQGPDX/3FT0xGY21FymiKCvgb/uPf/XW910NAmTMA2ATCkWg8kVR0qagYmm70Nzhdzt7uDiNr1CuT4Fwknc7UXLUTAAAA2E1AnAmwHVEQGhgaSSRTFbKEZZhzp0/66utIqkZRoQbJE1aLBZy5gM1GSxSrJarWgoy17qelatit9b8xxsFQJJnKYJ0ycbtdDb56mqI62tssFnOJ45Z+WRCEqenZ3p5Os8m02YmhsJpgG5clEV+YCLRc34uvhYD8VJv6CrQjcXVIaBmVMUksvgHy6ejYyleAnvWJp/1i6W5IchNv5mlTaP9Tm0JzDnj6hYt/EFveIAAAygQAKikVS8MjY8ViqUJUNDc17t/XY1qwYF7o+rtjlsdr/SssZS/XAstks7PBUDaXL5aKHCcQhMFsNlstFrfL0RxodLmcu8/awBhzPB8KR/KFAnqWlYuor/P4G+oNBoPb7WxuCiRTaf1HnoxNvHr+jNFopDa5QUocNz+fiCdTHMdpJUpFSSLVLQ+jyehyOuu8bq/H7bDbN+rV4NpH8O4cFJIkxeYTsXi8UChyPM/zgiTLRpY1GY0mk8npsPsbfPV1ni3LiIAxLhQKs3PaOC2VSpysKCzDms0mj8vZ3NTo8bgZelMsJZ4XUul0MpVOpjMcx4uiKMkyYSAWmsJssphNZvVPp93udruNRhYmVQCUCQC8NILhSDAUlmRZ/0OGoY8c7K+r87wUcw4hnM5kHg89SSRT1X/K7XKePn7UYjHXZuiEI9Eb393N5vLoeUUhEEKZTFZfjsBgMCiKcu3bW+PjUwS5Rh0VgjBQFHXoQN/hA/t3iomcLxSuXP9OnxSBIIimQOP5syerP4LQrOe79x/NBkNLPyRJssFXd+Rgv9vtemHbS56ZDQ4MjUxMz8QTqhEsCJIkGQwEyzJGlrVaLL56b0tz08H+fS3NASPL7przE4TwfDwRic7rTztpivYtWJse7e/9+3oeDQzpPzU7F0ql0k6HY8P9izHGCkIcx42NT01Oz0ZisVQqk8sXNCtQlmRZWbAFKZpiGMZiNtvtVpfT2dIU6Ona09rSbLWYqbWC2VLpzO27D8KRqILw8zsbx4nlxZQQQvcePE4k0+RipcMVB6naM7u79pw5eWy9xno+X3g8NBKdn6/eU44kyB+8ccFus250r0AKQvPxxMPHw8G5UDyRzOZyPL8gCyVRQhhR1EL7swxjNpvcTqev3runva1/X6/L7axNFSgITU7NXL95W5EV/Kwfkm+9fiHQ6CdJAiEkK0o4Eh0cGhmdmIrHEyWOF0RRFESEEEVTLMNYrRavx93a3HTsyMG21mYjy774PIkQkiQ5kUwOj4xPTE0nkqlCoZgvliRRlJUFCANB0zTLMuwCC21iMZvr6jytzU0d7W2BQAPLsBRFkuCKDIAyAYAtNG7Q1PRsLBavWFA9bnd7W4vJaHopd4UxSmeyN27dHRufqvIjBEG0tTYf3L/PZDbVthmcTmdv3X0Qic0jRXnOLS02V8WS/GR0/MnoOFHF7TEs43LaD/X37RRlUipxN767G4pEEMJP61iT5OED+8+dObGu6wiC+Ghg+NbdBzrrmdrb29XV0f4iygRhLEvS9Ru3v7l2IxqdL5ZKFXUGeZ43GAxxQ3J2LjQwNHL/4eNzZ05eeOW02WzaHQ4bCKFoLB6Nzet/aLaYW5oCRiOrJqIg+/b1kGVPumC7PxmdaG9rMRioDdQkC7JEUUbGJi5d+XZqJpjN5nhBeL6ZrsbqZzJZQ2RBCQwMDt+45WxraT5z6nh/X+/qJmmhUHw0MDQwPKqU76Tox2nFl2KMp6Znp2aCRBWTCE1RCCunjh9d7ylCoVS69+DRo8HhpdqvaxsENHXm1LENVCbaWyiVuJt37l25dnM+kSwUiory3Pt56uA3GwzRNH3v4cCtuw9ePXf60IG+GqS72g/nr1y/KYqSYXEMMixz9PDBRr8PIYLj+G9v3b1+41YkOl/Qne8t9YeiwZDOZOdCkdHxycHh0dfOnz576oTZbKpZEmDVc00QxctXb9y4dVdrCvm5fUZQv77svdBWi8XptPvq6vb2dJ06ccTrcYN/FwDKBAC2xLLBOJcvhMJRjucrrDp/Q/2LRJhsiNUlCqJmXFapTERBrYFda+15bMBqqAJS1hMfXOUWKUkQSHP33jlgbJBkWd1nfVa/T17BIlwdWVHUc4xnjaaePr1Aa+AF0/aLry5f/+5OLpdHirLK1RBCHM/PzoV++8dPHw89+Xd/+Rder4eidrypwQtCMBTO5ctybdkslvbWZs2kIwjCV1/n89WFwlGto2JsUBT0cGDonbde3cA7kRUlGo394eMvB4efcBwvKwoqz/K3yqspcTwviIlEamB4pLOj/T//p/+RZZhVXrwWULS+QVrdtEAQhEIQtXVLjLAoSjwvVD9AaJrCGzohyIoyPRP8/UefjY1PcTyPVNb8lKIo6Uw2ly/MzM4dPbT/3Xfe9Df41ivdtdgR/Uun1L8rCioWixe/uXrpyrcLMgkpq8+BPC/Mzs395vefSJL85mvn2FpPThBC4WjsF7/89fRskOeFKnvjUoPk8/lCsRibj09Mz3g8Lo/bBcoEAGUCAFtieiKczebSmUzFrE0QhN9XX+f1kC91On4WpVj978NL3fA3YDAsBqoaajWktDeJy39Su+M/wqjIlW7cvnvxm6uC6hCy1G/1BgTWfSnGWJaVolIaGBr5P/7hv/xP/+FvXW4nvcMLDuZy+enpoH5TnCAIu93W3NS4pEwokurv641G55daAyE0OTWdLxTdLvrF3VRUkamMjk/++rd/nJqde67gXHwtC3/gxdeh/1P1rFFESRoaHll4nNWUyXYW8hjjdUxZ6tDaqO9eaMOJyenf/O6j0Ykp/S5AxSswPGv/p3e6FCWfzWUvX/9OlOSf/PiH9XV1FEWu0xzHy5sjm8t99uXXl67c4Bb3mBa7AqHvA/oHkWWlUCz++vcf2+3W0yeO0TS9XlUgy3IkOv9//eMvp2ZmlWV7FkudcbE9nt2JPlODQf0gz/HissYEAFAmALB5aynKLCiTXMXEbbGYfb56k8n4vdooIgwESZIUSa4kcPDzTkhIkqymjRYureaegV734kiSPDA4cvXbWzwvYN15jsVsZo0sQ9MIIUmWSyVOKg85UO0eeWom+P/91//24QfvN/p9O3nw4kw2Oz0bVJRnwoxlmLaWJov5WagVQRj69vZ+c+WGvChgFhpBUR48HLhw/syLe7XxvPDg0cCfPrsYnAstZeEqGyAEYTQZjSxL0zRFUZoNLcmyoEY+VLwdvLZeJUiSoEgSr6CpnjtItRRtVYzShSvvxElPkuXJqenf/vHTJ2Pj6HkROCzLmkwLY4MkqQURKEocz1fISO2Q4+atu5Isf/jBn9XXeV+oKdT4+0cDw99cvSmI4tKLYBiGZRmaohWkqDkRpOV9Ro0PkX7z+0/2tLcF/A3rvY1YPPHPv/n9bHDuubKEVRMA0DTN0BRJUQaD1iEVQU3SsILzGwCAMgGALQEhnM3lsrlKZWK1WBx220tcoQmCsNmse3u6HDbbSsbH9Ewwk80+dxmuDZfLcezwwWwuj5/nAoEQSmezQ8Ojsm7pIkmyp6ujwVe/tn2nVp9sbW4Gr4AXJ58vXL3xXSKZwhiTJEGSVGODryngb2tt8XpcVotFluV8oRgKR2fnQmrqqmfe9po4GRwe+erytZ/8qx++iC/7y5UloiSFw9GK/ARGk7Grs13fxwiCaG9tdjkd0fn4s48jfO/R4NkzJ1/k1GjhHkRpYPjJHz7+PBydXxJIS0rAouYe8HrczU2NHrfLbDabTEakII7nSyUuFk/E5uPpdEZN3sUvvqA1hrPVaunv2+t2uZ7rp4QxLnHcvYcDepNUbYGWlubA2psIhBoB39lR3W5DGSaTqaujnaKo50apIYwj0flobH4zKskghFKp9OdfXX4yOlH5FkjSYbc1BfwtTU2N/ga73WoysiWOz2bz4Wh0LhSZC0c4jlv6lKZa795/6HY6Pnj/PbPFXPNmCsJ4di783Z37HM8TBEHTdJ3X3eCrb/Q3LHQGk1mUxEQylU5nkun0zGxIlmV94yzMt6q75l9/+AFTtX5W82KLt+7cn5ickcp1F8swLpezwVff3trs9XqsFovVajYZjRghjhdKHBdPpuYXOmQ2kUpnMtmnagpmawCUCQBs6U6bJKXSGUFXPXpRmZjtz5MEWwZJkn5f/U9//KOV7A9BlP7hF//88NEgQvJGfWlToPEvfvrjldtKHhoZHR2fVJCytN7RFHXhldPnzp6svkA+8OIIohiJPg37Zllj/76e1y6c7e3usurSsmm+GZHY/O27D7797k5wLqw3eorF0qOBoX293Qf79+1QZcKVuNGJKb3XvransKe9rWI4m0ymzo49sXhC79s2NT2TSqUb/b6a+y1CKByJfnXpajAUqdiZpmm6scF37MiBg/19Lc0B/RmO/hHyheJsMDT0ZPTx4PBMMCRV4Tbj9bh/9PYbK/2roiix+fjA0AiviysgSfLY0YN/9qMfUBRdg+Soel/D+aO330Ar7LjLivLRZxc/+fyrdbl7VdkTJFm+/2jgwcNBWS5rQIqimhr9586cOHbkYH2dl9bl3dL0+Vwocvvew2s3bmkif+mfFFm5euNWx562MyePGWrVrgihK9/eTCSSGGOzydTT1XHm9PG+3m6P27U04jQhMReOfHXp6u37D0slTn8b2pFLIpHU4l6q/NJQJDowNFIRfEVR1N6erjOnju/r7dLOgp57QVmW05ns1PTsxNTM+OT01MwsTLYAKBMA2FJ4QYgnkqjyvNtgsZgddtvLvTeSJFmWXWkVJwiSJLbUoCSIFbbP1J9vqixBCCdT6c8ufmMyGmv4+Exwbnneql2AVuz87Kljb7/5asDvr0g4q/3d76t/87Xzbpfz0y8vzYUieleNeDx589bdgN/X6G/YicokVyhMTE5XNEhLc8DtdFb8kGWZnq49N767/ezjBsxx/PDIWM3+bNrpxOdffTMyPqnvWiRJsKxx/96et94439HWarVayBX8owiCsKvnom2tzf19vfcfDty4dbfEccQLbFMTK4xSwrDpdZW0Oi14hay7tKKowoDYhMkBzc2FL13+VpTEpfegpWVrbQ789P13e7s7lytDzauqtaXJ6/U0Bfy//t1HCwvB4jYQNhg4jv/sy0sd7W3+hvrapDvGOB5Pqr7BphNHD7/95qtNjQ0Mw1QMUqORbW9r+eD99xp89Z9+ealQLOp3o0ocNzg8Wl9XV+U9KAqaDYYi5dnqGIbp7mx/74dv9nZ3LtzAyvKUoiivx+12Ofv29kTn4xOT04PDI2ajEXadAFAmALBFSJJUKFbarISBsJjNto3Osl+7qfG8Nc+wRmWCXQXGC8rki4vfEDXt+MqyLIrS7lMmFEnu39fz1mvnW5oCzzVcVPuMstusx44cLJa4T7/4Wl8eR5TEweGRo4cPVL8ju31AGM/MBNPZrN79iSCI/Xt7KLpSoTE03drSZLGYlwa7lnVt8MnI6xfO1tYhFYQeDQzfvvdQFCX9d5EkdaBv70/f/1Frc9Oa1qTq5ENp+qQp0Bho9H928RJBEjtaLa+4sbFZ2xbo2s3b0fm4fnwTBGGz2v78X/3wUH8fvXKJEm10nDh6CCH0i1/+Zmn/QosFCkdjd+8/+uEPXnuB1L2Yoem9PV3vvv16S3PTSgKVpqi6Os/5V07NJ5JXv/1Or0xEQXwyOv7KmZMMU5X5VOK4uVC4VCqrGux02E+fONbd1WFca2dHO0shSdJmozutlraWpgP9+6xmM5gKwC4GivUA2wsFIUmXgX5pemZYBorgbq83pSiad34N/+1KWWIwGDwe9yunT6ql3NaYWi1m89mTx7o79+jPVTA2ZHP5yamZfKG4gdFKWyRWEX48NCLLiv7FkgTR19tNLWuNpwm7mgN6LxqEUCgcTabSNUQ+qBEm4pdfXxG0PN2LtjdJkg31dX/1r3/SHGhclzmrnp/YTp88+p/+/b9jdnjCtC0VqAiXOP7WnfsVod4kSb752rn+/XvXrBepRYAc2L/vzMmjFRpGkuQHjwcLhWLtOs1AeDyu186faawiit1ut504esjjdlasUKl0Jl/umrUKPM+nM1mklHVpu83a3trMrjPhm9Yyfl+93WGHMxMAlAkAbNXCpiBeFJcbZTRF0RQc8W0zY/QF2H2tQRBEd+eefXu7q9lMJUnS6XQcOrDf5XToA1EQQmMTU6lUGmO0s3qCosiDw6N6UUGSpFa6hHiel6PVbO5oa9GrBYxxsVgan5yuTZkMDA7PzM6Vdy2CZZm//vADr9dDr7OUuLpRTZhNpraWJgqUyTqUifLw0YAqrct6gsvhePuNC1WWUSdJ0ma1nDl1wuV0lF8cxRNJ1VuvxhFK0VRHe9vhg/3V9AeKohp89W0tzRU9rcRxyVS6yi8VJanEcRUJ3iwWs6++rgZ1oZ2fQEJFAJQJAGwdCkKiKFacmZAkwdAMzMbA9p1JScLhsPd0dbhdTqK6vXmCIPr39fjqKx3W50KR6Hx8B6UKxXjBZHwyNpEvFPSFXCiKPNDft1J2XJPZ1NrabGTLto05XhibmKq+ZvmzeUNRvr5yQ5LLzuIIgjhz8vi+3m6w5LZMoMqyfOP2/YqtB4qizr9y0rSepHMkSfob6g4d6Ku4fjaXHxkdr023EwRhNpsOH9xfZSJmkiCcTntF0BfGmOP4dCZbdc9EoiRXSCn8tCwTdEsAeA6wCQ1sM2WiJrbHlSsKSTNVBWsqipLLFwRBWHNXXjsZd9htLAtOYobalvmFBZ6srRwyXlcJ5J3QGqTX7WppDqxrH9Rmt7W3tUzPBPVVuiVZmg3O9ff17pyeqeV1fVRhL9IU3b+vZ6UGoSiq3ltXX19XKD5LNyRJ0lwonM5k1pUDQN1KT82FwvrqJWoGMOPpE0doGpLUbR2FYikUjlToQ5OR3d+3d136UPOma29tYVl2qcCIlh0rnkgWikW7bd1J5NVYF+u+nq4qP6jeudHpdJAkqTsCwlowZJVfyjKMPkHfogLnE8mU3W4zGOA4DgBAmQDbG6TFmZRDqiqimg0mjue//e725NSsgtbYdiVJ0uN2vfXaeX+DD5q9Bllit9l6ezqYmmpjJxKp2bmQPiRgp0ORpNfjWW9fokiyu3PP9Ru3OL5sCISj87Ik75Rnx9hQLJaGnoyVRTwbDG6Xs61lxWo5JEF4Pa6A3zc1Pat/9kQyPTsXWq8ymZ4NVhTII0lyT1tro78BfLG2ricYDJFobHkUmd/va6h/vlPfKjMMTdO+em+d1xONzetT9+aLxUQybbVYKWrdyqTR77OtJ/s8RVEWi9loNPI8v5SqQVGQVHUVdrPZ5HY5K0ZBNpcbm5wOBPwWiGUHAFAmwE4we1de99ZCkuSJqZl7DwbWdIahKLLR33Dm5HFo79qUia/e+5Mfv2uvKWHa3QePkp+kBUHcPTMpTdfVedZrZ5Ak2RJopMoDqBDCkei8JMs7yCKdmp5NZzK4PBlTV+cek8m4cmoowul0NPobaJpeipbWqsgH5yLHjyhk1bXPnyqT8hbTSo6aTEYYrVspUkPhqCRXpjBpCjSybC3uuA67vd7rmZ+P6w/jisVSMpVubQ6s1x2dUO9kvQVkGJpmGZrX7R1oB/tVftxkMrqcjoovzeUKN76746v39u3tYRlW7elwrAcAoEyAbQlJkssDiJHqvlzdyogVBSmKvKarOsbUgj2EELR5TcrEwDCMx+1yOuw1fNxms2k5qXbNmQnN0F6Pe71GD0EQHq+bLe/wGKN4IrGDZBvGeOBpVi69D4+hp7ujolhExbMbWbbB53M47Jl0Bi9eSuCFSDSWzeVdLmeVrSmKUigUrRjyNEU1Bfy1nekBNROJzcuyXDGqfV7vKj1hFSwWs9NpJ0jCoHu3pRKXSmdqmToIos7jIUhyXRmTaYquCJdXEJJkqXphU+f12KxW/YiWZXlqJvi7P346F4ocPrC/KeB/Go612EYgVABQJgCwXaAoimVZotL0QapzC4b2AbYnDE173K4aHN9ZhnG7XfrqohgbJEnWKjlsfwMFY8zzwtjEpD5LrFrMztLW0rxmjIffV+er82azOcPiISc2GGLz8Uh03uGwk9U5YhWKpeWFO+0Om8vppEjI8rKl5PIFRUHlNW0MXq+HoWsxNiwWs2NZhlxBFEvFGuu0Wi0mYp2B5wShFRXRnQNhjKtO6k1R1N7e7q7O9kw2q4+DkmV5JjgXTySvXL8ZaPR3d3b0dO0JNDawLEuRTwF9AoAyAYBtoExI0mRkK/a0EMJq1p0qVhE1SxJJkCSJl1lQhl2ZrBbYFjMpRTnttposCUKzvQhd91Tz/3A7QpkghKZmZnO5fEWMR0tTwGa1rnn/9fV19XXeiakZvftlLJ4IR6Pdne2G6pQJz/OSJFeMbpfDaTabwLbbYniOXzDbyyvl2u1Wfd2edQwrmjabzBRJGQzPzigUWRFEsZYjEzXqY4u7BEmS9V7P6RPHZoOh+XhS389lWcnlC/lCMTafeDz4hKFpm83a2tLUsad1T2trS0vAYjaTS6UWCfD4AkCZAMBLUSYUyTLs8glYUZCsyAaDcc1lwGI2O+w2ReempdWH1swXaGFgMyBIQnUcqsV0MLLGBSmOCf1OM88LWO2629wcURRlZGyS44WK/YXO9laL2bTmx80mU3NTo2XAlNWFFAuCOBsM5QtFr6eq7GS8IChK5dBmGJqG2PetBWMsiEJFkVA15ztdWzcmDATD0BU5DLABS7IkK7LRwK5/fXkJNg9BEIf6+yYmpy9fv1koFCsktFbFSBRFSZLUnF3Jew8ea+V0Gv2+Iwf7+/v2NvjqLRazkWVJOAMEQJkAwBZDUpRx2ZmJQU0WKYqiwbpGvLXZbHr9wtmjh/r1qyPGKJXOfnX5+lwoDC0MbI7xQaqe9LUYX0Yju/yDvCAYMDZs+13SEsdNTc8IYllUDMMyzc1NNEPLyprhXrg5ELBardncs6LaakT7XCab83rc1dyDIAjqF5UZfEYjS9GUAbaZtxBJkmWlMnKPoZkXsadpmiap8o+r7o7K+ovevMTyISzLvvfOmwRB3Lr7IJXOKIqCyvfOlv7U65nZYDgUjn31zbXm5sCh/r7DB/b7G+pri9gBAFAmAFAjDE1brZaKmRcbcInjCoWix+1ecwHo3NNe8UNFUcLR2O37jwwhaGBgk5SJYcEOrtH2opYbTfKy6mzbk2AoEk+mKqq2WyzmYqk4OT1LUeSayoQX+IrMAQihUDiaSKb2lBeJXwlRkpBS4UG00KokSYIFt2VoxUYqcoqoyX+pdeULrtASlFo1qXw5MMgLpr2ygxqHokin0/HB+++2t7XeuntvYmo2lUqjVfOvYBWEkCzLw0/GxsYmR8cmXn/1lQN9e6EGFwDKBAC2DpPJWOf1VNTkwthQKnH5QrE6G5FY/hNw0QU22SwzIKXGPG8VEcNPTRma3v5dFmM8GwylM9kKG6tQKH59+bp6FrTWM6j141OpTKVc4fmZ2bn+fb2WZVXqnrOMURRBVtbxUxSEEYLAsq2U588LJtFeQu3vQQ1aKT9MUN0Fa1c7L23zgmAY9uSxQ10dbaPjk9MzwWAoHInF8/mCdoSi6ZDnjjK1AKv8aGA4kUrH5hOvXzhrMhphTQNAmQDAVsAwjNfjNplNev8QjHGJ4wuFErQPsEE29cbb6JIk1XZV8XnhvGaT8WV6n1T3yCWOC4WjxWWJkjiOnwtFXvD6YxNTxVLJZDKtWVDPyBppiqxoLkmSFiQfJL3YOsvbwLCVjltqojkJ1ZycHRtkRanU/ISBoWma3nlBRCRJkCTtq6+r83qOHOpPJFLJdHo+nohE5yPR+WhsXhP5+rKSZV1aloNz4Y8/v1jn9Rw/chCUCQDKBAC2ZO4mCKfD4XTYs9mc3gYqFovZfA7aB9gQk1rN3ok39JpqWegarokNgiAsl0omk0lLV7ptmxEhFI3FY/NxtBlFgdTTmGQq7XG71iyoZzIZqWVJaUVRWjPKBdhoy5tk1SgI/eBSFkC15nLAsiQvc9wiVGFC7+iGspjNzU2BpoBfkmReEHhe4HgukUiNT86Mjk+EwlFBFCpqBGlzVy6Xv3jpSk/nHofDDgHxACgTANh0CIJ0Ouwup2M2GCpTJiUunkgJoshC/N/3vo+8+CVkWd5Ys1VBqMTzNYkdXOL4ipTWBGEwm7a7t4Zaqz42H09sino0GHiBHxkd79zTtuYvs0aWpqiK1ioUi2JNuWWBFxmZJpORJAhF1+7YYOA4DiFErT9VmoIQLwgVwe5qNV6G2OExRARBqIeBJE3TZjWLHca4raX5wP59gijOxxNffXPt1p37CxNV+SmKLCuzwfC3t+7+4I0LoEyA3bnHAU0AbK8eSRJOp8PtclXYGQihWGw+mUxBTZLvufGjj2peKhy+3quouX02MoW0LMmpdLaGO0EIJRLJCllCUZTFatnmeaV4ng/OhXL5/CZdX1GUx0MjShUHMjarRY0JLmuudDqTLxQxRjBmthKLxVxZIhDjRCoty3INo4Pj+Fy+UJHcgGHoXVmpRs0UTJlMRrvd1tHe9vd/8+H/8j//50MH9y/PuVziuMHhkWKxCP0N2JXAmQmw7aZnh93WFPCbzWaO4/WLWTQWjydSvvo62Cj6HusSrWxIGeI6AzwwxhzP84K4gTcmyXIqlV6vHYwwzuZyvCiUKxOyzus1suw2t7zSmez0bKgiBsBkMvrq6qqKfV+m0GbnwpIkLTUFQnh6JpjN5tcs42A2mf0N9ZNTM7JObUqyHInG+nq7l3eYbcMu3GRp8NXTdFm2aGwwxBNJSZJrSHdbKnHZbK5C0lgsZrfLuStPztVnIiiCMJAGjMn2tua/+ouf/pr504PHgxzHP2tShEqlUiabczmdsCgAoEwAYJOnZnVXvKO9ze+rnwmG9BVzk6l0MBTu6txD09Bvl1YyomKrGKubzbv1XIkkCJYts28wxmqcxvqUSTaXrzLVW5XIkpxIJkVJWldCT6yGaigyqnjGRr9vG9vTT9swlckEQ+GKM42mRv/f/fzDQGPDeg1HWZb/1//tf5+entU7roiS9Ghg8PVXz62eXY8kybbWllt3Hxh0PQEhNDE1c+7MSYvF/LI77XNklbJLY2AC/gaaoQlR1MuJ2HxclCSLYd0volAspjKZikzENovF63GTu92nV3X3ourrPD96+41MNjs8Mq6b5HGpxGezeVgBgd250EMTANuQ5oC/uSlQoUBEUXz4eDCVToND1xJGo5EwVIZe5PMFvEvbiCAIttxkxxiXSpxYbgmtjoJQKp3JFwobeGOKosQTqUQitb5PITQ+OS3JUoWd7W/wbWf5rapBMRyO5rK5paB/zQmtrs4TaPQb1w9rNB7u76tIO4sxvvdgYE2/O5Ik21uamfIWQwiPjk8m1aoR+KUP0korGufzRbTrxihBEIGAn11WcjQ4F85mc+t6XqyOjkQyHY8nKz5otS4ok+9JtCFJUf6G+rbW5vIBaOB4Xl+cFABAmQDA5mKxWPb2dNqsluVm3Nj4lCTJIE40S4BlmMq4UozTWsDDbmwikiSXF7gQRDGVylTfJYrFUigc4Xl+A28MYZxKZ4LrTJXL88LE1IwslVneNE23BBpZZlsrk2KpND45jcoanTAa2dbmphpcubSTooP9+yr0GMZ4ejYYXyu6jCQXDGK326X/XoRQLpd7NDCkKMrLHQvMwiCteC5DOpPVMsTtshHqcbncLidRsVdSKI5OTOF1KUSMOY6bC4ULxaK+lbSShS6n43vi00sShNVicToc5WdEWJYVaUMj5QAAlAkArAZFkf19e+vrvPo9VIyxKIhXrt9MJJObkqh0x+kSdZeaNZa5D2GDIZ3N4l1aYo5h6OWFOEVJmp0LVdklMMaJZGp8Ympj3WkwxplsbmJqulgsVb9HPzk1E4nGKu7E3+ALBPzUNj4zQRjn8oWJqZny8BjCYjZXk0prhc5MNDb4GurrKs5MOF4YfjK+ugFPEITZZDx9/EhFJAPG+Mr1m3PhyMudLkiSMJtNFVotnc2i3Ridz7LM4YP79YmzMMaKoly/eVtaTxC8glA8kRwcHqnYmLDZbB3trd8fh96FVU+UOI4vbziCYSiTkYFFEABlAgBbtpaTHrfr1VdOm8pzp2IDnp4N/ub3n6y7etcuPWJhGFot+FC2ksVi8Y11VdpGz0szvnovUb5dKgjC8JOxapSGFvs+MjYxOxfeWB8frdLi6Pjk1MwsQkqVBseDR4OJZBqV2/ddne113m3tRo8UNDk1U5GViyQIm9Xa1tpSs9BmjWxPd0elhaooj4eG10wtQBDE2dMnXC4nWaZMDMlU5pe//r1YU7E/zaR+4RNagiTIBl99Raa1RCKZyWZ32ZmJFhpx5uQxiipLJ6Uoymxw7s69B7KiVPPI2ibUo4HhuXCk4vpup2P/3t4d5Mql9iKkr5+43o/n8vlkKl2Rvo9lWbPJDKYCAMoEALZUnJw+eWz/vl79qT3GBkmU7t5/+Ns/fcrxPELfa58ugiCMRrbBV1dmNSKUTKe//e7OrmwcmqY8brdaH/0ZkiSPT07P6ArgrISiKKFw9NKV60p1FtJ6mQtF7tx7mM3l17y4LMsDQ0+ejI7ps1Gpe/+mjvY2h92+nW0vBSlDI2NyuTMJQRKdHW1ms6m2ZMeEWth7X29XxaEHQig4F06lM6tLC0LN6ff6uTPl08WCtBgdm/ztHxemi3W9cfWrcSKV+j//3///RdxmCMJAUmRLc2PFxYsl7pMvvq7ZYN3Ok1Kd19O3t4eiyIoO/4dPvqhIkL2iKY9QbD5+8dJVUZQqhn9XV4evvm4HNUguXwiGwrwg1PauFUWJxuaDoXB5I5MOu72+3gt2AgDKBAC2dIVjGPpn77/ncjn0oRQIY1lRLn599V9+88dwJMLx/CpWJlZ/uVTi4olksVTafU1kMhqbGxv15QMwxjwv3L73YGp6plQqKep+Hca7xKOdIAi329ncFKgQY9HY/OVrN9TkpNLyJ9UMXFGUwtHYv/zmD4lkarNMdkW5duP2d3fu5fOFlbolQlgUpamZ4MVLV8ORmP53aJru7e5sa22qrAixncAYC7zwZHS8QvoSBLGvt5siayyApxZzIJsaG50Oe/m5B+YF4cnoxJrKhKKoc2dPtrY261191Mp08uWrN373p88SyZQgimsaiAghSZJz+cLwyOg//OMvHz4efEFnMIoku/a0U7p3qkmm727dGxmbKBSK8i4apFpRjtfOnbaYLeVhPzgeT/7Tr343H0+KzxukusaXorH5f/ynX6UzWX3LkyRps1pPHztM09QOapBIdP7/+cU//9+/+JcHjwfn44lSiZNlec1OiBf74Vwo8tnFbyLRmP5fGZoONDbU14EyAXYnkH0V2L5QFOX3+957580/fXIxncnoCh0gXhCuXL85FwpdeOV0e1tLfZ3XarFUGHMIYZ7nw9HYwOCTazdvV0zuu8NMNxqN7W0tdrstm8sbdO0zGwz/4z/96vzZUz3dHTaL1WQymkzGBYG3zN4lnqYe3iFbKSTp9bj3tLUMDo/o08sKovjdnfuSJL/1+vk9bS10eW0yhHE+lx+fmv70i0sjYws2LsswSPW/2tjbQwiVOO7jz74SePHMyWP19d7lda95nh+fnLp46erjweGKlLtul+PUiSMBv3/btr+m8cYnp/O5fIW9zjJsd1dHDXW+9f3ZbDZ1tLc9eDSAdL55giCOjk+eOHpo9egCkiSdDvtPfvyjX/7qt+FITP9SCsXiN1e/TSZTZ0+f6GhvdTod9Ar3qSCUy+XDkejDx4Pf3XmQTKVpmnoRwaAprs6OdrfbFdedGGCMSxz/D//lny+cPXWgf6/DbjeZTCajkWHonT9Iib59PSeOHbp89cZSYRNNIg4Nj/7Lf/vDW6+d69zTZjJVVkvEGOcLxYnJ6Y8+uzgxNaPvYARB0DR96sTRnu6unRX7jpCSzxenZmbvP3jc091xoG9vW1tLvdfjdjlXKfCiOXHNBsNXv735aGC4YqzZbNYD+/dB9nwAlAkAvAxxQpLnzpwscfzX31zLZHOKbp2TJGlsYjocmW9uauxob23w1ZtMJrPJSNO0IIocxxXVKl0jYxPTs8HlzuIEsXBxoopFTlGUh4+H1nTRkWV5Pp4oX0JwLpe/eeuuzWpdxbDQjj56ezorIkaqtNT9DfV9+3pu332ot7NlWZ6eCcaTqZamRrfLZbNZbVYryzLLtV9XR3t3556dYvdoYdZ72lu9HrfewwdjzHH8rTv3M9ns/r29bo/LYbNZrRZFUTieTybTs8HQg8eD2i6skWV7ujtyucL0bHDDZlKKMlvMavg7ymZzf/r0y7lQuKe7MxBosFmtJqNRURbkdDKVnpkNPhwYCs6F9dXoFkQmy+7r7VYNjm29JSwryr2HjysSuVIU1drS5HY6XrAjmU2mro62R4PDBl3jyLIcCkfSmYzZ7F9zL6O3q+P182c//vzrfCGvKGXd4879RzPB0N6eztbmpoaGevW9sDTNYIxEURJEMZcvJJKpcDg6PjUdicQkWVJT3JH4hTutzWo5efzwFxcvC6Kotz7jieTHX3x1//Ggr86rDVKjyUgsG+PNTY0H+vZWY5Fr0nFqJhicC695NDQ1PVth8iKEvrtzz+lwrNHbaWpvT1ed1/PcW9ImtFfPnZmeCc4E52RZ0e8g3H84EE8kD/Xva21p9rhdFrOJpmlRlIolLplKTc0E7z98HE+k9KcKmrrr7mh/583XKIrcWfmCMTYg1TOQF4TBoZEnI+Ner7u9taWp0e/xuF0up8NuM7IsyzIkSQqiyHM8xwupdHp8cnpgaCSeSFQ0her02N3X2/3cOjkAAMoEADZ7+420Wa1vXHgFIfTNlW9T6Yx+01FRlFw+P/QkPzwyZjSyqjJZWOcEQSiVOM3RayVbgabozs49LqejGmXyxaUrExPTqzh1qPeERbEs0BZjQyqd+f1Hn6lV4lZTJl6v528cP6tBmRgMBpfLeeLIodlgKBSKYJ2BouAFXTS4cs57rTbIn733dldH+846Nunc09a3t+fWnft8eWU9QRQfDz4ZGh612ax2u92mKpMSx2cymRL3NMyAIIhAY8OFV07fvH1vA5WJ1Wo5fKj/3oPH+XxBQYjj+W9v3b33aNDfUG+3PVUmCxoplU4mU8qyjkRRVFtr84VzZ2rrA1toZuFisTj0ZMxQHrVPkeTB/n0v3otYlmluDths1lRK1L/ZVDozPTsXaPSvPV3YrKdOHM0Vitdv3EpnsvqDVoRQJBqLRGMmo9HrddvtNvWMQlUmgsQLQi5fSKXS4kafpGmJg08cPTw2PjUyNqGfwbRqPOMTU+MTUysNUoqiLrxyasESre6sQFGUu/cfXbx0dXUnNGzAkiRXzJAIoT9+8sWaJq/RyP7tzz90u1wrKROKopoa/W++du6jTy9GYrGlzqI6VYqTUzMzM0GPx+3xuKxms6pMxEKxlEilNTfI5RcMNDb8+L23d3QZE821WFaUcCQWjsS0BOhup9PpsBuNxiVlwnE8x/GpTCaXyy2PFVRlauCt189bLOZaHScBAJQJALwwdtuCOKEp+tLla6lMVl4WkKqVfhMEMbdoiK/ktK1uvxFWi/WHb7165tRxZxXKxGAwSKKkBtyjNdeeip8ghHheWH01JQhCUOMjazTmGGZ/395YPPHl11f0x0q7GLfLdfbUsdlgaHYutPxFKwjl8oV8oag1O15EEwAup+P8K6c69rTdvvtgA2/JbDadPn6EMBiu37yjyLJ2pCAIQjAYUmXp0p1UlptTzTiyscH3sz9/r6vWlLtbZ12pmY6z2VxFR6do6uD+DVAmmrdewO9LpdL6YZXN5WeCoVMnjpKrFoPX8Lhd77z5qsNuu3jpSiKZXj4iBFGMROejsbh6JWJp7K4waWyA/UdRVItqUOYLxdh8XN7MShTYYJCkGucrzXeuGiNbbdXVzmRMJuPxI4ckWf784jex+UTFW1AQSqbSqXRm8W1iLeXA8rmRIIj2tpb333unt7tTDdXZJeY4QqhYLJVKXDgaW3oqvNgT0fNq3TA03dLc9Ff/+qdtrc3fk0KTACgTANimUBTlcbvefO2VlubGTz7/enxyWlHkirlb+/sqDgyaJtEKbP/sz9/r6+2xWi3VzO+43LqtxVZY9YMEQbyIIztJknab9fXzZ+026x8/+VLLL7l0t7uyJCVNU/t6u99569Vf//7jbDa3PJx0+cvSHELsNusH77977MhBWVY2dmknSarO633z1XP5fGFweFSL8dVOrlZ/d5o/3r/9y5/1dHcxzHafkDHCjwafVOR+JQjC3+DzlZciqQ2CJN0uZ1Ojf3BoRH8AKIpiNBrLZLJul3PNb6Eoyutxv3bujNvl/MNHn0di83gxwHz1bYvKDqN2GpfT/uIZnAmCMJmMRw72syz78WdfTk4Hy0LeN3qU4uqesYbJavH6uKp5yW47e+oETdMfffplPJFcfOJnp1irt5h29tLa0vTTH/+ov693laiM7Yx6Pk9R2uGS+vDr6odLXZGkyL093R+8/17HnlYGIkwAUCYAsB2wWiyH+vt6Oju/vnz94y++FARRlpUqjQw1gJKqr/O+dv7sK6dP2KzWHeevvDo2m/X82VN9e3uv3bz17c07mUxWURS0aJHtMomi5m1jzp46TtP0L//r7wrF4up1EkiSpCjKV+/9D3/7V+1trRRJ5lZ2cqvxltTA37bW5r/7+Ye/++izm7fureJMuNQnjUb29PFjP33/Ry6n40Vix7dIlqhxAlrpmIrW3tvTyTA0sREWvN1ma2z0MyyrT7OGMZ6PJ0PhqNPhqDL+2WIxnzx25MD+fZeuXP/y6yv5fEGS5WqGgXYqQ1O0w2E7d+bkW29cYJmNKWmnipP9He2td+4/unztRjQ2r1W6WLDRd+k+gsVsOn/mZHfnnj98/MXd+w8lSUaKUs0roCjKZrOePXn87TcveDxuWldyd2fR4Kt77fyZew8fhyJRURAVNVti9S9am7ucDvubr5278Mpph922/ScKAABlAnxf0DaYrVby3XdeP3704L2HjweGRqKxeV4QZFlGClLUBR4vrm0kSVAkxbCMyWj0etwH9+87fvSQr95bkbipmu+t83ryhcImFVZXM+G6TEbjizeOr977/rtv/+CNCzOzc8G5cDgSS2cyHC8IPC9KsmHZMQJNUw67bXV/FVI1Fv1+n6SrLUCobVLzGmkxmxt8dSzL6Ju0vs5rNLJEdWGdmjg5feJoe1vLHz/+cmRsnOd5UZSWVn2CWGgTmqIZhqnzug8f3H/+zCmPx6XdM0lRbrerSRe3QFKk1+tmGXbNr6ZoyuW0N/p9ivxMeNSr/YqiaLfb9W/+hz/f0956/cat2HyC5wVZ0ZKELplcJE3TFrPJ3+A7f/bUof4+i8VSUfxh2zI/H7fbbQHcUNH3+vv2bojBRKhdqznQuLenK5lK63ssyzKFYrF61yptRFCU5d233zhx7PC1G7eGn4yl0hlBECRJVmeLZ5saWvIriqZZhmZZts7rPtjfd+zwAZ+vnlmYLsgNnMHcLuebr75y7szJ4FwoGArPhaLJVIrjeJ4XREmsnGTURB0ul6P6hFQkQTod9kBjA960ikYMy1jMpmrSh2iPHPA3/Pt/+5enjx+5fO3mXDiyOFTLX4E6Y9P0QvubjcaOjrZXXznd3dnBsrUclZAEYbFY/A0+eUGOLpo7NF1RurcazAuTVb3JaHx6q4SBYRiHw17lx90u5w9/8Npbb5xPJtNjE1NPRsenZ4IljlvshAgtNkR5V6SYhamLdjodhw/sP3HsUMDfQNP0zspLBgA1LgS70tkD2N0seSvJshKJxcYmpuOJZGGBoiCKsqxQFMmyrMVsctgdLc2NnXvaGnz1JEmpDv/r9lR+GhywaUOFWFzCN2RTsNyNa3HLeeXv1dyc1rigwVDhA05o5b6IGt2+kepUXnFj2tXWdcHFbiCHI7GR8YnpmblcPi+JEsKYZRi73eZ2Odtamvf2djnsNqL8+mhJLugMgmpuAD/Pt4/QtYbmMS8r8tj45NCTsWQqVSiURElUE3AZ7Xabv6F+X29Xa3MTzTA1t+HLGnpouaec1hc2rmr9c7uH1sKG9efPXXpdkizHYvHJ6dlQJJrL57kSL0qiovr1UTRlZNm6Om9To7+lqbG5OcCqvkPE5ryd8jG62iBdV89cpX9u9JT19HaqvaXF21IUJZ3Jjo1PTc0Gs9kcxy28AoQQRVEsw1os5jqvZ09bS1dnu91me5H2Vydsddo2lI3xGqZZLd2Z/gURVUybFVd4NpFiLAjCXCgcicbzhcLCf/mnK5eiIEo9IWFZxuvx+P2+5oC/pSlgsZg3rysCACgTANhgEEKKgpbsJUEQBFFkGMbIsqRa20zbtCMgj8luV6qqY4yiKIjneQUhi9lM0ZQaWPS0D7wEI36xc0qyzPMCSZJmk2mxP5LglfFSpounqH1GXEDSUjbTDE0uTRYkWIGbOFTVcwJNfmKB5yVZVtPmsoQ2VAlyl7naPlfeP42OW0yLoZ0jMQzDMszCxLXYD7dz0VUAAGUCAAAAAAAAAMCuBXwWAQAAAAAAAAAAZQIAAAAAAAAAAADKBAAAAAAAAAAAUCYAAAAAAAAAAACgTAAAAAAAAAAAAGUCAAAAAAAAAAAAygQAAAAAAAAAAFAmAAAAAAAAAAAAoEwAAAAAAAAAAABlAgAAAAAAAAAAAMoEAAAAAAAAAABQJgAAAAAAAAAAAKBMAAAAAAAAAAAAZQIAAAAAAAAAAADKBAAAAAAAAAAAUCYAAAAAAAAAAACgTAAAAAAAAAAAAGUCAAAAAAAAAAAAygQAAAAAAAAAAFAmAAAAAAAAAAAAoEwAAAAAAAAAAABlAgAAAAAAAAAAAMoEAAAAAAAAAABQJgAAAAAAAAAAAKBMAAAAAAAAAAAAZQIAAAAAAAAAAADKBAAAAAAAAAAAUCYAAAAAAAAAAACgTAAAAAAAAAAAAGUCAAAAAAAAAAAAygQAAAAAAAAAAFAmAAAAAAAAAAAAoEwAAAAAAAAAAABlAgAAAAAAAAAAAMoEAAAAAAAAAABQJgAAAAAAAAAAAKBMAAAAAAAAAAAAZQIAAAAAAAAAAADKBAAAAAAAAAAAUCYAAAAAAAAAAADV8t8DAAD//wByjkCGK13oAAAAAElFTkSuQmCC;clipPath=inset(4.9% 21.33% 4.9% 18.33%);" vertex="1" parent="1">
          <mxGeometry x="330" y="420" width="144.28" height="110" as="geometry" />
        </mxCell>
        <mxCell id="W2dNzMSNs9tSsbuihuLR-11" value="" style="endArrow=classic;html=1;rounded=0;" edge="1" parent="1">
          <mxGeometry width="50" height="50" relative="1" as="geometry">
            <mxPoint x="100" y="474" as="sourcePoint" />
            <mxPoint x="180" y="474" as="targetPoint" />
          </mxGeometry>
        </mxCell>
        <mxCell id="W2dNzMSNs9tSsbuihuLR-12" style="edgeStyle=orthogonalEdgeStyle;rounded=0;orthogonalLoop=1;jettySize=auto;html=1;exitX=0.5;exitY=1;exitDx=0;exitDy=0;" edge="1" parent="1" source="W2dNzMSNs9tSsbuihuLR-5" target="W2dNzMSNs9tSsbuihuLR-5">
          <mxGeometry relative="1" as="geometry" />
        </mxCell>
        <mxCell id="W2dNzMSNs9tSsbuihuLR-13" value="" style="sketch=0;html=1;aspect=fixed;strokeColor=none;shadow=0;align=center;verticalAlign=top;fillColor=#2D9C5E;shape=mxgraph.gcp2.check" vertex="1" parent="1">
          <mxGeometry x="505" y="560" width="25" height="20" as="geometry" />
        </mxCell>
        <mxCell id="W2dNzMSNs9tSsbuihuLR-14" value="" style="shape=curlyBracket;whiteSpace=wrap;html=1;rounded=1;fillColor=none;" vertex="1" parent="1">
          <mxGeometry x="475" y="380" width="20" height="190" as="geometry" />
        </mxCell>
        <mxCell id="W2dNzMSNs9tSsbuihuLR-15" value="sam build" style="text;html=1;align=left;verticalAlign=middle;resizable=0;points=[];autosize=1;strokeColor=none;fillColor=none;fontSize=14;" vertex="1" parent="1">
          <mxGeometry x="537" y="365" width="80" height="30" as="geometry" />
        </mxCell>
        <mxCell id="W2dNzMSNs9tSsbuihuLR-16" value="sam deploy" style="text;html=1;align=left;verticalAlign=middle;resizable=0;points=[];autosize=1;strokeColor=none;fillColor=none;fontSize=14;" vertex="1" parent="1">
          <mxGeometry x="530" y="555" width="100" height="30" as="geometry" />
        </mxCell>
        <mxCell id="W2dNzMSNs9tSsbuihuLR-17" value="Push" style="text;html=1;align=center;verticalAlign=middle;resizable=0;points=[];autosize=1;strokeColor=none;fillColor=none;fontSize=14;" vertex="1" parent="1">
          <mxGeometry x="110" y="449" width="60" height="30" as="geometry" />
        </mxCell>
        <mxCell id="W2dNzMSNs9tSsbuihuLR-18" style="edgeStyle=orthogonalEdgeStyle;rounded=0;orthogonalLoop=1;jettySize=auto;html=1;exitX=0.5;exitY=1;exitDx=0;exitDy=0;fontSize=14;" edge="1" parent="1" source="W2dNzMSNs9tSsbuihuLR-2" target="W2dNzMSNs9tSsbuihuLR-2">
          <mxGeometry relative="1" as="geometry" />
        </mxCell>
        <mxCell id="W2dNzMSNs9tSsbuihuLR-19" style="edgeStyle=orthogonalEdgeStyle;rounded=0;orthogonalLoop=1;jettySize=auto;html=1;exitX=0.5;exitY=1;exitDx=0;exitDy=0;fontSize=14;" edge="1" parent="1" source="W2dNzMSNs9tSsbuihuLR-2" target="W2dNzMSNs9tSsbuihuLR-2">
          <mxGeometry relative="1" as="geometry" />
        </mxCell>
        <mxCell id="W2dNzMSNs9tSsbuihuLR-22" style="edgeStyle=orthogonalEdgeStyle;rounded=0;orthogonalLoop=1;jettySize=auto;html=1;exitX=0.5;exitY=1;exitDx=0;exitDy=0;fontSize=14;" edge="1" parent="1" source="W2dNzMSNs9tSsbuihuLR-5" target="W2dNzMSNs9tSsbuihuLR-5">
          <mxGeometry relative="1" as="geometry" />
        </mxCell>
        <mxCell id="W2dNzMSNs9tSsbuihuLR-23" value="Trigger" style="text;html=1;align=center;verticalAlign=middle;resizable=0;points=[];autosize=1;strokeColor=none;fillColor=none;fontSize=14;" vertex="1" parent="1">
          <mxGeometry x="247" y="450" width="70" height="30" as="geometry" />
        </mxCell>
        <mxCell id="W2dNzMSNs9tSsbuihuLR-24" value="run unitests" style="text;html=1;align=left;verticalAlign=middle;resizable=0;points=[];autosize=1;strokeColor=none;fillColor=none;fontSize=14;" vertex="1" parent="1">
          <mxGeometry x="537" y="460" width="100" height="30" as="geometry" />
        </mxCell>
        <mxCell id="W2dNzMSNs9tSsbuihuLR-25" value="" style="sketch=0;html=1;aspect=fixed;strokeColor=none;shadow=0;align=center;verticalAlign=top;fillColor=#2D9C5E;shape=mxgraph.gcp2.check" vertex="1" parent="1">
          <mxGeometry x="505" y="465" width="25" height="20" as="geometry" />
        </mxCell>
        <mxCell id="W2dNzMSNs9tSsbuihuLR-21" value="" style="shape=flexArrow;endArrow=classic;html=1;rounded=0;fontSize=14;entryX=0;entryY=0.5;entryDx=0;entryDy=0;entryPerimeter=0;fillColor=#3399FF;" edge="1" parent="1">
          <mxGeometry width="50" height="50" relative="1" as="geometry">
            <mxPoint x="630" y="570" as="sourcePoint" />
            <mxPoint x="685" y="570" as="targetPoint" />
          </mxGeometry>
        </mxCell>
      </root>
    </mxGraphModel>
  </diagram>
</mxfile>
